<svg width="51" height="27" fill="none" xmlns="http://www.w3.org/2000/svg"><rect width="51" height="27" rx="4" fill="#D32D2C"/><path d="M11.357 15.516V14.05h3.147v1.465h-3.147zm10.172.709h-1.031V18h-1.77v-1.775h-3.656v-1.26l3.756-5.531h1.67v5.384h1.031v1.407zm-2.8-1.407v-1.453c0-.242.01-.594.029-1.055.02-.46.035-.728.047-.802h-.047a6.57 6.57 0 01-.522.937l-1.57 2.373h2.063zm6.591-2.29c.828 0 1.487.232 1.975.697.492.465.738 1.101.738 1.91 0 .957-.295 1.693-.885 2.209-.59.515-1.433.773-2.53.773-.954 0-1.723-.154-2.31-.463V16.09c.31.164.669.299 1.079.404.41.102.799.152 1.166.152 1.105 0 1.658-.453 1.658-1.359 0-.863-.572-1.295-1.717-1.295a4.08 4.08 0 00-.685.065c-.25.039-.454.082-.61.128l-.72-.386.322-4.365h4.646v1.535H24.39l-.159 1.681.206-.04c.238-.055.533-.083.884-.083zM30.424 12c0 .496.043.867.129 1.113.09.242.232.364.427.364.375 0 .563-.493.563-1.477 0-.977-.188-1.465-.563-1.465-.195 0-.337.121-.427.363-.086.239-.13.606-.13 1.102zm2.596-.012c0 .899-.174 1.575-.522 2.028-.348.449-.857.674-1.53.674-.644 0-1.142-.231-1.493-.692-.352-.465-.528-1.135-.528-2.01 0-1.785.674-2.677 2.022-2.677.66 0 1.166.232 1.517.697.356.46.534 1.12.534 1.98zm4.03-2.554L32.3 18h-1.406l4.752-8.566h1.406zm-.626 5.988c0 .496.043.867.129 1.113.09.242.232.363.428.363.374 0 .562-.492.562-1.476 0-.977-.188-1.465-.563-1.465-.195 0-.337.121-.427.363-.086.239-.13.606-.13 1.102zm2.596-.012c0 .895-.174 1.569-.522 2.022-.348.449-.857.674-1.53.674-.644 0-1.142-.231-1.493-.692-.352-.465-.528-1.133-.528-2.004 0-1.785.674-2.678 2.022-2.678.66 0 1.166.233 1.517.698.356.46.534 1.12.534 1.98z" fill="#fff"/></svg>