<svg width="32" height="32" fill="none" xmlns="http://www.w3.org/2000/svg"><path d="M26.997 27.116v-.015L25.6 10.226a1.917 1.917 0 00-1.92-1.792h-1.876C21.63 5.407 19.093 3 15.995 3 12.9 3 10.36 5.407 10.19 8.434H8.316a1.916 1.916 0 00-1.92 1.792L5.002 27.091v.025A1.794 1.794 0 006.805 29h18.39a1.83 1.83 0 001.31-.559c.334-.355.518-.837.492-1.325zM15.995 4.828c2.08 0 3.785 1.59 3.954 3.606H12.04c.17-2.016 1.88-3.606 3.955-3.606zM6.846 27.172L8.24 10.363v-.025c0-.04.036-.076.082-.076h15.361c.041 0 .077.03.082.076v.015l1.383 16.819H6.846z" fill="#000"/></svg>