<svg width="32" height="32" viewBox="0 0 32 32" fill="none" xmlns="http://www.w3.org/2000/svg">
<path fill-rule="evenodd" clip-rule="evenodd" d="M19.7007 5.8384C20.5654 4.8011 20.9993 3.68041 20.9993 2.48013V2.48012C20.9993 2.32092 20.9919 2.16045 20.9743 2C20.372 2.03158 19.7315 2.21605 19.0544 2.54961C18.3758 2.88822 17.8162 3.3127 17.3762 3.8232C16.4949 4.83147 15.9987 6.06462 15.9987 7.21688C15.9987 7.37613 16.0088 7.52768 16.0262 7.67168C17.395 7.78412 18.6572 7.07155 19.7007 5.8384ZM24.3043 23.0232C24.7967 22.3136 25.2218 21.5418 25.5808 20.7033C25.7289 20.3478 25.8681 19.9774 26 19.5907C25.3918 19.333 24.8451 18.97 24.3556 18.5004C23.2754 17.4886 22.7258 16.2143 22.7097 14.6829C22.6921 12.7169 23.5758 11.1843 25.3624 10.0901C24.3644 8.65611 22.8636 7.86013 20.8659 7.69717C20.1287 7.63392 19.2288 7.7945 18.1625 8.18234C17.035 8.60055 16.3699 8.81033 16.1737 8.81033C15.9112 8.81033 15.3125 8.63092 14.38 8.27716C13.445 7.92457 12.6925 7.74517 12.1187 7.74517C11.0701 7.7628 10.0963 8.03835 9.19508 8.57907C8.29386 9.1198 7.57379 9.85637 7.03254 10.7901C6.34384 11.9526 6 13.3398 6 14.9482C6 16.3523 6.25502 17.8026 6.76374 19.3004C7.23875 20.687 7.84508 21.9033 8.58259 22.9521C9.26997 23.9343 9.84376 24.6276 10.3025 25.0321C11.0213 25.7076 11.7413 26.0291 12.4637 25.998C12.9387 25.9817 13.56 25.8172 14.3312 25.5017C15.1013 25.1876 15.8212 25.0321 16.4925 25.0321C17.1325 25.0321 17.8325 25.1876 18.5942 25.5017C19.3534 25.8172 20.0056 25.9728 20.5464 25.9728C21.2997 25.955 22.0032 25.6424 22.6598 25.0321C23.0834 24.6602 23.633 23.9906 24.3043 23.0232Z" fill="#0E0410"/>
</svg>
