<svg width="32" height="32" viewBox="0 0 32 32" fill="none" xmlns="http://www.w3.org/2000/svg">
<mask id="mask0_721_3363" style="mask-type:alpha" maskUnits="userSpaceOnUse" x="5" y="5" width="22" height="22">
<path fill-rule="evenodd" clip-rule="evenodd" d="M5 5.00098H26.9987V26.8665H5V5.00098Z" fill="white"/>
</mask>
<g mask="url(#mask0_721_3363)">
<path fill-rule="evenodd" clip-rule="evenodd" d="M26.2628 16.2432C26.2628 15.4848 26.1947 14.7557 26.0683 14.0557H15.9961V18.1925H21.7516C21.5037 19.5293 20.7503 20.6619 19.6176 21.4202V24.1036H23.0739C25.0961 22.2418 26.2628 19.5001 26.2628 16.2432V16.2432Z" fill="#4385F6"/>
<path fill-rule="evenodd" clip-rule="evenodd" d="M15.9984 26.6947C18.8859 26.6947 21.3067 25.7371 23.0761 24.1038L19.6199 21.4204C18.6622 22.0621 17.4372 22.4413 15.9984 22.4413C13.2129 22.4413 10.8553 20.56 10.0143 18.0322H6.44141V20.8031C8.20113 24.2982 11.8178 26.6947 15.9984 26.6947V26.6947Z" fill="#34A855"/>
<path fill-rule="evenodd" clip-rule="evenodd" d="M10.0151 18.0325C9.80122 17.3908 9.67969 16.7054 9.67969 16.0005C9.67969 15.2957 9.80122 14.6103 10.0151 13.9686V11.1978H6.44219C5.71788 12.6415 5.30469 14.2748 5.30469 16.0005C5.30469 17.7262 5.71788 19.3596 6.44219 20.8033L10.0151 18.0325V18.0325Z" fill="#FBBD06"/>
<path fill-rule="evenodd" clip-rule="evenodd" d="M15.9984 9.55914C17.5685 9.55914 18.9782 10.0987 20.0865 11.1584L23.1539 8.09108C21.3018 6.36539 18.881 5.30566 15.9984 5.30566C11.8178 5.30566 8.20113 7.70219 6.44141 11.1973L10.0143 13.9682C10.8553 11.4404 13.2129 9.55914 15.9984 9.55914V9.55914Z" fill="#EA4235"/>
</g>
</svg>
