<svg width="34" height="40" fill="none" xmlns="http://www.w3.org/2000/svg"><path fill-rule="evenodd" clip-rule="evenodd" d="M12.262 16.933h9.074v6.257a4.544 4.544 0 01-4.537 4.54 4.544 4.544 0 01-4.537-4.54v-6.257z" fill="#FF7D4E"/><path fill-rule="evenodd" clip-rule="evenodd" d="M27.469 16.933v6.257c0 5.89-4.783 10.675-10.669 10.675S6.131 29.08 6.131 23.19v-6.257H0v6.257C0 32.466 7.53 40 16.8 40s16.8-7.534 16.8-16.81v-6.257h-6.131z" fill="#725CF0"/><path fill-rule="evenodd" clip-rule="evenodd" d="M16.8 0C10.912 0 6.13 4.785 6.13 10.675v6.258h6.132v-6.258a4.544 4.544 0 014.537-4.54 4.544 4.544 0 014.538 4.54v6.258h6.131v-6.258C27.468 4.785 22.686 0 16.8 0z" fill="#FDC672"/></svg>