<svg width="32" height="32" fill="none" xmlns="http://www.w3.org/2000/svg"><circle cx="24.5" cy="7.5" r="4.5" fill="#FF7D4E"/><path fill-rule="evenodd" clip-rule="evenodd" d="M18.2 3.43A5.84 5.84 0 0015.995 3C12.9 3 10.36 5.407 10.19 8.434H8.316a1.916 1.916 0 00-1.92 1.792L5.002 27.091v.025A1.794 1.794 0 006.805 29h18.39a1.83 1.83 0 001.31-.559c.334-.355.518-.837.492-1.325v-.015l-1.015-12.247a7.533 7.533 0 01-1.835.138l1.001 12.18H6.846L8.24 10.363v-.025c0-.04.036-.076.082-.076h9.203a7.451 7.451 0 01-.467-1.828H12.04c.17-2.016 1.88-3.606 3.955-3.606.494 0 .967.09 1.403.254.2-.587.47-1.141.802-1.653z" fill="#000"/></svg>