<svg width="22" height="22" fill="none" xmlns="http://www.w3.org/2000/svg"><path d="M19.034 0H2.966A2.963 2.963 0 000 2.967V19.04A2.961 2.961 0 002.966 22h7.923l.014-7.865H8.857a.49.49 0 01-.484-.477l-.007-2.537c0-.269.215-.484.484-.484h2.038v-2.45c0-2.838 1.735-4.386 4.27-4.386h2.08c.268 0 .483.216.483.485v2.14a.482.482 0 01-.484.483H15.96c-1.379 0-1.648.653-1.648 1.615v2.12h3.027a.48.48 0 01.478.538l-.303 2.536a.48.48 0 01-.478.424H14.32V22h4.715A2.967 2.967 0 0022 19.033V2.967A2.971 2.971 0 0019.034 0z" fill="#D4D3D1"/></svg>