<svg width="86" height="99" fill="none" xmlns="http://www.w3.org/2000/svg"><path fill-rule="evenodd" clip-rule="evenodd" d="M31.208 41.908h23.091v15.488c0 6.195-5.18 11.236-11.545 11.236-6.366 0-11.546-5.041-11.546-11.236V41.908z" fill="#FF7D4E"/><path fill-rule="evenodd" clip-rule="evenodd" d="M69.898 41.908v15.488c0 14.576-12.17 26.42-27.148 26.42s-27.148-11.844-27.148-26.42V41.908H0v15.488C0 80.354 19.16 99 42.75 99S85.5 80.354 85.5 57.396V41.908H69.898z" fill="#725CF0"/><path fill-rule="evenodd" clip-rule="evenodd" d="M42.75 0C27.772 0 15.602 11.844 15.602 26.42v15.488h15.603V26.42c0-6.195 5.18-11.236 11.545-11.236 6.366 0 11.546 5.041 11.546 11.236v15.488h15.602V26.42C69.898 11.843 57.728 0 42.75 0z" fill="#FDC672"/></svg>