<svg width="103" height="84" fill="none" xmlns="http://www.w3.org/2000/svg"><path d="M95.615 19.999V0H50.226v19.999l-7.142 12.353c-2.334.14-4.567.503-6.62.825-.583.1-1.166.18-1.73.261v-5.452c0-4.93 4.024-8.953 8.953-8.953v-6.036c-5.291 0-9.938 2.756-12.594 6.88a14.14 14.14 0 00-1.49-1.77c-2.735-2.716-6.78-4.426-11.729-4.929-3.56-.362-6.398 0-6.518.02l-2.274.302-.302 2.274c-.02.12-.382 2.957-.02 6.518.443 4.326 1.831 7.988 4.004 10.663-4.225 1.107-7.464 3.622-9.677 7.465-3.521 6.156-4.085 16.115-1.409 25.39a24.942 24.942 0 009.074 13.138c4.406 3.3 9.637 5.05 15.15 5.05h77.097V32.754L95.615 20zM69.38 17.786V6.035h7.082v11.75H69.38zm13.118-11.75h7.082v11.75h-7.082V6.035zm-26.236 0h7.082v11.75h-7.082V6.035zm-38.87 13.158c2.434.261 5.774 1.046 7.947 3.199 2.897 2.897 3.36 7.766 3.36 10.703h-.02c-2.938 0-7.827-.483-10.684-3.34-2.897-2.897-3.36-7.766-3.36-10.703.805 0 1.73.02 2.757.14zm8.51 58.789c-8.51 0-16.096-5.674-18.43-13.823-2.212-7.665-1.87-15.994.846-20.722 3.46-6.056 9.798-5.553 17.725-4.286 2.072.322 4.024.644 5.694.644s3.621-.322 5.693-.644c1.71-.282 3.561-.563 5.432-.724v39.555h-16.96zm71.061 0H48.878v-43.6l6.096-10.562h35.873l6.096 10.563.02 43.599z" fill="#7E70D8"/><path d="M70.407 38.388l-10 9.999c-4.144 4.145-4.144 10.885 0 15.05a10.602 10.602 0 007.525 3.118 10.64 10.64 0 007.525-3.119l9.999-10c4.144-4.144 4.144-10.884 0-15.048-4.165-4.165-10.905-4.165-15.05 0zM64.673 59.15a4.602 4.602 0 010-6.499l2.856-2.857 6.499 6.499-2.857 2.857a4.602 4.602 0 01-6.498 0zm16.497-10l-2.857 2.857-6.498-6.498 2.857-2.857a4.567 4.567 0 013.26-1.348c1.186 0 2.353.443 3.258 1.348a4.62 4.62 0 01-.02 6.498z" fill="#7E70D8"/></svg>