<svg width="88" height="97" fill="none" xmlns="http://www.w3.org/2000/svg"><path d="M67.193 73.415c-1.227 0-2.455.101-3.662.322a28.03 28.03 0 00-16.276-7.565v-2.414l9.737-5.794c3.4 1.73 7.002 2.656 10.483 2.656 3.4 0 6.559-.845 9.395-2.535 6.217-3.682 9.718-10.925 9.376-19.335l-.06-1.63-1.409-.845c-3.863-2.314-8.047-3.54-12.071-3.54-3.4 0-6.56.844-9.396 2.534-5.754 3.42-9.175 9.879-9.376 17.504l-6.639 3.943V42.975c7.987-4.91 12.695-12.514 12.695-20.663 0-8.671-5.331-16.739-14.264-21.568L44.236 0l-1.428.785C33.875 5.613 28.524 13.68 28.524 22.353c0 8.148 4.708 15.753 12.695 20.662v13.721l-6.64-3.943c-.2-7.625-3.62-14.083-9.375-17.504-2.817-1.67-5.976-2.535-9.396-2.535-4.024 0-8.208 1.227-12.071 3.541l-1.409.845-.06 1.63c-.342 8.41 3.159 15.653 9.376 19.335 2.816 1.67 5.975 2.535 9.395 2.535 3.48 0 7.062-.906 10.482-2.656l9.738 5.794v2.414a28.031 28.031 0 00-16.276 7.565 20.31 20.31 0 00-3.662-.322C9.954 73.416.719 82.65.719 93.978v3.018h87.036v-3.018c0-11.327-9.215-20.562-20.562-20.562zm-.825-32.935c1.871-1.106 4.004-1.67 6.297-1.67 2.455 0 5.03.644 7.525 1.871-.201 5.433-2.555 9.94-6.418 12.233-1.871 1.106-4.004 1.67-6.297 1.67-1.288 0-2.596-.181-3.903-.523l7.906-4.688-3.078-5.191-7.927 4.708c.926-3.702 2.978-6.68 5.895-8.41zM21.02 54.584c-2.314 0-4.426-.564-6.297-1.67-3.883-2.314-6.217-6.8-6.418-12.233 2.495-1.227 5.07-1.87 7.524-1.87 2.314 0 4.427.563 6.298 1.67 2.917 1.73 4.97 4.727 5.895 8.409l-7.887-4.688-3.119 5.17 7.907 4.689a14.684 14.684 0 01-3.903.523zm13.54-32.231c0-5.976 3.582-11.63 9.678-15.432 6.096 3.803 9.677 9.456 9.677 15.432 0 4.909-2.414 9.596-6.66 13.218V22.353H41.22V35.57c-4.225-3.621-6.66-8.33-6.66-13.218zM7.076 90.959C8.465 84.4 14.32 79.451 21.281 79.451c1.287 0 2.575.181 3.843.523l1.77.483 1.247-1.348a22.009 22.009 0 0116.116-7.062 22.009 22.009 0 0116.116 7.062l1.247 1.348 1.77-.483a14.508 14.508 0 013.843-.523c6.982 0 12.816 4.95 14.204 11.508H7.077z" fill="#FFBE5A"/></svg>