<svg width="85" height="107" fill="none" xmlns="http://www.w3.org/2000/svg"><path d="M80.67 86.519V24.66H55.55V13.252C55.549 5.955 49.614 0 42.296 0S29.044 5.935 29.044 13.252V24.66H3.922v61.88L.434 106.91h83.725L80.67 86.52zM35.06 13.252c0-3.99 3.247-7.237 7.237-7.237s7.238 3.248 7.238 7.237V24.66H35.078l-.02-11.408zM7.57 100.894L9.937 87.04V30.675h64.739V87.04l2.345 13.854H7.571z" fill="#FF7D4E"/><path d="M51.057 49.296c-1.103-3.789-4.611-6.576-8.761-6.576-4.15 0-7.66 2.787-8.762 6.576a20.145 20.145 0 00-7.9 6.717c-2.385 3.408-3.628 7.418-3.628 11.608 0 11.188 9.102 20.31 20.31 20.31 11.207 0 20.29-9.122 20.29-20.33 0-4.17-1.264-8.18-3.63-11.608-2.044-2.887-4.751-5.193-7.919-6.697zm-11.869 2.547a3.11 3.11 0 013.108-3.108 3.123 3.123 0 013.107 3.108v4.03h-3.107a3.11 3.11 0 01-3.108-3.108v-.922zm3.108 30.053C34.416 81.896 28 75.481 28 67.601c0-4.571 2.225-8.841 5.814-11.488 1.343 3.368 4.631 5.754 8.48 5.754h9.123v-5.253c3.188 2.667 5.173 6.697 5.173 10.987 0 7.88-6.416 14.295-14.295 14.295z" fill="#FF7D4E"/><path d="M42.296 69.867a1.831 1.831 0 01-1.824-1.825h-6.015c0 4.331 3.529 7.84 7.84 7.84 4.31 0 7.839-3.529 7.839-7.84H44.12a1.831 1.831 0 01-1.825 1.825z" fill="#FF7D4E"/></svg>