<svg width="99" height="99" fill="none" xmlns="http://www.w3.org/2000/svg"><path d="M90.317 5.8a8.475 8.475 0 00-3.21.62C86.1 2.726 82.715 0 78.712 0c-4.797 0-8.703 3.906-8.703 8.701v11.737a14.15 14.15 0 00-9.264-3.403c-5.802 0-9.476 2.378-11.643 4.583-2.224-2.205-5.956-4.583-11.758-4.583-3.075 0-5.976.947-8.355 2.726V8.701C28.99 3.906 25.103 0 20.307 0c-4.004 0-7.388 2.726-8.394 6.42a8.476 8.476 0 00-3.21-.62C3.907 5.8 0 9.708 0 14.503v26.2c.02 8.527 3.849 16.474 10.482 21.811 4.39 3.558 6.924 8.817 6.924 14.483V99h64.208V76.996a18.513 18.513 0 016.923-14.464C95.171 57.196 98.981 49.23 99 40.722v-26.2C99 9.706 95.113 5.8 90.317 5.8zM75.812 8.702c0-1.605 1.295-2.9 2.9-2.9a2.897 2.897 0 012.902 2.9v23.203a8.78 8.78 0 00-5.802 0V8.701zm-58.426 0c0-1.605 1.316-2.9 2.92-2.9a2.897 2.897 0 012.902 2.9v20.4c-.174.87-.29 1.779-.348 2.687a8.68 8.68 0 00-5.474.116V8.701zM46.61 93.2H23.208V81.211h23.4v11.988zm0-17.789H23.15c-.425-6.806-3.674-13.09-9.031-17.402-5.26-4.235-8.316-10.558-8.335-17.306v-26.18c0-1.606 1.315-2.901 2.92-2.901s2.9 1.295 2.9 2.9v25.62c0 2.224.852 4.448 2.554 6.15l10.907 10.905 4.1-4.1-10.907-10.944a2.917 2.917 0 010-4.099 2.9 2.9 0 014.1 0l14.002 14 .077-.078 5.918 5.859a14.392 14.392 0 014.255 10.248v7.328zm-.155-21.656L29.532 37.009a12.548 12.548 0 01-.542-1.566v-5.704c1.045-4.08 4.313-6.903 8.355-6.903 6.595 0 8.974 4.486 9.167 4.853l2.708 6.458 2.591-6.535c.174-.368 2.398-4.796 8.935-4.796 4.99 0 8.896 4.312 8.896 9.823 0 1.972-.502 3.79-1.547 5.704l-9.728 9.61.02.02-5.822 5.78a20.966 20.966 0 00-3.055 3.887 20.97 20.97 0 00-3.056-3.886zM75.813 93.2H52.41V81.211h23.4v11.988zm17.405-52.69v.174a22.201 22.201 0 01-8.316 17.306c-5.358 4.31-8.607 10.595-9.032 17.4H52.39V68.1a14.44 14.44 0 014.255-10.248l19.997-19.8.02-.02a2.919 2.919 0 014.1 0 2.917 2.917 0 010 4.1L69.855 53.038l4.1 4.1 10.908-10.906c1.702-1.701 2.514-3.925 2.533-6.149V14.502c0-1.605 1.315-2.9 2.92-2.9a2.896 2.896 0 012.901 2.9v26.007z" fill="#FFBE5A"/><path d="M75.494 31.918a15.748 15.748 0 00-.35-2.718c-1.439-6.471-5.814-9.443-5.814-9.443C66.938 17.958 64.022 17 60.93 17c-5.834 0-9.587 2.405-11.823 4.634l-.097.117-.117-.117C46.657 19.404 42.903 17 37.07 17c-3.092 0-6.008.958-8.4 2.757 0 0-4.375 2.972-5.814 9.443a20.75 20.75 0 00-.35 2.718S22.31 34.46 22 38.253l14.078 14.156.078-.079 12.776 12.553.039.097.02-.02.019.02.039-.097L61.824 52.33l.078.079 14.079-14.156-.487-6.335zm-6.164 3.676a10.175 10.175 0 01-.544 1.584L51.77 54.11a21.229 21.229 0 00-2.78 3.46c-.798-1.231-1.712-2.405-2.781-3.46L29.195 37.178a12.735 12.735 0 01-.545-1.584v-5.748c1.07-4.126 4.356-6.98 8.42-6.98 6.631 0 9.023 4.536 9.217 4.907l2.606 6.257.117.273v-.02.02l.116-.273 2.606-6.257c.194-.371 2.586-4.907 9.217-4.907 4.084 0 7.35 2.854 8.4 6.98v5.748h-.019z" fill="#FF7D4E"/></svg>