<svg width="42" height="50" fill="none" xmlns="http://www.w3.org/2000/svg"><path fill-rule="evenodd" clip-rule="evenodd" d="M15.328 21.166h11.343v7.822A5.68 5.68 0 0121 34.663a5.68 5.68 0 01-5.672-5.675v-7.822z" fill="#FF7D4E"/><path fill-rule="evenodd" clip-rule="evenodd" d="M34.336 21.166v7.822c0 7.362-5.978 13.343-13.336 13.343-7.358 0-13.336-5.981-13.336-13.343v-7.822H0v7.822C0 40.583 9.412 50 21 50s21-9.417 21-21.012v-7.822h-7.664z" fill="#725CF0"/><path fill-rule="evenodd" clip-rule="evenodd" d="M21 0C13.644 0 7.666 5.982 7.666 13.344v7.822h7.664v-7.822a5.68 5.68 0 015.672-5.675 5.68 5.68 0 015.671 5.675v7.822h7.665v-7.822C34.337 5.982 28.358 0 21 0z" fill="#FDC672"/></svg>