<svg width="32" height="32" fill="none" xmlns="http://www.w3.org/2000/svg"><path d="M25.19 19.9a12.972 12.972 0 00-5.218-3.161c2.125-1.315 3.539-3.65 3.539-6.307C23.51 6.335 20.142 3 16.003 3c-4.14 0-7.509 3.335-7.509 7.432 0 2.657 1.414 4.992 3.54 6.307a12.9 12.9 0 00-5.22 3.161A12.69 12.69 0 003 29h1.913c0-6.054 4.974-10.977 11.09-10.977S27.093 22.946 27.093 29h1.912a12.733 12.733 0 00-3.815-9.1zm-14.788-9.468c0-3.05 2.513-5.538 5.6-5.538 3.083 0 5.596 2.488 5.596 5.538 0 3.051-2.513 5.54-5.595 5.54-3.088.004-5.601-2.484-5.601-5.54z" fill="#000"/></svg>