<svg width="97" height="90" fill="none" xmlns="http://www.w3.org/2000/svg"><path d="M87.875 9.357C77.193-1.285 60.677-2.417 48.517 4.961 36.111-2.474 19.501-1.06 9.046 9.357c-12.52 12.473-11.781 32.908.587 45.21l8.182 8.152.02.019a8.701 8.701 0 005.681 2.51 8.547 8.547 0 002.52 5.66 8.554 8.554 0 005.681 2.51 8.58 8.58 0 002.52 5.66 8.554 8.554 0 005.681 2.51 8.548 8.548 0 002.52 5.66c3.37 3.36 8.845 3.36 12.216 0l8.201-8.17a8.492 8.492 0 002.52-5.66 8.61 8.61 0 005.681-2.51 8.492 8.492 0 002.52-5.66 8.554 8.554 0 005.681-2.51 8.493 8.493 0 002.52-5.66 8.554 8.554 0 005.682-2.51c12.481-12.454 12.784-32.89.416-45.21zm-61.84 49.38a2.969 2.969 0 01-4.186 0 2.942 2.942 0 010-4.17l8.713-8.68a2.969 2.969 0 014.186 0 2.942 2.942 0 010 4.17l-8.713 8.68zm4.016 8.17a2.942 2.942 0 010-4.17l8.2-8.17a2.968 2.968 0 014.187 0 2.942 2.942 0 010 4.17l-8.202 8.17a2.969 2.969 0 01-4.185 0zm8.2 8.171a2.942 2.942 0 010-4.17l8.202-8.17a2.968 2.968 0 014.186 0 2.942 2.942 0 010 4.17l-8.201 8.17a2.969 2.969 0 01-4.186 0zm20.57 0l-8.201 8.17a2.969 2.969 0 01-4.186 0 2.942 2.942 0 010-4.17l8.201-8.17a2.969 2.969 0 014.186 0 2.942 2.942 0 010 4.17zm24.603-24.51a2.969 2.969 0 01-4.186 0L62.837 34.226l-4.015 4 16.402 16.34a2.942 2.942 0 010 4.17 2.969 2.969 0 01-4.186 0l-16.402-16.34-4.015 4 16.402 16.34a2.942 2.942 0 010 4.17 2.969 2.969 0 01-4.186 0 8.554 8.554 0 00-5.682-2.509 8.492 8.492 0 00-2.519-5.66 8.554 8.554 0 00-5.682-2.51 8.548 8.548 0 00-2.519-5.66 8.648 8.648 0 00-5.17-2.472 8.558 8.558 0 00-2.52-6.208c-3.371-3.36-8.845-3.36-12.216 0l-8.713 8.68a8.618 8.618 0 00-1.723 2.452l-2.463-2.453c-10.208-10.17-10.814-27.02-.587-37.21 7.86-7.83 20.38-9.585 30.456-4.66-.379.34-.738.68-1.098 1.038l-11.895 11.85a9.155 9.155 0 000 12.981c3.106 3.095 7.993 3.548 11.63 1.151l18.315-12.17 22.955 22.87a2.902 2.902 0 01.02 4.15zm4.016-8.171L61.207 16.263 39.01 31c-1.401.925-3.276.736-4.45-.434a3.51 3.51 0 010-4.981l11.894-11.85c10.228-10.19 27.18-10.567 37.407-.377 8.239 8.208 9.451 20.623 4.602 30.266a9.017 9.017 0 00-1.022-1.227z" fill="#FF7D4E"/></svg>