<svg width="120" height="19" fill="none" xmlns="http://www.w3.org/2000/svg"><path d="M10.871.59l2.235 4.561c.165.332.455.539.786.58l5.007.747c.869.124 1.241 1.202.58 1.824l-3.6 3.524a.998.998 0 00-.29.953l.868 4.975c.166.87-.786 1.534-1.53 1.12l-4.47-2.364c-.33-.166-.703-.166-.993 0l-4.51 2.363c-.786.415-1.696-.248-1.53-1.119l.868-4.975c.041-.332-.041-.705-.29-.953L.32 8.302c-.621-.622-.29-1.7.579-1.824l5.007-.747c.33-.041.662-.248.786-.58L8.927.591a1.096 1.096 0 011.944 0zm25.322 0l2.234 4.561c.166.332.455.539.786.58l5.007.747c.869.124 1.242 1.202.58 1.824l-3.6 3.524a1 1 0 00-.29.953l.869 4.975c.165.87-.787 1.534-1.531 1.12l-4.47-2.364c-.33-.166-.703-.166-.992 0l-4.51 2.363c-.787.415-1.697-.248-1.532-1.119l.87-4.975c.04-.332-.042-.705-.29-.953L25.64 8.302c-.62-.622-.29-1.7.58-1.824l5.006-.747c.331-.041.662-.248.786-.58l2.235-4.56a1.096 1.096 0 011.945 0zm24.823 0l2.359 4.561c.175.332.48.539.83.58l5.285.747c.917.124 1.31 1.202.611 1.824l-3.8 3.524c-.262.248-.393.58-.305.953l.917 4.975c.175.87-.83 1.534-1.616 1.12L60.58 16.51c-.35-.166-.743-.166-1.049 0l-4.76 2.363c-.83.415-1.791-.248-1.617-1.119l.918-4.975c.043-.332-.044-.705-.306-.953l-3.887-3.524c-.656-.622-.306-1.7.611-1.824l5.285-.747c.35-.041.699-.248.83-.58l2.358-4.56c.437-.788 1.617-.788 2.053 0zm24.718 0l2.234 4.561c.166.332.455.539.786.58l5.007.747c.87.124 1.242 1.202.58 1.824l-3.6 3.524a1 1 0 00-.29.953l.869 4.975c.165.87-.786 1.534-1.531 1.12l-4.47-2.364c-.33-.166-.703-.166-.992 0l-4.51 2.363c-.787.415-1.697-.248-1.532-1.119l.87-4.975c.04-.332-.042-.705-.29-.953l-3.683-3.524c-.62-.622-.29-1.7.58-1.824l5.006-.747c.331-.041.662-.248.786-.58L83.79.591a1.096 1.096 0 011.945 0zm25.321 0l2.234 4.561c.166.332.456.539.787.58l5.006.747c.869.124 1.242 1.202.58 1.824l-3.6 3.524a1 1 0 00-.29.953l.869 4.975c.166.87-.786 1.534-1.531 1.12l-4.469-2.364c-.331-.166-.703-.166-.993 0l-4.51 2.363c-.786.415-1.697-.248-1.531-1.119l.869-4.975c.041-.332-.042-.705-.29-.953l-3.683-3.524c-.62-.622-.289-1.7.58-1.824l5.006-.747c.331-.041.663-.248.787-.58l2.234-4.56a1.096 1.096 0 011.945 0z" fill="#FFC329"/></svg>