<svg width="34" height="40" viewBox="0 0 34 40" fill="none" xmlns="http://www.w3.org/2000/svg">
<path fill-rule="evenodd" clip-rule="evenodd" d="M12.2617 16.9326H21.3362V23.1903C21.3362 25.6934 19.3005 27.7302 16.7989 27.7302C14.2973 27.7302 12.2617 25.6934 12.2617 23.1903V16.9326Z" fill="#FF7D4E"/>
<path fill-rule="evenodd" clip-rule="evenodd" d="M27.4686 16.9326V23.1903C27.4686 29.0799 22.6861 33.8651 16.8 33.8651C10.9139 33.8651 6.13139 29.0799 6.13139 23.1903V16.9326H0V23.1903C0 32.4664 7.52934 40.0001 16.8 40.0001C26.0707 40.0001 33.6 32.4664 33.6 23.1903V16.9326H27.4686Z" fill="#725CF0"/>
<path fill-rule="evenodd" clip-rule="evenodd" d="M16.7995 0C10.9133 0 6.13086 4.78528 6.13086 10.6748V16.9325H12.2622V10.6748C12.2622 8.17178 14.2979 6.13497 16.7995 6.13497C19.3011 6.13497 21.3367 8.17178 21.3367 10.6748V16.9325H27.4681V10.6748C27.4681 4.78528 22.6856 0 16.7995 0Z" fill="#FDC672"/>
</svg>
