<svg width="32" height="32" fill="none" xmlns="http://www.w3.org/2000/svg"><path fill-rule="evenodd" clip-rule="evenodd" d="M19.7 5.838C20.566 4.801 21 3.68 21 2.48c0-.16-.008-.32-.026-.48-.602.032-1.242.216-1.92.55-.678.338-1.238.763-1.678 1.273C16.495 4.831 16 6.065 16 7.217c0 .16.01.31.027.455 1.369.112 2.631-.6 3.675-1.834zm4.604 17.185c.493-.71.918-1.481 1.277-2.32.148-.355.287-.726.419-1.112a5.403 5.403 0 01-1.644-1.09c-1.08-1.012-1.63-2.287-1.646-3.818-.018-1.966.866-3.499 2.652-4.593-.998-1.434-2.498-2.23-4.496-2.393-.737-.063-1.637.098-2.703.485-1.128.419-1.793.628-1.99.628-.262 0-.86-.18-1.793-.533-.935-.352-1.688-.532-2.261-.532a5.771 5.771 0 00-2.924.834 6.091 6.091 0 00-2.162 2.211C6.343 11.953 6 13.34 6 14.948c0 1.404.255 2.855.764 4.352.475 1.387 1.081 2.603 1.819 3.652.687.982 1.26 1.676 1.72 2.08.718.676 1.438.997 2.16.966.476-.016 1.097-.18 1.868-.496.77-.314 1.49-.47 2.162-.47.64 0 1.34.156 2.101.47.76.315 1.412.47 1.952.47.754-.017 1.457-.33 2.114-.94.423-.372.973-1.041 1.644-2.009z" fill="#0E0410"/></svg>