<svg width="32" height="32" fill="none" xmlns="http://www.w3.org/2000/svg"><mask id="a" style="mask-type:alpha" maskUnits="userSpaceOnUse" x="4" y="4" width="24" height="24"><path fill-rule="evenodd" clip-rule="evenodd" d="M4 4.001h23.999v23.853H4V4.001z" fill="#fff"/></mask><g mask="url(#a)"><path fill-rule="evenodd" clip-rule="evenodd" d="M28 16c0-6.627-5.373-12-12-12S4 9.373 4 16c0 5.99 4.388 10.954 10.125 11.854V19.47h-3.047V16h3.047v-2.644c0-3.007 1.791-4.668 4.533-4.668 1.313 0 2.686.234 2.686.234v2.953H19.83c-1.491 0-1.956.925-1.956 1.874V16h3.328l-.532 3.469h-2.796v8.385C23.612 26.954 28 21.99 28 16z" fill="#1778F2"/></g></svg>