<svg width="168" height="200" fill="none" xmlns="http://www.w3.org/2000/svg"><path fill-rule="evenodd" clip-rule="evenodd" d="M61.313 84.662h45.372v31.288c0 12.516-10.178 22.7-22.686 22.7s-22.686-10.184-22.686-22.7V84.662z" fill="#FF7D4E"/><path fill-rule="evenodd" clip-rule="evenodd" d="M137.343 84.662v31.288c0 29.448-23.912 53.375-53.343 53.375-29.43 0-53.343-23.927-53.343-53.375V84.662H0v31.288C0 162.331 37.647 200 84 200s84-37.669 84-84.05V84.662h-30.657z" fill="#725CF0"/><path fill-rule="evenodd" clip-rule="evenodd" d="M84 0C54.568 0 30.655 23.926 30.655 53.374v31.289h30.657V53.374c0-12.515 10.178-22.7 22.686-22.7s22.686 10.185 22.686 22.7v31.289h30.657V53.374C137.342 23.926 113.43 0 83.999 0z" fill="#FDC672"/></svg>