<svg width="42" height="50" viewBox="0 0 42 50" fill="none" xmlns="http://www.w3.org/2000/svg">
<path fill-rule="evenodd" clip-rule="evenodd" d="M15.3281 21.1656H26.6712V28.9877C26.6712 32.1166 24.1267 34.6626 20.9997 34.6626C17.8727 34.6626 15.3281 32.1166 15.3281 28.9877V21.1656Z" fill="#FF7D4E"/>
<path fill-rule="evenodd" clip-rule="evenodd" d="M34.3358 21.1656V28.9877C34.3358 36.3497 28.3577 42.3313 21 42.3313C13.6423 42.3313 7.66423 36.3497 7.66423 28.9877V21.1656H0V28.9877C0 40.5828 9.41168 50 21 50C32.5883 50 42 40.5828 42 28.9877V21.1656H34.3358Z" fill="#725CF0"/>
<path fill-rule="evenodd" clip-rule="evenodd" d="M20.9998 0C13.6422 0 7.66406 5.9816 7.66406 13.3436V21.1656H15.3283V13.3436C15.3283 10.2147 17.8728 7.66871 20.9998 7.66871C24.1268 7.66871 26.6714 10.2147 26.6714 13.3436V21.1656H34.3356V13.3436C34.3356 5.9816 28.3575 0 20.9998 0Z" fill="#FDC672"/>
</svg>
