<svg width="490" height="202" viewBox="0 0 490 202" fill="none" xmlns="http://www.w3.org/2000/svg">
<path fill-rule="evenodd" clip-rule="evenodd" d="M244.999 2C243.267 2 241.554 2.08446 239.865 2.24942L239.671 0.258896C241.424 0.0876294 243.202 0 244.999 0C246.797 0 248.574 0.0876292 250.328 0.258895L250.133 2.24942C248.444 2.08446 246.732 2 244.999 2ZM269.675 8.18632C266.678 6.5779 263.508 5.25315 260.199 4.24794L260.781 2.33432C264.217 3.37831 267.51 4.75407 270.621 6.42409L269.675 8.18632ZM229.799 4.24794C226.491 5.25315 223.32 6.5779 220.323 8.18632L219.377 6.42408C222.489 4.75407 225.782 3.37832 229.218 2.33432L229.799 4.24794ZM211.798 13.9023C209.15 16.0808 206.719 18.514 204.542 21.1643L202.997 19.895C205.256 17.1443 207.779 14.6188 210.527 12.3578L211.798 13.9023ZM285.456 21.1643C283.28 18.514 280.849 16.0808 278.201 13.9023L279.471 12.3578C282.22 14.6188 284.743 17.1443 287.002 19.895L285.456 21.1643ZM198.833 29.6943C197.227 32.6921 195.904 35.8636 194.9 39.173L192.987 38.5926C194.029 35.1557 195.403 31.8623 197.07 28.7498L198.833 29.6943ZM295.098 39.173C294.094 35.8637 292.772 32.6921 291.166 29.6943L292.928 28.7498C294.596 31.8623 295.97 35.1557 297.012 38.5926L295.098 39.173ZM244.999 32.6749C243.551 32.6749 242.135 32.8177 240.767 33.0897L240.377 31.1281C241.873 30.8307 243.419 30.6748 244.999 30.6748C246.58 30.6748 248.125 30.8307 249.622 31.1281L249.232 33.0897C247.863 32.8177 246.448 32.6749 244.999 32.6749ZM263.028 42.3273C261.443 39.9619 259.407 37.9237 257.043 36.3379L258.158 34.6771C260.738 36.4081 262.96 38.6325 264.689 41.2144L263.028 42.3273ZM232.955 36.3379C230.592 37.9237 228.555 39.9619 226.971 42.3273L225.309 41.2144C227.039 38.6325 229.261 36.4081 231.841 34.6771L232.955 36.3379ZM192.905 49.2401C192.741 50.9291 192.656 52.6418 192.656 54.3742L192.656 58.2853L190.656 58.2853L190.656 54.3742C190.656 52.5769 190.744 50.7994 190.915 49.046L192.905 49.2401ZM297.342 54.3742C297.342 52.6418 297.258 50.9291 297.093 49.2401L299.084 49.046C299.255 50.7994 299.342 52.5769 299.342 54.3742V58.2853H297.342V54.3742ZM223.727 50.1414C223.456 51.5102 223.313 52.9254 223.313 54.3742V58.2852H221.313V54.3742C221.313 52.7939 221.469 51.2483 221.766 49.7522L223.727 50.1414ZM266.685 54.3742C266.685 52.9254 266.543 51.5102 266.271 50.1414L268.233 49.7522C268.53 51.2483 268.685 52.7939 268.685 54.3742V58.2853H266.685V54.3742ZM223.313 66.1072V73.9292H221.313V66.1072H223.313ZM192.657 66.1073L192.657 73.9294L190.657 73.9295L190.657 66.1074L192.657 66.1073ZM266.685 73.9295V66.1074H268.685V73.9295H266.685ZM297.342 73.9295V66.1074H299.342V73.9295H297.342ZM221.313 86.6621L221.313 89.5731L223.313 89.5732L223.313 86.6621L227.985 86.6622L227.985 84.6622L223.313 84.6621V81.7511H221.313V84.6621L218.481 84.6622L218.481 86.6622L221.313 86.6621ZM192.657 86.6626L195.489 86.6625L195.489 84.6625L192.657 84.6626L192.657 81.7515L190.657 81.7516L190.657 84.6626L187.825 84.6625L187.825 86.6625L190.657 86.6626V89.5736H192.657V86.6626ZM266.685 84.6626V81.7515H268.685V84.6626H271.518V86.6626H268.685L268.685 89.5736L266.685 89.5735L266.685 86.6626L262.014 86.6625V84.6625L266.685 84.6626ZM297.342 84.6626V81.7515H299.342V84.6626L302.175 84.6625L302.175 86.6625L299.342 86.6626L299.342 89.5735L297.342 89.5736L297.342 86.6626H294.51V84.6626H297.342ZM160 84.6621L161 84.6621L164.832 84.6622L164.832 86.6622L162 86.6621V89.5732H160V85.6621V84.6621ZM330 84.6621V85.6621V89.5732H328V86.6621L325.168 86.6622L325.168 84.6622L329 84.6621L330 84.6621ZM172.496 84.6623L180.161 84.6624L180.161 86.6624L172.496 86.6623L172.496 84.6623ZM210.817 86.6623L203.153 86.6624L203.153 84.6624L210.817 84.6623L210.817 86.6623ZM250.671 86.6624L239.328 86.6623L239.328 84.6623L250.671 84.6624L250.671 86.6624ZM309.839 84.6624L317.503 84.6623L317.503 86.6623L309.839 86.6624V84.6624ZM286.846 86.6626H279.182V84.6626H286.846V86.6626ZM221.313 105.217L221.313 97.3952L223.313 97.3953L223.313 105.217L221.313 105.217ZM160 105.217V97.3952H162V105.217H160ZM330 97.3952V105.217H328V97.3952H330ZM268.685 97.3956L268.685 105.218L266.685 105.217L266.685 97.3955L268.685 97.3956ZM299.343 97.3955L299.343 105.217L297.343 105.218L297.343 97.3956L299.343 97.3955ZM190.657 105.217V97.3955H192.657V105.217H190.657ZM221.312 116.95L221.313 113.039L223.313 113.039L223.312 116.95C223.312 118.399 223.455 119.815 223.727 121.183L221.765 121.573C221.468 120.076 221.312 118.531 221.312 116.95ZM160 116.95V113.039H162V116.95C162 118.514 162.043 120.067 162.129 121.608L160.132 121.719C160.044 120.14 160 118.551 160 116.95ZM330 113.039V116.95C330 118.551 329.956 120.14 329.868 121.719L327.871 121.608C327.957 120.067 328 118.514 328 116.95V113.039H330ZM268.685 113.039L268.685 116.95C268.685 118.531 268.529 120.076 268.232 121.572L266.271 121.183C266.542 119.815 266.685 118.399 266.685 116.95L266.685 113.039L268.685 113.039ZM299.343 113.039L299.343 116.95C299.343 118.748 299.256 120.525 299.085 122.279L297.094 122.085C297.259 120.396 297.343 118.683 297.343 116.95L297.343 113.039L299.343 113.039ZM190.657 116.95V113.039H192.657V116.95C192.657 118.683 192.741 120.396 192.906 122.085L190.915 122.279C190.744 120.525 190.657 118.748 190.657 116.95ZM231.84 136.648C229.26 134.917 227.038 132.692 225.309 130.11L226.97 128.997C228.555 131.363 230.591 133.401 232.955 134.987L231.84 136.648ZM264.689 130.11C262.959 132.692 260.737 134.917 258.157 136.648L257.043 134.987C259.406 133.401 261.443 131.363 263.027 128.997L264.689 130.11ZM163.306 140.494C162.433 137.461 161.724 134.358 161.19 131.197L163.162 130.863C163.684 133.95 164.376 136.979 165.228 139.941L163.306 140.494ZM328.81 131.197C328.276 134.358 327.567 137.461 326.694 140.494L324.772 139.941C325.624 136.979 326.316 133.95 326.838 130.863L328.81 131.197ZM197.071 142.575C195.403 139.462 194.03 136.169 192.987 132.732L194.901 132.152C195.905 135.461 197.228 138.633 198.834 141.63L197.071 142.575ZM297.013 132.732C295.97 136.169 294.597 139.462 292.929 142.575L291.166 141.63C292.772 138.633 294.095 135.461 295.099 132.152L297.013 132.732ZM244.999 140.65C243.418 140.65 241.872 140.494 240.376 140.197L240.766 138.235C242.135 138.507 243.55 138.65 244.999 138.65C246.447 138.65 247.862 138.507 249.231 138.235L249.621 140.197C248.125 140.494 246.579 140.65 244.999 140.65ZM170.6 158.079C169.065 155.308 167.68 152.442 166.456 149.492L168.304 148.726C169.498 151.606 170.85 154.404 172.349 157.11L170.6 158.079ZM323.544 149.492C322.32 152.442 320.935 155.308 319.4 158.079L317.651 157.11C319.15 154.404 320.502 151.606 321.696 148.726L323.544 149.492ZM287.003 151.43C284.744 154.18 282.22 156.706 279.472 158.967L278.201 157.422C280.849 155.244 283.281 152.811 285.457 150.16L287.003 151.43ZM210.528 158.967C207.78 156.706 205.256 154.18 202.997 151.43L204.543 150.16C206.719 152.811 209.151 155.244 211.799 157.422L210.528 158.967ZM270.622 164.901C267.51 166.571 264.218 167.946 260.781 168.99L260.2 167.077C263.509 166.072 266.679 164.747 269.676 163.138L270.622 164.901ZM229.219 168.99C225.782 167.946 222.49 166.571 219.378 164.901L220.324 163.138C223.321 164.747 226.492 166.072 229.8 167.077L229.219 168.99ZM181.626 173.6C179.51 171.231 177.524 168.744 175.679 166.148L177.31 164.99C179.111 167.525 181.05 169.954 183.117 172.267L181.626 173.6ZM314.321 166.148C312.476 168.744 310.49 171.231 308.374 173.6L306.883 172.267C308.95 169.954 310.889 167.525 312.69 164.99L314.321 166.148ZM245 171.325C243.203 171.325 241.425 171.237 239.672 171.066L239.866 169.075C241.555 169.24 243.268 169.325 245 169.325C246.732 169.325 248.445 169.24 250.134 169.075L250.328 171.066C248.575 171.237 246.797 171.325 245 171.325ZM195.811 186.297C193.217 184.451 190.731 182.463 188.365 180.344L189.699 178.854C192.01 180.923 194.438 182.865 196.971 184.668L195.811 186.297ZM301.635 180.344C299.269 182.463 296.783 184.451 294.189 186.297L293.029 184.668C295.562 182.865 297.99 180.923 300.301 178.854L301.635 180.344ZM212.461 195.533C209.512 194.307 206.647 192.92 203.876 191.383L204.846 189.634C207.552 191.135 210.349 192.489 213.228 193.686L212.461 195.533ZM286.124 191.383C283.353 192.92 280.488 194.307 277.539 195.533L276.772 193.686C279.651 192.489 282.448 191.135 285.154 189.634L286.124 191.383ZM230.754 200.807C227.592 200.272 224.49 199.562 221.457 198.688L222.011 196.766C224.972 197.62 228.001 198.313 231.087 198.835L230.754 200.807ZM268.543 198.688C265.51 199.562 262.407 200.272 259.246 200.807L258.913 198.835C261.999 198.313 265.028 197.62 267.989 196.766L268.543 198.688ZM245 202C243.4 202 241.81 201.955 240.231 201.868L240.342 199.871C241.884 199.956 243.437 200 245 200C246.563 200 248.116 199.956 249.658 199.871L249.769 201.868C248.19 201.955 246.6 202 245 202ZM84.5287 4H85.0611H89.5699V6H85.5936L83.2639 9.46295L81.6045 8.34657L84.2314 4.44181L84.5287 4ZM98.5873 4H107.605V6H98.5873V4ZM116.622 4H121.131H122.131V5V10.1937H120.131V6H116.622V4ZM71.0969 23.9656L76.3507 16.1561L78.0101 17.2725L72.7563 25.082L71.0969 23.9656ZM122.131 20.581V30.9683H120.131V20.581H122.131ZM60.5892 39.5847L65.843 31.7752L67.5025 32.8915L62.2487 40.701L60.5892 39.5847ZM122.131 41.3556V51.7429H120.131V41.3556H122.131ZM50.0816 55.2037L55.3354 47.3942L56.9948 48.5106L51.741 56.3201L50.0816 55.2037ZM87.5895 52.3618V55.5905V60.219H85.5895V58.8191L84.2431 60.7843L82.5932 59.6538L85.7646 55.0252L87.5895 52.3618ZM122.131 62.1302V72.5175H120.131V62.1302H122.131ZM39.5739 70.8228L44.8278 63.0132L46.4872 64.1296L41.2334 71.9391L39.5739 70.8228ZM77.9003 70.0414L71.5575 79.2986L69.9076 78.1681L76.2504 68.911L77.9003 70.0414ZM85.5895 78.7333V69.4762H87.5895V78.7333H85.5895ZM29.0663 86.4418L34.3201 78.6323L35.9796 79.7487L30.7257 87.5582L29.0663 86.4418ZM122.131 82.9048V93.2921H120.131V82.9048H122.131ZM65.2147 88.5557L58.8719 97.8129L57.222 96.6824L63.5648 87.4252L65.2147 88.5557ZM85.5895 97.2476V87.9905H87.5895V97.2476H85.5895ZM18.5587 102.061L23.8125 94.2513L25.4719 95.3677L20.2181 103.177L18.5587 102.061ZM122.131 103.679V114.067H120.131V103.679H122.131ZM52.5291 107.07L46.1863 116.327L44.5364 115.197L50.8792 105.94L52.5291 107.07ZM85.5895 115.762V106.505H87.5895V115.762H85.5895ZM8.05102 117.68L13.3048 109.87L14.9643 110.987L9.71045 118.796L8.05102 117.68ZM37.7446 128.648L39.8435 125.584L38.1936 124.454L35.0222 129.082L33.9498 130.648H35.8472H40.0757V128.648H37.7446ZM122.131 128.648V124.454H120.131V129.648V130.648H121.131H126.098V128.648H122.131ZM85.5895 128.648V125.019H87.5895V129.648V130.648H86.5895H82.361V128.648H85.5895ZM0.170285 129.394L2.79721 125.489L4.45664 126.606L2 130.257V133.724H0V129.952V129.647L0.170285 129.394ZM48.5328 128.648H56.9898V130.648H48.5328V128.648ZM65.4469 128.648H73.9039V130.648H65.4469V128.648ZM136.033 128.648H141H142V129.648V133.457H140V130.648H136.033V128.648ZM142 141.076V148.695H140V141.076H142ZM0 148.81V141.267H2V148.81H0ZM142 156.314V160.124V161.124H141H136.033V159.124H140V156.314H142ZM0 160.124V156.352H2V159.124H6.34935V161.124H1H0V160.124ZM27.7467 161.124H17.048V159.124H27.7467V161.124ZM49.1441 161.124H38.4454V159.124H49.1441V161.124ZM70.5415 161.124H59.8428V159.124H70.5415V161.124ZM85.5895 161.124H81.2402V159.124H86.5895H87.5895V160.124V164.733H85.5895V161.124ZM120.131 159.124H121.131H126.098V161.124H122.131V164.733H120.131V160.124V159.124ZM85.5895 183.171V173.952H87.5895V183.171H85.5895ZM122.131 173.952V183.171H120.131V173.952H122.131ZM85.5895 197V192.39H87.5895V196H90.9072V198H86.5895H85.5895V197ZM122.131 192.39V197V198H121.131H116.813V196H120.131V192.39H122.131ZM108.178 198H99.5426V196H108.178V198ZM433.061 4H432.529L432.231 4.44181L429.605 8.34657L431.264 9.46295L433.594 6H437.57V4H433.061ZM455.605 4H446.587V6H455.605V4ZM469.131 4H464.622V6H468.131V10.1937H470.131V5V4H469.131ZM424.351 16.1561L419.097 23.9656L420.756 25.082L426.01 17.2725L424.351 16.1561ZM470.131 30.9683V20.581H468.131V30.9683H470.131ZM413.843 31.7752L408.589 39.5847L410.249 40.701L415.502 32.8915L413.843 31.7752ZM470.131 51.7429V41.3556H468.131V51.7429H470.131ZM403.335 47.3942L398.082 55.2037L399.741 56.3201L404.995 48.5106L403.335 47.3942ZM435.59 55.5905V52.3618L433.765 55.0252L430.593 59.6538L432.243 60.7843L433.59 58.8191V60.219H435.59V55.5905ZM470.131 72.5175V62.1302H468.131V72.5175H470.131ZM392.828 63.0132L387.574 70.8228L389.233 71.9391L394.487 64.1296L392.828 63.0132ZM419.557 79.2986L425.9 70.0414L424.25 68.911L417.908 78.1681L419.557 79.2986ZM433.59 69.4762V78.7333H435.59V69.4762H433.59ZM382.32 78.6323L377.066 86.4418L378.726 87.5582L383.98 79.7487L382.32 78.6323ZM470.131 93.2921V82.9048H468.131V93.2921H470.131ZM406.872 97.8129L413.215 88.5557L411.565 87.4252L405.222 96.6824L406.872 97.8129ZM433.59 87.9905V97.2476H435.59V87.9905H433.59ZM371.812 94.2513L366.559 102.061L368.218 103.177L373.472 95.3677L371.812 94.2513ZM470.131 114.067V103.679H468.131V114.067H470.131ZM394.186 116.327L400.529 107.07L398.879 105.94L392.536 115.197L394.186 116.327ZM433.59 106.505V115.762H435.59V106.505H433.59ZM361.305 109.87L356.051 117.68L357.71 118.796L362.964 110.987L361.305 109.87ZM387.844 125.584L385.745 128.648H388.076V130.648H383.847H381.95L383.022 129.082L386.194 124.454L387.844 125.584ZM470.131 124.454V128.648H474.098V130.648H469.131H468.131V129.648V124.454H470.131ZM433.59 125.019V128.648H430.361V130.648H434.59H435.59V129.648V125.019H433.59ZM350.797 125.489L348.17 129.394L348 129.647V129.952V133.724H350V130.257L352.457 126.606L350.797 125.489ZM404.99 128.648H396.533V130.648H404.99V128.648ZM421.904 128.648H413.447V130.648H421.904V128.648ZM489 128.648H484.033V130.648H488V133.457H490V129.648V128.648H489ZM490 148.695V141.076H488V148.695H490ZM348 141.267V148.81H350V141.267H348ZM490 160.124V156.314H488V159.124H484.033V161.124H489H490V160.124ZM348 156.352V160.124V161.124H349H354.349V159.124H350V156.352H348ZM365.048 161.124H375.747V159.124H365.048V161.124ZM386.445 161.124H397.144V159.124H386.445V161.124ZM407.843 161.124H418.542V159.124H407.843V161.124ZM429.24 161.124H433.59V164.733H435.59V160.124V159.124H434.59H429.24V161.124ZM469.131 159.124H468.131V160.124V164.733H470.131V161.124H474.098V159.124H469.131ZM433.59 173.952V183.171H435.59V173.952H433.59ZM470.131 183.171V173.952H468.131V183.171H470.131ZM433.59 192.39V197V198H434.59H438.907V196H435.59V192.39H433.59ZM470.131 197V192.39H468.131V196H464.813V198H469.131H470.131V197ZM447.543 198H456.178V196H447.543V198Z" fill="#E1DEDA"/>
</svg>
