<svg width="490" height="202" fill="none" xmlns="http://www.w3.org/2000/svg"><path fill-rule="evenodd" clip-rule="evenodd" d="M244.999 2c-1.732 0-3.445.084-5.134.25l-.194-1.991a54.794 54.794 0 0110.657 0l-.195 1.99A52.796 52.796 0 00244.999 2zm24.676 6.186a51.994 51.994 0 00-9.476-3.938l.582-1.914a53.986 53.986 0 019.84 4.09l-.946 1.762zm-39.876-3.938a52.023 52.023 0 00-9.476 3.938l-.946-1.762a54.026 54.026 0 019.841-4.09l.581 1.914zm-18.001 9.654a52.819 52.819 0 00-7.256 7.262l-1.545-1.269a54.804 54.804 0 017.53-7.537l1.271 1.544zm73.658 7.262a52.756 52.756 0 00-7.255-7.262l1.27-1.544a54.755 54.755 0 017.531 7.537l-1.546 1.27zm-86.623 8.53a52.098 52.098 0 00-3.933 9.479l-1.913-.58a54.08 54.08 0 014.083-9.843l1.763.944zm96.265 9.479a52.097 52.097 0 00-3.932-9.479l1.762-.944a54.012 54.012 0 014.084 9.843l-1.914.58zm-50.099-6.498c-1.448 0-2.864.143-4.232.415l-.39-1.962a23.69 23.69 0 014.622-.453c1.581 0 3.126.156 4.623.453l-.39 1.962a21.702 21.702 0 00-4.233-.415zm18.029 9.652a21.89 21.89 0 00-5.985-5.99l1.115-1.66a23.878 23.878 0 016.531 6.537l-1.661 1.113zm-30.073-5.99a21.887 21.887 0 00-5.984 5.99l-1.662-1.113a23.895 23.895 0 016.532-6.537l1.114 1.66zm-40.05 12.903a53.113 53.113 0 00-.249 5.134v3.911h-2v-3.91c0-1.798.088-3.576.259-5.329l1.99.194zm104.437 5.134a52.8 52.8 0 00-.249-5.134l1.991-.194c.171 1.753.258 3.53.258 5.328v3.911h-2v-3.91zm-73.615-4.233a21.777 21.777 0 00-.414 4.233v3.911h-2v-3.91c0-1.581.156-3.127.453-4.623l1.961.39zm42.958 4.233a21.7 21.7 0 00-.414-4.233l1.962-.389a23.72 23.72 0 01.452 4.622v3.911h-2v-3.91zm-43.372 11.733v7.822h-2v-7.822h2zm-30.656 0v7.822h-2v-7.822h2zm74.028 7.823v-7.823h2v7.823h-2zm30.657 0v-7.823h2v7.823h-2zm-76.029 12.732v2.911h2v-2.91h4.672v-2h-4.672V81.75h-2v2.911h-2.832v2h2.832zm-28.656 0h2.832v-2h-2.832v-2.91h-2v2.91h-2.832v2h2.832v2.912h2v-2.911zm74.028-2v-2.91h2v2.91h2.833v2h-2.833v2.912h-2v-2.911h-4.671v-2h4.671zm30.657 0v-2.91h2v2.91h2.833v2h-2.833v2.911h-2v-2.91h-2.832v-2h2.832zm-137.342 0h4.832v2H162v2.911h-2v-4.91zm170 0v4.911h-2v-2.91h-2.832v-2H330zm-157.504 0h7.665v2h-7.665v-2zm38.321 2h-7.664v-2h7.664v2zm39.854 0h-11.343v-2h11.343v2zm59.168-2h7.664v2h-7.664v-2zm-22.993 2h-7.664v-2h7.664v2zm-65.533 18.555v-7.822h2v7.822h-2zm-61.313 0v-7.822h2v7.822h-2zm170-7.822v7.822h-2v-7.822h2zm-61.315 0v7.823l-2-.001v-7.822h2zm30.658 0v7.822l-2 .001v-7.822h2zm-108.686 7.822v-7.822h2v7.822h-2zm30.655 11.733l.001-3.911h2l-.001 3.911c0 1.449.143 2.865.415 4.233l-1.962.39a23.732 23.732 0 01-.453-4.623zm-61.312 0v-3.911h2v3.911c0 1.564.043 3.117.129 4.658l-1.997.111a85.671 85.671 0 01-.132-4.769zm170-3.911v3.911c0 1.601-.044 3.19-.132 4.769l-1.997-.111a83.59 83.59 0 00.129-4.658v-3.911h2zm-61.315 0v3.911c0 1.581-.156 3.126-.453 4.622l-1.961-.389c.271-1.368.414-2.784.414-4.233v-3.911h2zm30.658 0v3.911a54.9 54.9 0 01-.258 5.329l-1.991-.194c.165-1.689.249-3.402.249-5.135v-3.911h2zm-108.686 3.911v-3.911h2v3.911c0 1.733.084 3.446.249 5.135l-1.991.194a54.9 54.9 0 01-.258-5.329zm41.183 19.698a23.879 23.879 0 01-6.531-6.538l1.661-1.113a21.887 21.887 0 005.985 5.99l-1.115 1.661zm32.849-6.538a23.896 23.896 0 01-6.532 6.538l-1.114-1.661a21.884 21.884 0 005.984-5.99l1.662 1.113zm-101.383 10.384a84.489 84.489 0 01-2.116-9.297l1.972-.334a82.73 82.73 0 002.066 9.078l-1.922.553zm165.504-9.297a84.489 84.489 0 01-2.116 9.297l-1.922-.553a82.73 82.73 0 002.066-9.078l1.972.334zm-131.739 11.378a54.097 54.097 0 01-4.084-9.843l1.914-.58a52.08 52.08 0 003.933 9.478l-1.763.945zm99.942-9.843a54.097 54.097 0 01-4.084 9.843l-1.763-.945a52.08 52.08 0 003.933-9.478l1.914.58zm-52.014 7.918c-1.581 0-3.127-.156-4.623-.453l.39-1.962c1.369.272 2.784.415 4.233.415a21.7 21.7 0 004.232-.415l.39 1.962a23.722 23.722 0 01-4.622.453zM170.6 158.079a84.739 84.739 0 01-4.144-8.587l1.848-.766a82.52 82.52 0 004.045 8.384l-1.749.969zm152.944-8.587a84.739 84.739 0 01-4.144 8.587l-1.749-.969a82.52 82.52 0 004.045-8.384l1.848.766zm-36.541 1.938a54.848 54.848 0 01-7.531 7.537l-1.271-1.545a52.696 52.696 0 007.256-7.262l1.546 1.27zm-76.475 7.537a54.848 54.848 0 01-7.531-7.537l1.546-1.27a52.696 52.696 0 007.256 7.262l-1.271 1.545zm60.094 5.934a53.995 53.995 0 01-9.841 4.089l-.581-1.913a51.94 51.94 0 009.476-3.939l.946 1.763zm-41.403 4.089a53.995 53.995 0 01-9.841-4.089l.946-1.763a51.97 51.97 0 009.476 3.939l-.581 1.913zm-47.593 4.61a85.801 85.801 0 01-5.947-7.452l1.631-1.158a83.475 83.475 0 005.807 7.277l-1.491 1.333zm132.695-7.452a85.801 85.801 0 01-5.947 7.452l-1.491-1.333a83.475 83.475 0 005.807-7.277l1.631 1.158zM245 171.325c-1.797 0-3.575-.088-5.328-.259l.194-1.991a52.798 52.798 0 0010.268 0l.194 1.991a54.878 54.878 0 01-5.328.259zm-49.189 14.972a85.256 85.256 0 01-7.446-5.953l1.334-1.49a83.482 83.482 0 007.272 5.814l-1.16 1.629zm105.824-5.953a85.256 85.256 0 01-7.446 5.953l-1.16-1.629a83.482 83.482 0 007.272-5.814l1.334 1.49zm-89.174 15.189a84.852 84.852 0 01-8.585-4.15l.97-1.749a82.853 82.853 0 008.382 4.052l-.767 1.847zm73.663-4.15a84.852 84.852 0 01-8.585 4.15l-.767-1.847a82.853 82.853 0 008.382-4.052l.97 1.749zm-55.37 9.424a84.445 84.445 0 01-9.297-2.119l.554-1.922a82.246 82.246 0 009.076 2.069l-.333 1.972zm37.789-2.119a84.497 84.497 0 01-9.297 2.119l-.333-1.972a82.246 82.246 0 009.076-2.069l.554 1.922zM245 202c-1.6 0-3.19-.045-4.769-.132l.111-1.997a84.62 84.62 0 009.316 0l.111 1.997A86.676 86.676 0 01245 202zM84.529 4h5.041v2h-3.976l-2.33 3.463-1.66-1.116 2.627-3.905L84.53 4zm14.058 0h9.018v2h-9.018V4zm18.035 0h5.509v6.194h-2V6h-3.509V4zM71.097 23.966l5.254-7.81 1.66 1.117-5.255 7.809-1.66-1.116zm51.034-3.385v10.387h-2V20.581h2zM60.589 39.585l5.254-7.81 1.66 1.117-5.254 7.809-1.66-1.116zm61.542 1.77v10.388h-2V41.356h2zm-72.05 13.849l5.254-7.81 1.66 1.117-5.254 7.81-1.66-1.117zm37.508-2.842v7.857h-2v-1.4l-1.346 1.965-1.65-1.13 3.172-4.629 1.825-2.663zm34.542 9.768v10.387h-2V62.13h2zm-82.557 8.693l5.254-7.81 1.66 1.117-5.255 7.81-1.66-1.117zM77.9 70.04l-6.343 9.26-1.65-1.13 6.343-9.258 1.65 1.13zm7.69 8.692v-9.257h2v9.257h-2zm-56.524 7.709l5.254-7.81 1.66 1.117-5.254 7.81-1.66-1.117zm93.065-3.537v10.387h-2V82.905h2zm-56.916 5.65l-6.343 9.258-1.65-1.13 6.343-9.258 1.65 1.13zm20.374 8.693V87.99h2v9.258h-2zm-67.03 4.813l5.253-7.81 1.66 1.117-5.254 7.809-1.66-1.116zm103.572 1.618v10.388h-2v-10.388h2zm-69.602 3.391l-6.343 9.257-1.65-1.13 6.343-9.257 1.65 1.13zm33.06 8.692v-9.257h2v9.257h-2zM8.052 117.68l5.254-7.81 1.66 1.117-5.255 7.809-1.659-1.116zm29.694 10.968l2.099-3.064-1.65-1.13-3.172 4.628-1.072 1.566h6.126v-2h-2.331zm84.386 0v-4.194h-2v6.194h5.967v-2h-3.967zm-36.541 0v-3.629h2v5.629H82.36v-2h3.228zm-85.42.746l2.627-3.905 1.66 1.117L2 130.257v3.467H0v-4.077l.17-.253zm48.363-.746h8.457v2h-8.457v-2zm16.914 0h8.457v2h-8.457v-2zm70.586 0H142v4.809h-2v-2.809h-3.967v-2zM142 141.076v7.619h-2v-7.619h2zM0 148.81v-7.543h2v7.543H0zm142 7.504v4.81h-5.967v-2H140v-2.81h2zm-142 3.81v-3.772h2v2.772h4.35v2H0v-1zm27.747 1H17.048v-2h10.699v2zm21.397 0H38.445v-2h10.7v2zm21.398 0h-10.7v-2h10.7v2zm15.047 0H81.24v-2h6.35v5.609h-2v-3.609zm34.542-2h5.967v2h-3.967v3.609h-2v-5.609zM85.59 183.171v-9.219h2v9.219h-2zm36.541-9.219v9.219h-2v-9.219h2zM85.59 197v-4.61h2V196h3.317v2H85.59v-1zm36.541-4.61V198h-5.318v-2h3.318v-3.61h2zM108.178 198h-8.635v-2h8.635v2zM433.061 4h-.532l-.298.442-2.626 3.905 1.659 1.116L433.594 6h3.976V4h-4.509zm22.544 0h-9.018v2h9.018V4zm13.526 0h-4.509v2h3.509v4.194h2V4h-1zm-44.78 12.156l-5.254 7.81 1.659 1.116 5.254-7.81-1.659-1.116zm45.78 14.812V20.581h-2v10.387h2zm-56.288.807l-5.254 7.81 1.66 1.116 5.253-7.81-1.659-1.116zm56.288 19.968V41.356h-2v10.387h2zm-66.796-4.349l-5.253 7.81 1.659 1.116 5.254-7.81-1.66-1.116zm32.255 8.197v-3.23l-1.825 2.664-3.172 4.629 1.65 1.13 1.347-1.965v1.4h2V55.59zm34.541 16.926V62.13h-2v10.387h2zm-77.303-9.504l-5.254 7.81 1.659 1.116 5.254-7.81-1.659-1.116zM419.557 79.3l6.343-9.258-1.65-1.13-6.342 9.257 1.649 1.13zm14.033-9.823v9.257h2v-9.257h-2zm-51.27 9.156l-5.254 7.81 1.66 1.116 5.254-7.81-1.66-1.116zm87.811 14.66V82.905h-2v10.387h2zm-63.259 4.52l6.343-9.256-1.65-1.13-6.343 9.256 1.65 1.13zm26.718-9.822v9.258h2V87.99h-2zm-61.778 6.261l-5.253 7.81 1.659 1.116 5.254-7.81-1.66-1.116zm98.319 19.816V103.68h-2v10.388h2zm-75.945 2.26l6.343-9.257-1.65-1.13-6.343 9.257 1.65 1.13zm39.404-9.822v9.257h2v-9.257h-2zm-72.285 3.365l-5.254 7.81 1.659 1.116 5.254-7.809-1.659-1.117zm26.539 15.714l-2.099 3.064h2.331v2h-6.126l1.072-1.566 3.172-4.628 1.65 1.13zm82.287-1.13v4.194h3.967v2h-5.967v-6.194h2zm-36.541.565v3.629h-3.229v2h5.229v-5.629h-2zm-82.793.47l-2.627 3.905-.17.253v4.077h2v-3.467l2.457-3.651-1.66-1.117zm54.193 3.159h-8.457v2h8.457v-2zm16.914 0h-8.457v2h8.457v-2zm67.096 0h-4.967v2H488v2.809h2v-4.809h-1zm1 20.047v-7.619h-2v7.619h2zm-142-7.428v7.543h2v-7.543h-2zm142 18.857v-3.81h-2v2.81h-3.967v2H490v-1zm-142-3.772v4.772h6.349v-2H350v-2.772h-2zm17.048 4.772h10.699v-2h-10.699v2zm21.397 0h10.699v-2h-10.699v2zm21.398 0h10.699v-2h-10.699v2zm21.397 0h4.35v3.609h2v-5.609h-6.35v2zm39.891-2h-1v5.609h2v-3.609h3.967v-2h-4.967zm-35.541 14.828v9.219h2v-9.219h-2zm36.541 9.219v-9.219h-2v9.219h2zm-36.541 9.219V198h5.317v-2h-3.317v-3.61h-2zm36.541 4.61v-4.61h-2V196h-3.318v2h5.318v-1zm-22.588 1h8.635v-2h-8.635v2z" fill="#E1DEDA"/></svg>