<svg width="22" height="22" viewBox="0 0 22 22" fill="none" xmlns="http://www.w3.org/2000/svg">
<path d="M19.0339 0H2.96607C1.32498 0 0 1.32538 0 2.96697V19.0398C0 20.6746 1.32498 22 2.96607 22H10.889L10.9025 14.1352H8.85784C8.59554 14.1352 8.38031 13.9199 8.37359 13.6575L8.36686 11.1211C8.36686 10.852 8.58209 10.6367 8.85112 10.6367H10.889V8.18777C10.889 5.34862 12.6243 3.80122 15.1599 3.80122H17.2382C17.5072 3.80122 17.7224 4.01651 17.7224 4.28563V6.42508C17.7224 6.69419 17.5072 6.90948 17.2382 6.90948H15.9603C14.5815 6.90948 14.3124 7.56208 14.3124 8.52416V10.6434H17.339C17.6282 10.6434 17.8502 10.8924 17.8166 11.1817L17.5139 13.718C17.487 13.9602 17.2785 14.1419 17.0364 14.1419H14.3192V22H19.0339C20.6683 22 22 20.6746 22 19.033V2.96697C21.9933 1.32538 20.6683 0 19.0339 0Z" fill="#D4D3D1"/>
</svg>
