<svg width="86" height="99" viewBox="0 0 86 99" fill="none" xmlns="http://www.w3.org/2000/svg">
<path fill-rule="evenodd" clip-rule="evenodd" d="M31.208 41.908H54.2992V57.3957C54.2992 63.5908 49.1193 68.6318 42.7536 68.6318C36.3879 68.6318 31.208 63.5908 31.208 57.3957V41.908Z" fill="#FF7D4E"/>
<path fill-rule="evenodd" clip-rule="evenodd" d="M69.8977 41.908V57.3957C69.8977 71.9723 57.728 83.8159 42.75 83.8159C27.7719 83.8159 15.6022 71.9723 15.6022 57.3957V41.908H0V57.3957C0 80.3539 19.1595 98.9999 42.75 98.9999C66.3404 98.9999 85.4999 80.3539 85.4999 57.3957V41.908H69.8977Z" fill="#725CF0"/>
<path fill-rule="evenodd" clip-rule="evenodd" d="M42.7503 0C27.7722 0 15.6025 11.8435 15.6025 26.4202V41.9079H31.2047V26.4202C31.2047 20.2251 36.3846 15.184 42.7503 15.184C49.116 15.184 54.2959 20.2251 54.2959 26.4202V41.9079H69.8981V26.4202C69.8981 11.8435 57.7284 0 42.7503 0Z" fill="#FDC672"/>
</svg>
