<svg width="86" height="98" viewBox="0 0 86 98" fill="none" xmlns="http://www.w3.org/2000/svg">
<path d="M51.6005 22.9048H45.8672V28.631H51.6005V22.9048Z" fill="#FFBE5A"/>
<path d="M71.6665 0H14.3334C9.59383 0 5.7334 3.85563 5.7334 8.58928V31.494C5.7334 36.2277 9.59383 40.0833 14.3334 40.0833H34.4V54.017L55.3266 40.0833H71.6665C76.406 40.0833 80.2665 36.2277 80.2665 31.494V8.58928C80.2665 3.85563 76.406 0 71.6665 0ZM74.5332 31.494C74.5332 33.0783 73.2527 34.3571 71.6665 34.3571H53.6066L40.1333 43.3282V34.3571H14.3334C12.7472 34.3571 11.4667 33.0783 11.4667 31.494V8.58928C11.4667 7.00504 12.7472 5.72619 14.3334 5.72619H71.6665C73.2527 5.72619 74.5332 7.00504 74.5332 8.58928V31.494Z" fill="#FFBE5A"/>
<path d="M40.1335 22.9048H17.2002V28.631H40.1335V22.9048Z" fill="#FFBE5A"/>
<path d="M17.2 45.8096C10.8743 45.8096 5.7334 50.9441 5.7334 57.2619C5.7334 63.5798 10.8743 68.7143 17.2 68.7143C23.5258 68.7143 28.6667 63.5798 28.6667 57.2619C28.6667 50.9441 23.5258 45.8096 17.2 45.8096ZM17.2 62.9881C14.0467 62.9881 11.4667 60.4113 11.4667 57.2619C11.4667 54.1125 14.0467 51.5358 17.2 51.5358C20.3533 51.5358 22.9333 54.1125 22.9333 57.2619C22.9333 60.4113 20.3533 62.9881 17.2 62.9881Z" fill="#FF7D4E"/>
<path d="M20.0666 68.7144H17.1999H14.3333C6.42131 68.7144 0 75.1277 0 83.0298V97.727H34.3999V83.0298C34.3999 75.1277 27.9786 68.7144 20.0666 68.7144ZM28.6666 92.0009H5.73331V83.0298C5.73331 78.2962 9.59375 74.4405 14.3333 74.4405H20.0666C24.8061 74.4405 28.6666 78.2962 28.6666 83.0298V92.0009Z" fill="#FF7D4E"/>
<path d="M68.7996 45.8096C62.4739 45.8096 57.333 50.9441 57.333 57.2619C57.333 63.5798 62.4739 68.7143 68.7996 68.7143C75.1254 68.7143 80.2663 63.5798 80.2663 57.2619C80.2663 50.9441 75.1254 45.8096 68.7996 45.8096ZM68.7996 62.9881C65.6463 62.9881 63.0663 60.4113 63.0663 57.2619C63.0663 54.1125 65.6463 51.5358 68.7996 51.5358C71.953 51.5358 74.5329 54.1125 74.5329 57.2619C74.5329 60.4113 71.953 62.9881 68.7996 62.9881Z" fill="#FF7D4E"/>
<path d="M71.6672 68.7144H68.8005H65.9339C58.0219 68.7144 51.6006 75.1277 51.6006 83.0298V97.727H86.0005V83.0298C86.0005 75.1277 79.5792 68.7144 71.6672 68.7144ZM80.2672 92.0009H57.3339V83.0298C57.3339 78.2962 61.1943 74.4405 65.9339 74.4405H71.6672C76.4067 74.4405 80.2672 78.2962 80.2672 83.0298V92.0009Z" fill="#FF7D4E"/>
<path d="M68.8 11.4524H17.2002V17.1786H68.8V11.4524Z" fill="#FFBE5A"/>
</svg>
