<svg width="85" height="107" viewBox="0 0 85 107" fill="none" xmlns="http://www.w3.org/2000/svg">
<path d="M80.6703 86.5189V24.6604H55.5487V13.2525C55.5487 5.95459 49.6141 0 42.2962 0C34.9783 0 29.0437 5.93455 29.0437 13.2525V24.6604H3.92214V86.5389L0.433594 106.909H84.1588L80.6703 86.5189ZM35.0585 13.2525C35.0585 9.2627 38.3064 6.01474 42.2962 6.01474C46.286 6.01474 49.5339 9.2627 49.5339 13.2525V24.6604H35.0785L35.0585 13.2525ZM7.57109 100.894L9.93689 87.0401V30.6752H74.6756V87.0401L77.0213 100.894H7.57109Z" fill="#FF7D4E"/>
<path d="M51.0571 49.2963C49.9544 45.507 46.4458 42.7202 42.2956 42.7202C38.1454 42.7202 34.6368 45.507 33.5341 49.2963C30.3664 50.8 27.6597 53.1057 25.6348 56.0128C23.2489 59.4212 22.0059 63.431 22.0059 67.6213C22.0059 78.8087 31.1082 87.931 42.3156 87.931C53.5231 87.931 62.6054 78.8087 62.6054 67.6012C62.6054 63.431 61.3423 59.4212 58.9765 55.9928C56.9315 53.1057 54.2248 50.8 51.0571 49.2963ZM39.188 51.8426C39.188 50.1183 40.5914 48.735 42.2956 48.735C43.9998 48.735 45.4032 50.1384 45.4032 51.8426V55.8725H42.2956C40.5714 55.8725 39.188 54.469 39.188 52.7648V51.8426ZM42.2956 81.8962C34.4163 81.8962 28.0006 75.4805 28.0006 67.6012C28.0006 63.03 30.226 58.7595 33.8148 56.113C35.1581 59.4813 38.4462 61.8671 42.2956 61.8671H51.418V56.6143C54.6058 59.2808 56.5906 63.3107 56.5906 67.6012C56.5906 75.4805 50.1749 81.8962 42.2956 81.8962Z" fill="#FF7D4E"/>
<path d="M42.2962 69.867C41.2938 69.867 40.4718 69.0449 40.4718 68.0425H34.457C34.457 72.3731 37.9857 75.8817 42.2962 75.8817C46.6068 75.8817 50.1355 72.353 50.1355 68.0425H44.1207C44.1207 69.0449 43.2987 69.867 42.2962 69.867Z" fill="#FF7D4E"/>
</svg>
