<svg width="88" height="97" viewBox="0 0 88 97" fill="none" xmlns="http://www.w3.org/2000/svg">
<path d="M67.193 73.4154C65.9657 73.4154 64.7384 73.516 63.5312 73.7373C59.0849 69.4921 53.3308 66.8364 47.2547 66.1724V63.7581L56.9925 57.9637C60.3926 59.694 63.994 60.6195 67.4746 60.6195C70.8748 60.6195 74.0335 59.7745 76.8703 58.0845C83.0872 54.4026 86.588 47.1597 86.2459 38.7498L86.1856 37.1201L84.7772 36.2751C80.9143 33.9614 76.7295 32.7341 72.7057 32.7341C69.3055 32.7341 66.1468 33.5791 63.3099 35.2692C57.5558 38.6894 54.1355 45.1477 53.9343 52.773L47.295 56.7163V42.9749C55.2823 38.0657 59.9902 30.4606 59.9902 22.3123C59.9902 13.6409 54.6586 5.57305 45.7257 0.744415L44.2368 0L42.8083 0.784653C33.8754 5.61329 28.5236 13.6811 28.5236 22.3526C28.5236 30.5009 33.2316 38.106 41.2189 43.0151V56.7365L34.5796 52.7931C34.3784 45.1679 30.9581 38.7096 25.204 35.2893C22.3872 33.6194 19.2285 32.7542 15.8082 32.7542C11.7844 32.7542 7.59956 33.9815 3.73665 36.2952L2.32829 37.1403L2.26794 38.7699C1.92591 47.1798 5.42667 54.4227 11.6435 58.1046C14.4602 59.7745 17.619 60.6396 21.0393 60.6396C24.5199 60.6396 28.1011 59.7342 31.5214 57.9839L41.2592 63.7782V66.1925C35.1831 66.8565 29.429 69.5122 24.9826 73.7574C23.7755 73.5361 22.5482 73.4355 21.3209 73.4355C9.95352 73.4154 0.71875 82.6501 0.71875 93.9773V96.9952H87.7549V93.9773C87.7549 82.6501 78.5403 73.4154 67.193 73.4154ZM66.3681 40.4801C68.2392 39.3735 70.3718 38.8102 72.6654 38.8102C75.12 38.8102 77.6952 39.454 80.19 40.6812C79.9888 46.1135 77.6349 50.6202 73.772 52.9138C71.9009 54.0204 69.7682 54.5837 67.4746 54.5837C66.187 54.5837 64.8792 54.4026 63.5715 54.0606L71.4784 49.3728L68.4001 44.182L60.4731 48.8899C61.3986 45.188 63.4508 42.2103 66.3681 40.4801ZM21.0191 54.5837C18.7054 54.5837 16.5929 54.0204 14.7218 52.9138C10.8388 50.6001 8.50492 46.1135 8.30373 40.6812C10.7985 39.454 13.3738 38.8102 15.8284 38.8102C18.1421 38.8102 20.2546 39.3735 22.1257 40.4801C25.043 42.2103 27.0952 45.2081 28.0207 48.8899L20.1339 44.2021L17.0154 49.3728L24.9223 54.0606C23.6145 54.4227 22.2867 54.5837 21.0191 54.5837ZM34.5594 22.3526C34.5594 16.3771 38.1407 10.7236 44.2368 6.92104C50.333 10.7236 53.9142 16.3771 53.9142 22.3526C53.9142 27.2617 51.4999 31.9495 47.2547 35.5709V22.3526H41.2189V35.5709C36.9939 31.9495 34.5594 27.2415 34.5594 22.3526ZM7.07645 90.9594C8.46469 84.4005 14.3194 79.4512 21.2807 79.4512C22.5683 79.4512 23.856 79.6322 25.1235 79.9743L26.894 80.4571L28.1414 79.1091C32.286 74.6225 38.1608 72.0473 44.2569 72.0473C50.3531 72.0473 56.2279 74.6225 60.3725 79.1091L61.6199 80.4571L63.3904 79.9743C64.6378 79.6322 65.9254 79.4512 67.2332 79.4512C74.2146 79.4512 80.0492 84.4005 81.4374 90.9594H7.07645Z" fill="#FFBE5A"/>
</svg>
