<svg width="22" height="23" viewBox="0 0 22 23" fill="none" xmlns="http://www.w3.org/2000/svg">
<path d="M10.9956 1.98253C13.9333 1.98253 14.2782 1.99563 15.4393 2.04803C16.5131 2.09607 17.0937 2.27511 17.4821 2.42795C17.9972 2.62882 18.3639 2.86463 18.748 3.24891C19.1321 3.63319 19.3722 4 19.5687 4.51528C19.7171 4.90393 19.9004 5.48472 19.9484 6.55895C20.0008 7.72052 20.0139 8.0655 20.0139 11.0044C20.0139 13.9432 20.0008 14.2882 19.9484 15.4498C19.9004 16.524 19.7214 17.1048 19.5687 17.4935C19.3679 18.0087 19.1321 18.3755 18.748 18.7598C18.3639 19.1441 17.9972 19.3843 17.4821 19.5808C17.0937 19.7293 16.5131 19.9127 15.4393 19.9607C14.2782 20.0131 13.9333 20.0262 10.9956 20.0262C8.05794 20.0262 7.7131 20.0131 6.55198 19.9607C5.47818 19.9127 4.89762 19.7336 4.50913 19.5808C3.99405 19.3799 3.62738 19.1441 3.24325 18.7598C2.85913 18.3755 2.61905 18.0087 2.42262 17.4935C2.27421 17.1048 2.09087 16.524 2.04286 15.4498C1.99048 14.2882 1.97738 13.9432 1.97738 11.0044C1.97738 8.0655 1.99048 7.72052 2.04286 6.55895C2.09087 5.48472 2.26984 4.90393 2.42262 4.51528C2.62341 4 2.85913 3.63319 3.24325 3.24891C3.62738 2.86463 3.99405 2.62445 4.50913 2.42795C4.89762 2.27948 5.47818 2.09607 6.55198 2.04803C7.7131 1.99127 8.0623 1.98253 10.9956 1.98253ZM10.9956 0C8.00992 0 7.63452 0.0131004 6.46032 0.0655022C5.29048 0.117904 4.49167 0.305677 3.79325 0.576419C3.06865 0.855895 2.45754 1.23581 1.84643 1.84716C1.23532 2.45852 0.859921 3.07424 0.57619 3.79476C0.305556 4.49345 0.117857 5.29258 0.0654762 6.46725C0.0130952 7.63755 0 8.0131 0 11C0 13.9869 0.0130952 14.3624 0.0654762 15.5371C0.117857 16.7074 0.305556 17.5065 0.57619 18.2096C0.855556 18.9345 1.23532 19.5459 1.84643 20.1572C2.45754 20.7686 3.07302 21.1441 3.79325 21.4279C4.49167 21.6987 5.29048 21.8865 6.46468 21.9389C7.63889 21.9913 8.00992 22.0044 11 22.0044C13.9901 22.0044 14.3611 21.9913 15.5353 21.9389C16.7052 21.8865 17.504 21.6987 18.2067 21.4279C18.9314 21.1485 19.5425 20.7686 20.1536 20.1572C20.7647 19.5459 21.1401 18.9301 21.4238 18.2096C21.6944 17.5109 21.8821 16.7118 21.9345 15.5371C21.9869 14.3624 22 13.9913 22 11C22 8.00873 21.9869 7.63755 21.9345 6.46288C21.8821 5.29258 21.6944 4.49345 21.4238 3.79039C21.1444 3.0655 20.7647 2.45415 20.1536 1.84279C19.5425 1.23144 18.927 0.855895 18.2067 0.572052C17.5083 0.30131 16.7095 0.113537 15.5353 0.0611354C14.3567 0.0131004 13.9813 0 10.9956 0Z" fill="#D4D3D1"/>
<path d="M10.9961 5.35352C7.8794 5.35352 5.34766 7.8819 5.34766 11.0042C5.34766 14.1264 7.87503 16.6548 10.9961 16.6548C14.1171 16.6548 16.6445 14.1264 16.6445 11.0042C16.6445 7.8819 14.1171 5.35352 10.9961 5.35352ZM10.9961 14.6679C8.97067 14.6679 7.3294 13.026 7.3294 10.9998C7.3294 8.9736 8.97067 7.33168 10.9961 7.33168C13.0215 7.33168 14.6627 8.9736 14.6627 10.9998C14.6627 13.026 13.0215 14.6679 10.9961 14.6679Z" fill="#D4D3D1"/>
<path d="M16.8671 6.44517C17.5951 6.44517 18.1853 5.85474 18.1853 5.12639C18.1853 4.39805 17.5951 3.80762 16.8671 3.80762C16.139 3.80762 15.5488 4.39805 15.5488 5.12639C15.5488 5.85474 16.139 6.44517 16.8671 6.44517Z" fill="#D4D3D1"/>
</svg>
