<svg width="99" height="99" viewBox="0 0 99 99" fill="none" xmlns="http://www.w3.org/2000/svg">
<path d="M90.3165 5.80078C89.1754 5.80078 88.1117 6.01348 87.1061 6.41953C86.1004 2.72637 82.716 0 78.7126 0C73.9164 0 70.0098 3.90586 70.0098 8.70117V20.4381C67.4956 18.2918 64.2852 17.035 60.746 17.035C54.9441 17.035 51.2696 19.4133 49.1035 21.6176C46.8795 19.4133 43.1469 17.035 37.345 17.035C34.27 17.035 31.369 17.9824 28.9902 19.7613V8.70117C28.9902 3.90586 25.1029 0 20.3067 0C16.3034 0 12.9189 2.72637 11.9133 6.41953C10.9076 6.01348 9.84391 5.80078 8.70287 5.80078C3.90662 5.80078 0 9.70664 0 14.502V40.5281V40.7021C0.0193397 49.2293 3.8486 57.1764 10.4821 62.5131C14.8722 66.0709 17.4057 71.3303 17.4057 76.9957V99H81.6136V76.9957C81.6136 71.3496 84.1471 66.0709 88.5372 62.5324C95.1707 57.1957 98.9807 49.2293 99 40.7215V14.5213C99 9.70664 95.1127 5.80078 90.3165 5.80078ZM75.8117 8.70117C75.8117 7.09629 77.1074 5.80078 78.7126 5.80078C80.3178 5.80078 81.6136 7.09629 81.6136 8.70117V31.9043C79.7376 31.2469 77.6876 31.2469 75.8117 31.9043V8.70117ZM17.3864 8.70117C17.3864 7.09629 18.7015 5.80078 20.3067 5.80078C21.9119 5.80078 23.2077 7.09629 23.2077 8.70117V29.1006C23.0336 29.9707 22.9176 30.8795 22.8595 31.7883C21.0609 31.2275 19.1076 31.2855 17.3864 31.9043V8.70117ZM46.6087 93.1992H23.2077V81.2109H46.6087V93.1992ZM46.6087 75.4102H23.1496C22.7242 68.6039 19.4751 62.3197 14.118 58.0078C8.85759 53.7732 5.80191 47.4504 5.78257 40.7021V14.5213C5.78257 12.9164 7.09768 11.6209 8.70287 11.6209C10.3081 11.6209 11.6038 12.9164 11.6038 14.5213V40.1414C11.6038 42.365 12.4548 44.5887 14.1567 46.2902L25.0643 57.1957L29.1643 53.0965L18.2567 42.1523C17.135 41.0309 17.135 39.1746 18.2567 38.0531C19.3784 36.9316 21.1963 36.9123 22.3567 38.0531L36.3587 52.0523L36.436 51.975L42.354 57.8338C45.1002 60.5795 46.6087 64.2147 46.6087 68.0818V75.4102ZM46.454 53.7539L29.5317 37.009C29.319 36.4869 29.1256 35.9648 28.9902 35.4428V29.7387C30.0346 25.6588 33.303 22.8357 37.345 22.8357C43.9398 22.8357 46.3186 27.3217 46.512 27.6891L49.2196 34.1473L51.8111 27.6117C51.9852 27.2443 54.2092 22.8164 60.746 22.8164C65.7357 22.8164 69.6423 27.1283 69.6423 32.6391C69.6423 34.6113 69.1395 36.4289 68.0951 38.3432L58.3673 47.9531L58.3866 47.9725L52.5653 53.7539C51.3856 54.9334 50.3606 56.2482 49.5097 57.6404C48.6587 56.2482 47.6337 54.9334 46.454 53.7539ZM75.8117 93.1992H52.4106V81.2109H75.8117V93.1992ZM93.2174 40.5088V40.6828C93.1981 47.4504 90.1618 53.7539 84.9014 57.9885C79.5443 62.3004 76.2952 68.5846 75.8697 75.3908H52.3913V68.1012C52.3913 64.234 53.9191 60.5795 56.646 57.8531L76.6433 38.0531L76.6626 38.0338C77.7843 36.9123 79.6409 36.9123 80.7626 38.0338C81.8844 39.1553 81.8844 41.0115 80.7626 42.133L69.855 53.0385L73.9551 57.1377L84.8627 46.2322C86.5646 44.5307 87.3768 42.307 87.3962 40.0834V14.502C87.3962 12.8971 88.7113 11.6016 90.3165 11.6016C91.9217 11.6016 93.2174 12.8971 93.2174 14.502V40.5088Z" fill="#FFBE5A"/>
<path d="M75.4944 31.9181C75.4555 30.9992 75.3388 30.0802 75.1444 29.2004C73.7054 22.7287 69.3302 19.7568 69.3302 19.7568C66.9384 17.958 64.0216 17 60.9298 17C55.0961 17 51.3432 19.4049 49.1069 21.6338L49.0097 21.7511L48.893 21.6338C46.6568 19.4049 42.9039 17 37.0702 17C33.9784 17 31.0616 17.958 28.6698 19.7568C28.6698 19.7568 24.2946 22.7287 22.8556 29.2004C22.6806 30.0802 22.5639 30.9992 22.5056 31.9181C22.5056 31.9181 22.3111 34.4599 22 38.253L36.0785 52.4086L36.1563 52.3303L48.9319 64.8827L48.9708 64.9804L48.9903 64.9609L49.0097 64.9804L49.0486 64.8827L61.8243 52.3303L61.9021 52.4086L75.9806 38.253C75.6889 34.4599 75.4944 31.9181 75.4944 31.9181ZM69.3302 35.5939C69.1941 36.1218 69.0191 36.6497 68.7857 37.1776L51.771 54.1096C50.7015 55.1849 49.7875 56.3385 48.9903 57.5703C48.193 56.3385 47.2791 55.1654 46.2096 54.1096L29.1948 37.1776C28.9809 36.6497 28.7865 36.1218 28.6503 35.5939V29.8456C29.7198 25.7202 33.0061 22.8656 37.0702 22.8656C43.7011 22.8656 46.0929 27.4016 46.2874 27.7731L48.893 34.0297L49.0097 34.3035V34.2839V34.3035L49.1264 34.0297L51.7321 27.7731C51.9265 27.4016 54.3183 22.8656 60.9492 22.8656C65.0328 22.8656 68.2996 25.7202 69.3497 29.8456V35.5939H69.3302Z" fill="#FF7D4E"/>
</svg>
