<svg width="42" height="50" viewBox="0 0 42 50" fill="none" xmlns="http://www.w3.org/2000/svg">
<path fill-rule="evenodd" clip-rule="evenodd" d="M15.3281 21.1655H26.6712V28.9876C26.6712 32.1164 24.1267 34.6625 20.9997 34.6625C17.8727 34.6625 15.3281 32.1164 15.3281 28.9876V21.1655Z" fill="#FF7D4E"/>
<path fill-rule="evenodd" clip-rule="evenodd" d="M34.3358 21.1655V28.9876C34.3358 36.3496 28.3577 42.3312 21 42.3312C13.6423 42.3312 7.66423 36.3496 7.66423 28.9876V21.1655H0V28.9876C0 40.5827 9.41168 49.9999 21 49.9999C32.5883 49.9999 42 40.5827 42 28.9876V21.1655H34.3358Z" fill="#725CF0"/>
<path fill-rule="evenodd" clip-rule="evenodd" d="M21.0008 0C13.6431 0 7.66504 5.9816 7.66504 13.3436V21.1656H15.3293V13.3436C15.3293 10.2147 17.8738 7.66871 21.0008 7.66871C24.1278 7.66871 26.6723 10.2147 26.6723 13.3436V21.1656H34.3366V13.3436C34.3366 5.9816 28.3585 0 21.0008 0Z" fill="#FDC672"/>
</svg>
