<svg width="32" height="32" viewBox="0 0 32 32" fill="none" xmlns="http://www.w3.org/2000/svg">
<path d="M25.1901 19.9003C23.7022 18.4275 21.9168 17.3544 19.972 16.739C22.0975 15.424 23.5109 13.0886 23.5109 10.4323C23.5109 6.33482 20.142 3 16.0026 3C11.8633 3 8.49438 6.33482 8.49438 10.4323C8.49438 13.0886 9.90782 15.424 12.0333 16.739C10.0832 17.3544 8.29777 18.4275 6.81524 19.9003C4.34968 22.3304 3 25.5652 3 29H4.91294C4.91294 22.9458 9.88657 18.0225 16.0026 18.0225C22.1187 18.0225 27.0924 22.9458 27.0924 29H29.0053C29 25.5652 27.6503 22.3304 25.1901 19.9003ZM10.402 10.4323C10.402 7.38155 12.9154 4.89359 16.0026 4.89359C19.0846 4.89359 21.598 7.38155 21.598 10.4323C21.598 13.4831 19.0846 15.9711 16.0026 15.9711C12.9154 15.9763 10.402 13.4884 10.402 10.4323Z" fill="black"/>
</svg>
