<svg width="97" height="90" viewBox="0 0 97 90" fill="none" xmlns="http://www.w3.org/2000/svg">
<path d="M87.8753 9.35737C77.193 -1.28476 60.6771 -2.4169 48.5174 4.96089C36.1115 -2.47351 19.5009 -1.05833 9.04586 9.35737C-3.47366 21.8298 -2.73499 42.265 9.63301 54.5676L17.8152 62.719C17.8152 62.719 17.8152 62.719 17.8342 62.7379C19.4062 64.304 21.4517 65.1342 23.5162 65.2474C23.6109 67.3042 24.4632 69.342 26.0353 70.9081C27.5695 72.4365 29.5771 73.3234 31.7174 73.4177C31.831 75.5499 32.7023 77.55 34.2364 79.0784C35.7706 80.6068 37.7783 81.4937 39.9185 81.588C40.0132 83.6447 40.8655 85.6826 42.4376 87.2487C45.8089 90.6074 51.2827 90.6074 54.654 87.2487L62.8552 79.0784C64.3893 77.55 65.2795 75.5499 65.3742 73.4177C67.4387 73.3234 69.4843 72.4743 71.0563 70.9081C72.5905 69.3797 73.4807 67.3796 73.5754 65.2474C75.7156 65.1531 77.7233 64.2662 79.2575 62.7379C80.7916 61.2095 81.6818 59.2093 81.7765 57.0771C83.9168 56.9828 85.9244 56.0959 87.4586 54.5676C99.9402 42.114 100.243 21.6788 87.8753 9.35737ZM26.0353 58.7376C24.8799 59.8886 23.0048 59.8886 21.8495 58.7376C20.6941 57.5866 20.6941 55.7186 21.8495 54.5676L30.562 45.8878C31.7174 44.7368 33.5925 44.7368 34.7478 45.8878C35.9032 47.0388 35.9032 48.9069 34.7478 50.0579C32.797 52.0014 27.1717 57.6055 26.0353 58.7376ZM30.0506 66.9079C28.8953 65.7569 28.8953 63.8889 30.0506 62.7379L38.2518 54.5676C39.4071 53.4165 41.2822 53.4165 42.4376 54.5676C43.5929 55.7186 43.5929 57.5866 42.4376 58.7376L34.2364 66.9079C33.0811 68.0589 31.206 68.0589 30.0506 66.9079ZM38.2518 75.0782C37.0964 73.9272 37.0964 72.0591 38.2518 70.9081L46.4529 62.7379C47.6083 61.5868 49.4833 61.5868 50.6387 62.7379C51.7941 63.8889 51.7941 65.7569 50.6387 66.9079L42.4376 75.0782C41.2822 76.2292 39.4071 76.2292 38.2518 75.0782ZM58.8209 75.0782L50.6198 83.2485C49.4644 84.3995 47.5893 84.3995 46.434 83.2485C45.2786 82.0975 45.2786 80.2294 46.434 79.0784L54.6351 70.9081C55.7905 69.7571 57.6655 69.7571 58.8209 70.9081C59.9763 72.0591 59.9763 73.9272 58.8209 75.0782ZM83.4243 50.5673C82.269 51.7183 80.3939 51.7183 79.2385 50.5673L62.8362 34.2267L58.8209 38.227L75.2232 54.5676C76.3785 55.7186 76.3785 57.5866 75.2232 58.7376C74.0678 59.8886 72.1927 59.8886 71.0374 58.7376L54.6351 42.397L50.6198 46.3973L67.022 62.7379C68.1774 63.8889 68.1774 65.7569 67.022 66.9079C65.8667 68.0589 63.9916 68.0589 62.8362 66.9079C61.3021 65.3795 59.2944 64.4927 57.1542 64.3983C57.0595 62.2661 56.1693 60.266 54.6351 58.7376C53.1009 57.2092 51.0933 56.3224 48.953 56.228C48.8583 54.1713 48.006 52.1335 46.434 50.5673C44.9945 49.1333 43.1573 48.303 41.2633 48.0955C41.3012 45.8501 40.4488 43.5858 38.7442 41.8876C35.3728 38.5289 29.8991 38.5289 26.5277 41.8876L17.8152 50.5673C17.0765 51.3032 16.5083 52.1335 16.0916 53.0203L13.6294 50.5673C3.4206 40.3969 2.81451 23.5469 13.0423 13.3576C20.9025 5.52696 33.422 3.77214 43.4982 8.69696C43.1194 9.0366 42.7596 9.37624 42.3997 9.73475L30.5052 21.5845C26.9065 25.1696 26.9065 30.9813 30.5052 34.5664C33.6114 37.6609 38.498 38.1138 42.1345 35.7174L60.4498 23.5469L83.4054 46.4161C84.5797 47.5483 84.5797 49.4163 83.4243 50.5673ZM87.4397 42.397L61.2074 16.2634L39.0094 31.0001C37.6078 31.9247 35.7327 31.736 34.5584 30.5662C33.1758 29.1887 33.1758 26.9622 34.5584 25.5847L46.4529 13.735C56.6807 3.54571 73.6322 3.16833 83.8599 13.3576C92.099 21.5656 93.3111 33.9814 88.4624 43.6235C88.1594 43.1895 87.8185 42.7744 87.4397 42.397Z" fill="#FF7D4E"/>
</svg>
