<svg width="120" height="19" viewBox="0 0 120 19" fill="none" xmlns="http://www.w3.org/2000/svg">
<path d="M10.8713 0.590764L13.1058 5.15105C13.2713 5.48271 13.5609 5.68999 13.892 5.73145L18.8988 6.47768C19.7678 6.60205 20.1402 7.67993 19.4781 8.30179L15.8781 11.8256C15.6299 12.0744 15.5057 12.406 15.5885 12.7792L16.4575 17.754C16.623 18.6246 15.6713 19.2879 14.9264 18.8734L10.4575 16.5103C10.1265 16.3445 9.75409 16.3445 9.46444 16.5103L4.95415 18.8734C4.16795 19.2879 3.25762 18.6246 3.42314 17.754L4.29209 12.7792C4.33347 12.4475 4.25071 12.0744 4.00244 11.8256L0.319728 8.30179C-0.300954 7.67993 0.0300763 6.60205 0.899031 6.47768L5.90586 5.73145C6.23689 5.68999 6.56792 5.48271 6.69206 5.15105L8.92651 0.590764C9.3403 -0.196921 10.4575 -0.196921 10.8713 0.590764Z" fill="#FFC329"/>
<path d="M36.1926 0.590764L38.4271 5.15105C38.5926 5.48271 38.8822 5.68999 39.2133 5.73145L44.2201 6.47768C45.089 6.60205 45.4615 7.67993 44.7994 8.30179L41.1994 11.8256C40.9512 12.0744 40.827 12.406 40.9098 12.7792L41.7787 17.754C41.9443 18.6246 40.9925 19.2879 40.2477 18.8734L35.7788 16.5103C35.4478 16.3445 35.0754 16.3445 34.7857 16.5103L30.2754 18.8734C29.4892 19.2879 28.5789 18.6246 28.7444 17.754L29.6134 12.7792C29.6548 12.4475 29.572 12.0744 29.3237 11.8256L25.641 8.30179C25.0203 7.67993 25.3514 6.60205 26.2203 6.47768L31.2272 5.73145C31.5582 5.68999 31.8892 5.48271 32.0133 5.15105L34.2478 0.590764C34.6616 -0.196921 35.7788 -0.196921 36.1926 0.590764Z" fill="#FFC329"/>
<path d="M61.0163 0.590764L63.3749 5.15105C63.5496 5.48271 63.8553 5.68999 64.2048 5.73145L69.4897 6.47768C70.407 6.60205 70.8001 7.67993 70.1012 8.30179L66.3013 11.8256C66.0392 12.0744 65.9082 12.406 65.9955 12.7792L66.9128 17.754C67.0875 18.6246 66.0829 19.2879 65.2967 18.8734L60.5795 16.5103C60.2301 16.3445 59.837 16.3445 59.5313 16.5103L54.7704 18.8734C53.9405 19.2879 52.9796 18.6246 53.1543 17.754L54.0716 12.7792C54.1152 12.4475 54.0279 12.0744 53.7658 11.8256L49.8785 8.30179C49.2233 7.67993 49.5728 6.60205 50.49 6.47768L55.775 5.73145C56.1244 5.68999 56.4738 5.48271 56.6049 5.15105L58.9634 0.590764C59.4002 -0.196921 60.5795 -0.196921 61.0163 0.590764Z" fill="#FFC329"/>
<path d="M85.7336 0.590764L87.9681 5.15105C88.1336 5.48271 88.4232 5.68999 88.7543 5.73145L93.7611 6.47768C94.6301 6.60205 95.0025 7.67993 94.3404 8.30179L90.7405 11.8256C90.4922 12.0744 90.368 12.406 90.4508 12.7792L91.3198 17.754C91.4853 18.6246 90.5336 19.2879 89.7887 18.8734L85.3198 16.5103C84.9888 16.3445 84.6164 16.3445 84.3267 16.5103L79.8165 18.8734C79.0303 19.2879 78.1199 18.6246 78.2854 17.754L79.1544 12.7792C79.1958 12.4475 79.113 12.0744 78.8647 11.8256L75.182 8.30179C74.5614 7.67993 74.8924 6.60205 75.7613 6.47768L80.7682 5.73145C81.0992 5.68999 81.4302 5.48271 81.5544 5.15105L83.7888 0.590764C84.2026 -0.196921 85.3198 -0.196921 85.7336 0.590764Z" fill="#FFC329"/>
<path d="M111.055 0.590764L113.289 5.15105C113.455 5.48271 113.745 5.68999 114.076 5.73145L119.082 6.47768C119.951 6.60205 120.324 7.67993 119.662 8.30179L116.062 11.8256C115.813 12.0744 115.689 12.406 115.772 12.7792L116.641 17.754C116.807 18.6246 115.855 19.2879 115.11 18.8734L110.641 16.5103C110.31 16.3445 109.938 16.3445 109.648 16.5103L105.138 18.8734C104.352 19.2879 103.441 18.6246 103.607 17.754L104.476 12.7792C104.517 12.4475 104.434 12.0744 104.186 11.8256L100.503 8.30179C99.8826 7.67993 100.214 6.60205 101.083 6.47768L106.089 5.73145C106.42 5.68999 106.752 5.48271 106.876 5.15105L109.11 0.590764C109.524 -0.196921 110.641 -0.196921 111.055 0.590764Z" fill="#FFC329"/>
</svg>
