<svg width="32" height="32" viewBox="0 0 32 32" fill="none" xmlns="http://www.w3.org/2000/svg">
<circle cx="24.5" cy="7.5" r="4.5" fill="#FF7D4E"/>
<path fill-rule="evenodd" clip-rule="evenodd" d="M18.1998 3.4293C17.5196 3.15261 16.775 3 15.9947 3C12.9009 3 10.3603 5.40703 10.1912 8.43359H8.3165C7.29717 8.43359 6.45713 9.2207 6.39566 10.2262L5.00241 27.0906V27.116C4.9768 27.6035 5.15608 28.0859 5.49415 28.4414C5.83221 28.7969 6.3137 29 6.80544 29H25.1943C25.686 29 26.1624 28.7969 26.5056 28.4414C26.8385 28.0859 27.0229 27.6035 26.9973 27.116V27.1008L25.9824 14.8535C25.5032 14.9496 25.0075 15 24.5 15C24.3815 15 24.2637 14.9973 24.1466 14.9918L25.1482 27.1719H6.84642L8.23966 10.3633V10.3379C8.23966 10.2973 8.27552 10.2617 8.32162 10.2617H17.5248C17.2959 9.68409 17.1367 9.07126 17.0575 8.43359H12.0404C12.2094 6.41758 13.9202 4.82812 15.9947 4.82812C16.4889 4.82812 16.962 4.91789 17.3984 5.08181C17.5982 4.49488 17.8687 3.94066 18.1998 3.4293Z" fill="white"/>
</svg>
