<svg width="191" height="60" viewBox="0 0 191 60" fill="none" xmlns="http://www.w3.org/2000/svg">
<path d="M78.4297 18.4531C78.4297 20.7031 77.9766 22.3828 77.0703 23.4922C76.1641 24.6016 74.7995 25.1562 72.9766 25.1562C72.2839 25.1562 71.7865 25.1146 71.4844 25.0312V23.4922C71.9479 23.6224 72.4141 23.6875 72.8828 23.6875C74.1224 23.6875 75.0469 23.3542 75.6562 22.6875C76.2656 22.0208 76.599 20.974 76.6562 19.5469H76.5625C76.2552 20.0156 75.8828 20.3542 75.4453 20.5625C75.013 20.7708 74.5052 20.875 73.9219 20.875C72.9115 20.875 72.1172 20.5599 71.5391 19.9297C70.9609 19.2995 70.6719 18.4349 70.6719 17.3359C70.6719 16.1432 71.0052 15.1953 71.6719 14.4922C72.3438 13.7839 73.2578 13.4297 74.4141 13.4297C75.2266 13.4297 75.9349 13.6276 76.5391 14.0234C77.1432 14.4193 77.6094 14.9948 77.9375 15.75C78.2656 16.5 78.4297 17.401 78.4297 18.4531ZM74.4453 14.9531C73.8099 14.9531 73.3229 15.1615 72.9844 15.5781C72.6458 15.9896 72.4766 16.5703 72.4766 17.3203C72.4766 17.9714 72.6328 18.4844 72.9453 18.8594C73.263 19.2292 73.7422 19.4141 74.3828 19.4141C75.0026 19.4141 75.5234 19.2292 75.9453 18.8594C76.3672 18.4896 76.5781 18.0573 76.5781 17.5625C76.5781 17.099 76.487 16.6667 76.3047 16.2656C76.1276 15.8594 75.8776 15.5391 75.5547 15.3047C75.2318 15.0703 74.862 14.9531 74.4453 14.9531ZM87.5859 19.2891C87.5859 21.2734 87.2656 22.7474 86.625 23.7109C85.9896 24.6745 85.0156 25.1562 83.7031 25.1562C82.4323 25.1562 81.4688 24.6589 80.8125 23.6641C80.1562 22.6693 79.8281 21.2109 79.8281 19.2891C79.8281 17.2734 80.1458 15.7891 80.7812 14.8359C81.4219 13.8776 82.3958 13.3984 83.7031 13.3984C84.9792 13.3984 85.9453 13.8984 86.6016 14.8984C87.2578 15.8984 87.5859 17.362 87.5859 19.2891ZM81.6875 19.2891C81.6875 20.8464 81.8464 21.9583 82.1641 22.625C82.487 23.2917 83 23.625 83.7031 23.625C84.4062 23.625 84.9193 23.2865 85.2422 22.6094C85.5703 21.9323 85.7344 20.8255 85.7344 19.2891C85.7344 17.7578 85.5703 16.651 85.2422 15.9688C84.9193 15.2812 84.4062 14.9375 83.7031 14.9375C83 14.9375 82.487 15.2734 82.1641 15.9453C81.8464 16.6172 81.6875 17.7318 81.6875 19.2891ZM98.8047 15.0156C97.7318 15.0156 96.888 15.3958 96.2734 16.1562C95.6589 16.9167 95.3516 17.9661 95.3516 19.3047C95.3516 20.7057 95.6458 21.7656 96.2344 22.4844C96.8281 23.2031 97.6849 23.5625 98.8047 23.5625C99.2891 23.5625 99.7578 23.5156 100.211 23.4219C100.664 23.3229 101.135 23.1979 101.625 23.0469V24.6484C100.729 24.987 99.7135 25.1562 98.5781 25.1562C96.9062 25.1562 95.6224 24.651 94.7266 23.6406C93.8307 22.625 93.3828 21.1745 93.3828 19.2891C93.3828 18.1016 93.599 17.0625 94.0312 16.1719C94.4688 15.2812 95.099 14.599 95.9219 14.125C96.7448 13.651 97.7109 13.4141 98.8203 13.4141C99.987 13.4141 101.065 13.6589 102.055 14.1484L101.383 15.7031C100.997 15.5208 100.589 15.362 100.156 15.2266C99.7292 15.0859 99.2786 15.0156 98.8047 15.0156ZM109.297 25L108.93 23.7969H108.867C108.451 24.3229 108.031 24.6823 107.609 24.875C107.188 25.0625 106.646 25.1562 105.984 25.1562C105.135 25.1562 104.471 24.9271 103.992 24.4688C103.518 24.0104 103.281 23.362 103.281 22.5234C103.281 21.6328 103.612 20.9609 104.273 20.5078C104.935 20.0547 105.943 19.8073 107.297 19.7656L108.789 19.7188V19.2578C108.789 18.7057 108.659 18.2943 108.398 18.0234C108.143 17.7474 107.745 17.6094 107.203 17.6094C106.76 17.6094 106.336 17.6745 105.93 17.8047C105.523 17.9349 105.133 18.0885 104.758 18.2656L104.164 16.9531C104.633 16.7083 105.146 16.5234 105.703 16.3984C106.26 16.2682 106.786 16.2031 107.281 16.2031C108.38 16.2031 109.208 16.4427 109.766 16.9219C110.328 17.401 110.609 18.1536 110.609 19.1797V25H109.297ZM106.562 23.75C107.229 23.75 107.763 23.5651 108.164 23.1953C108.57 22.8203 108.773 22.2969 108.773 21.625V20.875L107.664 20.9219C106.799 20.9531 106.169 21.099 105.773 21.3594C105.383 21.6146 105.188 22.0078 105.188 22.5391C105.188 22.9245 105.302 23.224 105.531 23.4375C105.76 23.6458 106.104 23.75 106.562 23.75ZM117.555 25.1562C116.461 25.1562 115.612 24.763 115.008 23.9766H114.898C114.971 24.7057 115.008 25.1484 115.008 25.3047V28.8438H113.172V16.3594H114.656C114.698 16.5208 114.784 16.9062 114.914 17.5156H115.008C115.581 16.6406 116.44 16.2031 117.586 16.2031C118.664 16.2031 119.503 16.5938 120.102 17.375C120.706 18.1562 121.008 19.2526 121.008 20.6641C121.008 22.0755 120.701 23.1771 120.086 23.9688C119.477 24.7604 118.633 25.1562 117.555 25.1562ZM117.109 17.7031C116.38 17.7031 115.846 17.9167 115.508 18.3438C115.174 18.7708 115.008 19.4531 115.008 20.3906V20.6641C115.008 21.7161 115.174 22.4792 115.508 22.9531C115.841 23.4219 116.385 23.6562 117.141 23.6562C117.776 23.6562 118.266 23.3958 118.609 22.875C118.953 22.3542 119.125 21.612 119.125 20.6484C119.125 19.6797 118.953 18.9479 118.609 18.4531C118.271 17.9531 117.771 17.7031 117.109 17.7031ZM128.945 22.5391C128.945 23.3828 128.638 24.0312 128.023 24.4844C127.409 24.9323 126.529 25.1562 125.383 25.1562C124.232 25.1562 123.307 24.9818 122.609 24.6328V23.0469C123.625 23.5156 124.57 23.75 125.445 23.75C126.576 23.75 127.141 23.4089 127.141 22.7266C127.141 22.5078 127.078 22.3255 126.953 22.1797C126.828 22.0339 126.622 21.8828 126.336 21.7266C126.049 21.5703 125.651 21.3932 125.141 21.1953C124.146 20.8099 123.471 20.4245 123.117 20.0391C122.768 19.6536 122.594 19.1536 122.594 18.5391C122.594 17.7995 122.891 17.2266 123.484 16.8203C124.083 16.4089 124.896 16.2031 125.922 16.2031C126.938 16.2031 127.898 16.4089 128.805 16.8203L128.211 18.2031C127.279 17.8177 126.495 17.625 125.859 17.625C124.891 17.625 124.406 17.901 124.406 18.4531C124.406 18.724 124.531 18.9531 124.781 19.1406C125.036 19.3281 125.589 19.5859 126.438 19.9141C127.151 20.1901 127.669 20.4427 127.992 20.6719C128.315 20.901 128.555 21.1667 128.711 21.4688C128.867 21.7656 128.945 22.1224 128.945 22.5391ZM137.031 25L136.773 23.8672H136.68C136.424 24.2682 136.06 24.5833 135.586 24.8125C135.117 25.0417 134.581 25.1562 133.977 25.1562C132.93 25.1562 132.148 24.8958 131.633 24.375C131.117 23.8542 130.859 23.0651 130.859 22.0078V16.3594H132.711V21.6875C132.711 22.349 132.846 22.8464 133.117 23.1797C133.388 23.5078 133.812 23.6719 134.391 23.6719C135.161 23.6719 135.727 23.4427 136.086 22.9844C136.451 22.5208 136.633 21.7474 136.633 20.6641V16.3594H138.477V25H137.031ZM142.93 25H141.094V12.8438H142.93V25ZM149.336 25.1562C147.992 25.1562 146.94 24.7656 146.18 23.9844C145.424 23.1979 145.047 22.1172 145.047 20.7422C145.047 19.3307 145.398 18.2214 146.102 17.4141C146.805 16.6068 147.771 16.2031 149 16.2031C150.141 16.2031 151.042 16.5495 151.703 17.2422C152.365 17.9349 152.695 18.888 152.695 20.1016V21.0938H146.938C146.964 21.9323 147.19 22.5781 147.617 23.0312C148.044 23.4792 148.646 23.7031 149.422 23.7031C149.932 23.7031 150.406 23.6562 150.844 23.5625C151.286 23.4635 151.76 23.3021 152.266 23.0781V24.5703C151.818 24.7839 151.365 24.9349 150.906 25.0234C150.448 25.112 149.924 25.1562 149.336 25.1562ZM149 17.5938C148.417 17.5938 147.948 17.7786 147.594 18.1484C147.245 18.5182 147.036 19.0573 146.969 19.7656H150.891C150.88 19.0521 150.708 18.513 150.375 18.1484C150.042 17.7786 149.583 17.5938 149 17.5938ZM160.586 22.5391C160.586 23.3828 160.279 24.0312 159.664 24.4844C159.049 24.9323 158.169 25.1562 157.023 25.1562C155.872 25.1562 154.948 24.9818 154.25 24.6328V23.0469C155.266 23.5156 156.211 23.75 157.086 23.75C158.216 23.75 158.781 23.4089 158.781 22.7266C158.781 22.5078 158.719 22.3255 158.594 22.1797C158.469 22.0339 158.263 21.8828 157.977 21.7266C157.69 21.5703 157.292 21.3932 156.781 21.1953C155.786 20.8099 155.112 20.4245 154.758 20.0391C154.409 19.6536 154.234 19.1536 154.234 18.5391C154.234 17.7995 154.531 17.2266 155.125 16.8203C155.724 16.4089 156.536 16.2031 157.562 16.2031C158.578 16.2031 159.539 16.4089 160.445 16.8203L159.852 18.2031C158.919 17.8177 158.135 17.625 157.5 17.625C156.531 17.625 156.047 17.901 156.047 18.4531C156.047 18.724 156.172 18.9531 156.422 19.1406C156.677 19.3281 157.229 19.5859 158.078 19.9141C158.792 20.1901 159.31 20.4427 159.633 20.6719C159.956 20.901 160.195 21.1667 160.352 21.4688C160.508 21.7656 160.586 22.1224 160.586 22.5391Z" fill="black"/>
<path opacity="0.5" d="M73.8076 40.8955C74.8604 40.8955 75.6875 41.1576 76.2891 41.6816C76.8952 42.2012 77.1982 42.9144 77.1982 43.8213C77.1982 44.8558 76.8678 45.667 76.207 46.2549C75.5508 46.8428 74.6439 47.1367 73.4863 47.1367C72.3607 47.1367 71.5016 46.9567 70.9092 46.5967V45.5029C71.2282 45.708 71.6247 45.8698 72.0986 45.9883C72.5726 46.1022 73.0397 46.1592 73.5 46.1592C74.3021 46.1592 74.9242 45.9701 75.3662 45.5918C75.8128 45.2135 76.0361 44.6667 76.0361 43.9512C76.0361 42.5566 75.1816 41.8594 73.4727 41.8594C73.0397 41.8594 72.4609 41.9255 71.7363 42.0576L71.1484 41.6816L71.5244 37.0059H76.4941V38.0518H72.4951L72.2422 41.0527C72.7663 40.9479 73.2881 40.8955 73.8076 40.8955ZM85.3193 41.9893C85.3193 43.7165 85.0459 45.0062 84.499 45.8584C83.9567 46.7106 83.125 47.1367 82.0039 47.1367C80.9284 47.1367 80.1104 46.7015 79.5498 45.8311C78.9893 44.9561 78.709 43.6755 78.709 41.9893C78.709 40.2484 78.9801 38.9564 79.5225 38.1133C80.0648 37.2702 80.8919 36.8486 82.0039 36.8486C83.0885 36.8486 83.9111 37.2884 84.4717 38.168C85.0368 39.0475 85.3193 40.3213 85.3193 41.9893ZM79.8574 41.9893C79.8574 43.443 80.0283 44.5026 80.3701 45.168C80.7119 45.8288 81.2565 46.1592 82.0039 46.1592C82.7604 46.1592 83.3073 45.8242 83.6445 45.1543C83.9863 44.4798 84.1572 43.4248 84.1572 41.9893C84.1572 40.5537 83.9863 39.5033 83.6445 38.8379C83.3073 38.168 82.7604 37.833 82.0039 37.833C81.2565 37.833 80.7119 38.1634 80.3701 38.8242C80.0283 39.4805 79.8574 40.5355 79.8574 41.9893ZM93.3311 41.9893C93.3311 43.7165 93.0576 45.0062 92.5107 45.8584C91.9684 46.7106 91.1367 47.1367 90.0156 47.1367C88.9401 47.1367 88.1221 46.7015 87.5615 45.8311C87.001 44.9561 86.7207 43.6755 86.7207 41.9893C86.7207 40.2484 86.9919 38.9564 87.5342 38.1133C88.0765 37.2702 88.9036 36.8486 90.0156 36.8486C91.1003 36.8486 91.9229 37.2884 92.4834 38.168C93.0485 39.0475 93.3311 40.3213 93.3311 41.9893ZM87.8691 41.9893C87.8691 43.443 88.04 44.5026 88.3818 45.168C88.7236 45.8288 89.2682 46.1592 90.0156 46.1592C90.7721 46.1592 91.319 45.8242 91.6562 45.1543C91.998 44.4798 92.1689 43.4248 92.1689 41.9893C92.1689 40.5537 91.998 39.5033 91.6562 38.8379C91.319 38.168 90.7721 37.833 90.0156 37.833C89.2682 37.833 88.7236 38.1634 88.3818 38.8242C88.04 39.4805 87.8691 40.5355 87.8691 41.9893ZM108.425 47V42.126C108.425 41.529 108.297 41.0824 108.042 40.7861C107.787 40.4854 107.39 40.335 106.853 40.335C106.146 40.335 105.624 40.5378 105.287 40.9434C104.95 41.349 104.781 41.9733 104.781 42.8164V47H103.646V42.126C103.646 41.529 103.519 41.0824 103.264 40.7861C103.008 40.4854 102.61 40.335 102.067 40.335C101.356 40.335 100.835 40.5492 100.502 40.9775C100.174 41.4014 100.01 42.0986 100.01 43.0693V47H98.875V39.5078H99.7979L99.9824 40.5332H100.037C100.251 40.1686 100.552 39.8838 100.939 39.6787C101.331 39.4736 101.769 39.3711 102.252 39.3711C103.423 39.3711 104.189 39.7949 104.549 40.6426H104.604C104.827 40.2507 105.15 39.9408 105.574 39.7129C105.998 39.485 106.481 39.3711 107.023 39.3711C107.871 39.3711 108.505 39.5898 108.924 40.0273C109.348 40.4603 109.56 41.1553 109.56 42.1123V47H108.425ZM118.036 39.5078V40.2256L116.648 40.3896C116.776 40.5492 116.89 40.7588 116.99 41.0186C117.09 41.2738 117.141 41.5632 117.141 41.8867C117.141 42.6204 116.89 43.2061 116.389 43.6436C115.887 44.0811 115.199 44.2998 114.324 44.2998C114.101 44.2998 113.891 44.2816 113.695 44.2451C113.212 44.5003 112.971 44.8216 112.971 45.209C112.971 45.4141 113.055 45.5667 113.224 45.667C113.392 45.7627 113.682 45.8105 114.092 45.8105H115.418C116.229 45.8105 116.851 45.9814 117.284 46.3232C117.722 46.665 117.94 47.1618 117.94 47.8135C117.94 48.6429 117.608 49.2741 116.942 49.707C116.277 50.1445 115.306 50.3633 114.03 50.3633C113.05 50.3633 112.294 50.181 111.761 49.8164C111.232 49.4518 110.968 48.9368 110.968 48.2715C110.968 47.8158 111.114 47.4215 111.405 47.0889C111.697 46.7562 112.107 46.5306 112.636 46.4121C112.444 46.3255 112.283 46.1911 112.15 46.0088C112.023 45.8265 111.959 45.6146 111.959 45.373C111.959 45.0996 112.032 44.8604 112.178 44.6553C112.324 44.4502 112.554 44.252 112.868 44.0605C112.481 43.901 112.164 43.6299 111.918 43.2471C111.676 42.8643 111.556 42.4268 111.556 41.9346C111.556 41.1143 111.802 40.4831 112.294 40.041C112.786 39.5944 113.483 39.3711 114.386 39.3711C114.778 39.3711 115.131 39.4167 115.445 39.5078H118.036ZM112.062 48.2578C112.062 48.6634 112.232 48.971 112.574 49.1807C112.916 49.3903 113.406 49.4951 114.044 49.4951C114.996 49.4951 115.701 49.3516 116.156 49.0645C116.617 48.7819 116.847 48.3968 116.847 47.9092C116.847 47.5036 116.721 47.221 116.471 47.0615C116.22 46.9066 115.748 46.8291 115.056 46.8291H113.695C113.18 46.8291 112.779 46.9521 112.492 47.1982C112.205 47.4443 112.062 47.7975 112.062 48.2578ZM112.677 41.9072C112.677 42.4313 112.825 42.8278 113.121 43.0967C113.417 43.3656 113.83 43.5 114.358 43.5C115.466 43.5 116.02 42.9622 116.02 41.8867C116.02 40.7611 115.459 40.1982 114.338 40.1982C113.805 40.1982 113.395 40.3418 113.107 40.6289C112.82 40.916 112.677 41.3421 112.677 41.9072ZM126.697 47.1367C126.21 47.1367 125.763 47.0479 125.357 46.8701C124.956 46.6878 124.619 46.4098 124.346 46.0361H124.264C124.318 46.4736 124.346 46.8883 124.346 47.2803V50.3633H123.211V39.5078H124.134L124.291 40.5332H124.346C124.637 40.123 124.977 39.8268 125.364 39.6445C125.752 39.4622 126.196 39.3711 126.697 39.3711C127.691 39.3711 128.456 39.7106 128.994 40.3896C129.536 41.0687 129.808 42.0212 129.808 43.2471C129.808 44.4775 129.532 45.4346 128.98 46.1182C128.434 46.7972 127.673 47.1367 126.697 47.1367ZM126.533 40.335C125.768 40.335 125.214 40.5469 124.872 40.9707C124.53 41.3945 124.355 42.069 124.346 42.9941V43.2471C124.346 44.2998 124.521 45.054 124.872 45.5098C125.223 45.9609 125.786 46.1865 126.561 46.1865C127.208 46.1865 127.714 45.9245 128.078 45.4004C128.447 44.8763 128.632 44.154 128.632 43.2334C128.632 42.2992 128.447 41.5837 128.078 41.0869C127.714 40.5856 127.199 40.335 126.533 40.335ZM132.932 47H131.797V36.3633H132.932V47ZM139.945 47L139.72 45.9336H139.665C139.291 46.403 138.918 46.722 138.544 46.8906C138.175 47.0547 137.712 47.1367 137.156 47.1367C136.413 47.1367 135.83 46.9453 135.406 46.5625C134.987 46.1797 134.777 45.6351 134.777 44.9287C134.777 43.4157 135.987 42.6227 138.407 42.5498L139.679 42.5088V42.0439C139.679 41.4561 139.551 41.0231 139.296 40.7451C139.045 40.4626 138.642 40.3213 138.086 40.3213C137.462 40.3213 136.755 40.5127 135.967 40.8955L135.618 40.0273C135.987 39.8268 136.391 39.6696 136.828 39.5557C137.27 39.4417 137.712 39.3848 138.154 39.3848C139.048 39.3848 139.708 39.583 140.137 39.9795C140.57 40.376 140.786 41.0117 140.786 41.8867V47H139.945ZM137.382 46.2002C138.088 46.2002 138.642 46.0065 139.043 45.6191C139.449 45.2318 139.651 44.6895 139.651 43.9922V43.3154L138.517 43.3633C137.614 43.3952 136.963 43.5365 136.562 43.7871C136.165 44.0332 135.967 44.4183 135.967 44.9424C135.967 45.3525 136.09 45.6647 136.336 45.8789C136.587 46.0931 136.935 46.2002 137.382 46.2002ZM147.964 44.9561C147.964 45.6533 147.704 46.1911 147.185 46.5693C146.665 46.9476 145.936 47.1367 144.997 47.1367C144.004 47.1367 143.229 46.9795 142.673 46.665V45.6123C143.033 45.7946 143.418 45.9382 143.828 46.043C144.243 46.1478 144.642 46.2002 145.024 46.2002C145.617 46.2002 146.073 46.1068 146.392 45.9199C146.711 45.7285 146.87 45.4391 146.87 45.0518C146.87 44.7601 146.743 44.5117 146.487 44.3066C146.237 44.097 145.744 43.8509 145.011 43.5684C144.313 43.3086 143.817 43.083 143.521 42.8916C143.229 42.6956 143.01 42.4746 142.864 42.2285C142.723 41.9824 142.652 41.6885 142.652 41.3467C142.652 40.736 142.901 40.2552 143.397 39.9043C143.894 39.5488 144.576 39.3711 145.441 39.3711C146.248 39.3711 147.036 39.5352 147.807 39.8633L147.403 40.7861C146.651 40.4762 145.97 40.3213 145.359 40.3213C144.822 40.3213 144.416 40.4056 144.143 40.5742C143.869 40.7428 143.732 40.9753 143.732 41.2715C143.732 41.472 143.783 41.6429 143.883 41.7842C143.988 41.9255 144.154 42.0599 144.382 42.1875C144.61 42.3151 145.047 42.4997 145.694 42.7412C146.583 43.0648 147.182 43.3906 147.492 43.7188C147.807 44.0469 147.964 44.4593 147.964 44.9561ZM152.236 46.2002C152.437 46.2002 152.631 46.1865 152.817 46.1592C153.004 46.1273 153.152 46.0954 153.262 46.0635V46.9316C153.139 46.9909 152.956 47.0387 152.715 47.0752C152.478 47.1162 152.264 47.1367 152.072 47.1367C150.623 47.1367 149.898 46.3734 149.898 44.8467V40.3896H148.825V39.8428L149.898 39.3711L150.377 37.7715H151.033V39.5078H153.207V40.3896H151.033V44.7988C151.033 45.25 151.14 45.5964 151.354 45.8379C151.569 46.0794 151.863 46.2002 152.236 46.2002ZM155.9 47H154.766V39.5078H155.9V47ZM154.67 37.4775C154.67 37.2178 154.734 37.0286 154.861 36.9102C154.989 36.7871 155.148 36.7256 155.34 36.7256C155.522 36.7256 155.679 36.7871 155.812 36.9102C155.944 37.0332 156.01 37.2223 156.01 37.4775C156.01 37.7327 155.944 37.9242 155.812 38.0518C155.679 38.1748 155.522 38.2363 155.34 38.2363C155.148 38.2363 154.989 38.1748 154.861 38.0518C154.734 37.9242 154.67 37.7327 154.67 37.4775ZM161.301 47.1367C160.216 47.1367 159.375 46.804 158.778 46.1387C158.186 45.4688 157.89 44.5231 157.89 43.3018C157.89 42.0485 158.19 41.0801 158.792 40.3965C159.398 39.7129 160.259 39.3711 161.376 39.3711C161.736 39.3711 162.096 39.4098 162.456 39.4873C162.816 39.5648 163.099 39.6559 163.304 39.7607L162.955 40.7246C162.704 40.6243 162.431 40.5423 162.135 40.4785C161.839 40.4102 161.576 40.376 161.349 40.376C159.826 40.376 159.065 41.3467 159.065 43.2881C159.065 44.2087 159.25 44.915 159.619 45.4072C159.993 45.8994 160.544 46.1455 161.273 46.1455C161.898 46.1455 162.538 46.0111 163.194 45.7422V46.7471C162.693 47.0068 162.062 47.1367 161.301 47.1367ZM171.609 47.1367C170.525 47.1367 169.684 46.804 169.087 46.1387C168.494 45.4688 168.198 44.5231 168.198 43.3018C168.198 42.0485 168.499 41.0801 169.101 40.3965C169.707 39.7129 170.568 39.3711 171.685 39.3711C172.045 39.3711 172.405 39.4098 172.765 39.4873C173.125 39.5648 173.407 39.6559 173.612 39.7607L173.264 40.7246C173.013 40.6243 172.74 40.5423 172.443 40.4785C172.147 40.4102 171.885 40.376 171.657 40.376C170.135 40.376 169.374 41.3467 169.374 43.2881C169.374 44.2087 169.559 44.915 169.928 45.4072C170.301 45.8994 170.853 46.1455 171.582 46.1455C172.206 46.1455 172.847 46.0111 173.503 45.7422V46.7471C173.002 47.0068 172.37 47.1367 171.609 47.1367ZM179.895 47L179.669 45.9336H179.614C179.241 46.403 178.867 46.722 178.493 46.8906C178.124 47.0547 177.661 47.1367 177.105 47.1367C176.363 47.1367 175.779 46.9453 175.355 46.5625C174.936 46.1797 174.727 45.6351 174.727 44.9287C174.727 43.4157 175.937 42.6227 178.356 42.5498L179.628 42.5088V42.0439C179.628 41.4561 179.5 41.0231 179.245 40.7451C178.994 40.4626 178.591 40.3213 178.035 40.3213C177.411 40.3213 176.704 40.5127 175.916 40.8955L175.567 40.0273C175.937 39.8268 176.34 39.6696 176.777 39.5557C177.219 39.4417 177.661 39.3848 178.104 39.3848C178.997 39.3848 179.658 39.583 180.086 39.9795C180.519 40.376 180.735 41.0117 180.735 41.8867V47H179.895ZM177.331 46.2002C178.037 46.2002 178.591 46.0065 178.992 45.6191C179.398 45.2318 179.601 44.6895 179.601 43.9922V43.3154L178.466 43.3633C177.563 43.3952 176.912 43.5365 176.511 43.7871C176.114 44.0332 175.916 44.4183 175.916 44.9424C175.916 45.3525 176.039 45.6647 176.285 45.8789C176.536 46.0931 176.884 46.2002 177.331 46.2002ZM188.207 47V42.1533C188.207 41.5426 188.068 41.0869 187.79 40.7861C187.512 40.4854 187.077 40.335 186.484 40.335C185.701 40.335 185.126 40.5469 184.762 40.9707C184.397 41.3945 184.215 42.0941 184.215 43.0693V47H183.08V39.5078H184.003L184.188 40.5332H184.242C184.475 40.1641 184.8 39.8792 185.22 39.6787C185.639 39.4736 186.106 39.3711 186.621 39.3711C187.523 39.3711 188.202 39.5898 188.658 40.0273C189.114 40.4603 189.342 41.1553 189.342 42.1123V47H188.207Z" fill="black"/>
<rect x="39" y="36" width="10" height="22" rx="5" fill="white" stroke="black" stroke-width="2"/>
<rect x="40" y="46" width="8" height="2" fill="black"/>
<path d="M5 5C5 3.34315 6.34315 2 8 2H26C27.6569 2 29 3.34315 29 5V7C29 7.55228 28.5523 8 28 8H6C5.44772 8 5 7.55228 5 7V5Z" fill="white" stroke="black" stroke-width="2"/>
<rect x="1" y="12" width="32" height="47" rx="6" fill="white" stroke="black" stroke-width="2"/>
<path d="M5.5 31C5.5 31.2761 5.27611 31.5 5 31.5C4.72389 31.5 4.5 31.2761 4.5 31C4.5 30.7239 4.72389 30.5 5 30.5C5.27611 30.5 5.5 30.7239 5.5 31ZM5.5 39C5.5 39.2761 5.27611 39.5 5 39.5C4.72389 39.5 4.5 39.2761 4.5 39C4.5 38.7239 4.72389 38.5 5 38.5C5.27611 38.5 5.5 38.7239 5.5 39ZM7.5 35C7.5 35.2761 7.27611 35.5 7 35.5C6.72389 35.5 6.5 35.2761 6.5 35C6.5 34.7239 6.72389 34.5 7 34.5C7.27611 34.5 7.5 34.7239 7.5 35ZM13.5 31C13.5 31.2761 13.2761 31.5 13 31.5C12.7239 31.5 12.5 31.2761 12.5 31C12.5 30.7239 12.7239 30.5 13 30.5C13.2761 30.5 13.5 30.7239 13.5 31ZM13.5 39C13.5 39.2761 13.2761 39.5 13 39.5C12.7239 39.5 12.5 39.2761 12.5 39C12.5 38.7239 12.7239 38.5 13 38.5C13.2761 38.5 13.5 38.7239 13.5 39ZM15.5 35C15.5 35.2761 15.2761 35.5 15 35.5C14.7239 35.5 14.5 35.2761 14.5 35C14.5 34.7239 14.7239 34.5 15 34.5C15.2761 34.5 15.5 34.7239 15.5 35ZM21.5 31C21.5 31.2761 21.2761 31.5 21 31.5C20.7239 31.5 20.5 31.2761 20.5 31C20.5 30.7239 20.7239 30.5 21 30.5C21.2761 30.5 21.5 30.7239 21.5 31ZM21.5 39C21.5 39.2761 21.2761 39.5 21 39.5C20.7239 39.5 20.5 39.2761 20.5 39C20.5 38.7239 20.7239 38.5 21 38.5C21.2761 38.5 21.5 38.7239 21.5 39ZM23.5 35C23.5 35.2761 23.2761 35.5 23 35.5C22.7239 35.5 22.5 35.2761 22.5 35C22.5 34.7239 22.7239 34.5 23 34.5C23.2761 34.5 23.5 34.7239 23.5 35ZM9.5 31C9.5 31.2761 9.27611 31.5 9 31.5C8.72389 31.5 8.5 31.2761 8.5 31C8.5 30.7239 8.72389 30.5 9 30.5C9.27611 30.5 9.5 30.7239 9.5 31ZM9.5 39C9.5 39.2761 9.27611 39.5 9 39.5C8.72389 39.5 8.5 39.2761 8.5 39C8.5 38.7239 8.72389 38.5 9 38.5C9.27611 38.5 9.5 38.7239 9.5 39ZM11.5 35C11.5 35.2761 11.2761 35.5 11 35.5C10.7239 35.5 10.5 35.2761 10.5 35C10.5 34.7239 10.7239 34.5 11 34.5C11.2761 34.5 11.5 34.7239 11.5 35ZM17.5 31C17.5 31.2761 17.2761 31.5 17 31.5C16.7239 31.5 16.5 31.2761 16.5 31C16.5 30.7239 16.7239 30.5 17 30.5C17.2761 30.5 17.5 30.7239 17.5 31ZM17.5 39C17.5 39.2761 17.2761 39.5 17 39.5C16.7239 39.5 16.5 39.2761 16.5 39C16.5 38.7239 16.7239 38.5 17 38.5C17.2761 38.5 17.5 38.7239 17.5 39ZM19.5 35C19.5 35.2761 19.2761 35.5 19 35.5C18.7239 35.5 18.5 35.2761 18.5 35C18.5 34.7239 18.7239 34.5 19 34.5C19.2761 34.5 19.5 34.7239 19.5 35ZM25.5 31C25.5 31.2761 25.2761 31.5 25 31.5C24.7239 31.5 24.5 31.2761 24.5 31C24.5 30.7239 24.7239 30.5 25 30.5C25.2761 30.5 25.5 30.7239 25.5 31ZM25.5 39C25.5 39.2761 25.2761 39.5 25 39.5C24.7239 39.5 24.5 39.2761 24.5 39C24.5 38.7239 24.7239 38.5 25 38.5C25.2761 38.5 25.5 38.7239 25.5 39ZM27.5 35C27.5 35.2761 27.2761 35.5 27 35.5C26.7239 35.5 26.5 35.2761 26.5 35C26.5 34.7239 26.7239 34.5 27 34.5C27.2761 34.5 27.5 34.7239 27.5 35ZM29.5 31C29.5 31.2761 29.2761 31.5 29 31.5C28.7239 31.5 28.5 31.2761 28.5 31C28.5 30.7239 28.7239 30.5 29 30.5C29.2761 30.5 29.5 30.7239 29.5 31ZM29.5 39C29.5 39.2761 29.2761 39.5 29 39.5C28.7239 39.5 28.5 39.2761 28.5 39C28.5 38.7239 28.7239 38.5 29 38.5C29.2761 38.5 29.5 38.7239 29.5 39Z" fill="#FF7D4E" stroke="#FF7D4E"/>
<rect x="7" y="8" width="20" height="4" fill="white" stroke="black" stroke-width="2"/>
</svg>
