<svg width="121" height="124" viewBox="0 0 121 124" fill="none" xmlns="http://www.w3.org/2000/svg">
<path d="M8.42969 90.4531C8.42969 92.7031 7.97656 94.3828 7.07031 95.4922C6.16406 96.6016 4.79948 97.1562 2.97656 97.1562C2.28385 97.1562 1.78646 97.1146 1.48438 97.0312V95.4922C1.94792 95.6224 2.41406 95.6875 2.88281 95.6875C4.1224 95.6875 5.04688 95.3542 5.65625 94.6875C6.26562 94.0208 6.59896 92.974 6.65625 91.5469H6.5625C6.25521 92.0156 5.88281 92.3542 5.44531 92.5625C5.01302 92.7708 4.50521 92.875 3.92188 92.875C2.91146 92.875 2.11719 92.5599 1.53906 91.9297C0.960938 91.2995 0.671875 90.4349 0.671875 89.3359C0.671875 88.1432 1.00521 87.1953 1.67188 86.4922C2.34375 85.7839 3.25781 85.4297 4.41406 85.4297C5.22656 85.4297 5.9349 85.6276 6.53906 86.0234C7.14323 86.4193 7.60938 86.9948 7.9375 87.75C8.26562 88.5 8.42969 89.401 8.42969 90.4531ZM4.44531 86.9531C3.8099 86.9531 3.32292 87.1615 2.98438 87.5781C2.64583 87.9896 2.47656 88.5703 2.47656 89.3203C2.47656 89.9714 2.63281 90.4844 2.94531 90.8594C3.26302 91.2292 3.74219 91.4141 4.38281 91.4141C5.0026 91.4141 5.52344 91.2292 5.94531 90.8594C6.36719 90.4896 6.57812 90.0573 6.57812 89.5625C6.57812 89.099 6.48698 88.6667 6.30469 88.2656C6.1276 87.8594 5.8776 87.5391 5.55469 87.3047C5.23177 87.0703 4.86198 86.9531 4.44531 86.9531ZM17.5859 91.2891C17.5859 93.2734 17.2656 94.7474 16.625 95.7109C15.9896 96.6745 15.0156 97.1562 13.7031 97.1562C12.4323 97.1562 11.4688 96.6589 10.8125 95.6641C10.1562 94.6693 9.82812 93.2109 9.82812 91.2891C9.82812 89.2734 10.1458 87.7891 10.7812 86.8359C11.4219 85.8776 12.3958 85.3984 13.7031 85.3984C14.9792 85.3984 15.9453 85.8984 16.6016 86.8984C17.2578 87.8984 17.5859 89.362 17.5859 91.2891ZM11.6875 91.2891C11.6875 92.8464 11.8464 93.9583 12.1641 94.625C12.487 95.2917 13 95.625 13.7031 95.625C14.4062 95.625 14.9193 95.2865 15.2422 94.6094C15.5703 93.9323 15.7344 92.8255 15.7344 91.2891C15.7344 89.7578 15.5703 88.651 15.2422 87.9688C14.9193 87.2812 14.4062 86.9375 13.7031 86.9375C13 86.9375 12.487 87.2734 12.1641 87.9453C11.8464 88.6172 11.6875 89.7318 11.6875 91.2891ZM28.8047 87.0156C27.7318 87.0156 26.888 87.3958 26.2734 88.1562C25.6589 88.9167 25.3516 89.9661 25.3516 91.3047C25.3516 92.7057 25.6458 93.7656 26.2344 94.4844C26.8281 95.2031 27.6849 95.5625 28.8047 95.5625C29.2891 95.5625 29.7578 95.5156 30.2109 95.4219C30.6641 95.3229 31.1354 95.1979 31.625 95.0469V96.6484C30.7292 96.987 29.7135 97.1562 28.5781 97.1562C26.9062 97.1562 25.6224 96.651 24.7266 95.6406C23.8307 94.625 23.3828 93.1745 23.3828 91.2891C23.3828 90.1016 23.599 89.0625 24.0312 88.1719C24.4688 87.2812 25.099 86.599 25.9219 86.125C26.7448 85.651 27.7109 85.4141 28.8203 85.4141C29.987 85.4141 31.0651 85.6589 32.0547 86.1484L31.3828 87.7031C30.9974 87.5208 30.5885 87.362 30.1562 87.2266C29.7292 87.0859 29.2786 87.0156 28.8047 87.0156ZM39.2969 97L38.9297 95.7969H38.8672C38.4505 96.3229 38.0312 96.6823 37.6094 96.875C37.1875 97.0625 36.6458 97.1562 35.9844 97.1562C35.1354 97.1562 34.4714 96.9271 33.9922 96.4688C33.5182 96.0104 33.2812 95.362 33.2812 94.5234C33.2812 93.6328 33.612 92.9609 34.2734 92.5078C34.9349 92.0547 35.9427 91.8073 37.2969 91.7656L38.7891 91.7188V91.2578C38.7891 90.7057 38.6589 90.2943 38.3984 90.0234C38.1432 89.7474 37.7448 89.6094 37.2031 89.6094C36.7604 89.6094 36.3359 89.6745 35.9297 89.8047C35.5234 89.9349 35.1328 90.0885 34.7578 90.2656L34.1641 88.9531C34.6328 88.7083 35.1458 88.5234 35.7031 88.3984C36.2604 88.2682 36.7865 88.2031 37.2812 88.2031C38.3802 88.2031 39.2083 88.4427 39.7656 88.9219C40.3281 89.401 40.6094 90.1536 40.6094 91.1797V97H39.2969ZM36.5625 95.75C37.2292 95.75 37.763 95.5651 38.1641 95.1953C38.5703 94.8203 38.7734 94.2969 38.7734 93.625V92.875L37.6641 92.9219C36.7995 92.9531 36.1693 93.099 35.7734 93.3594C35.3828 93.6146 35.1875 94.0078 35.1875 94.5391C35.1875 94.9245 35.3021 95.224 35.5312 95.4375C35.7604 95.6458 36.1042 95.75 36.5625 95.75ZM47.5547 97.1562C46.4609 97.1562 45.612 96.763 45.0078 95.9766H44.8984C44.9714 96.7057 45.0078 97.1484 45.0078 97.3047V100.844H43.1719V88.3594H44.6562C44.6979 88.5208 44.7839 88.9062 44.9141 89.5156H45.0078C45.5807 88.6406 46.4401 88.2031 47.5859 88.2031C48.6641 88.2031 49.5026 88.5938 50.1016 89.375C50.7057 90.1562 51.0078 91.2526 51.0078 92.6641C51.0078 94.0755 50.7005 95.1771 50.0859 95.9688C49.4766 96.7604 48.6328 97.1562 47.5547 97.1562ZM47.1094 89.7031C46.3802 89.7031 45.8464 89.9167 45.5078 90.3438C45.1745 90.7708 45.0078 91.4531 45.0078 92.3906V92.6641C45.0078 93.7161 45.1745 94.4792 45.5078 94.9531C45.8411 95.4219 46.3854 95.6562 47.1406 95.6562C47.776 95.6562 48.2656 95.3958 48.6094 94.875C48.9531 94.3542 49.125 93.612 49.125 92.6484C49.125 91.6797 48.9531 90.9479 48.6094 90.4531C48.2708 89.9531 47.7708 89.7031 47.1094 89.7031ZM58.9453 94.5391C58.9453 95.3828 58.638 96.0312 58.0234 96.4844C57.4089 96.9323 56.5286 97.1562 55.3828 97.1562C54.2318 97.1562 53.3073 96.9818 52.6094 96.6328V95.0469C53.625 95.5156 54.5703 95.75 55.4453 95.75C56.5755 95.75 57.1406 95.4089 57.1406 94.7266C57.1406 94.5078 57.0781 94.3255 56.9531 94.1797C56.8281 94.0339 56.6224 93.8828 56.3359 93.7266C56.0495 93.5703 55.651 93.3932 55.1406 93.1953C54.1458 92.8099 53.4714 92.4245 53.1172 92.0391C52.7682 91.6536 52.5938 91.1536 52.5938 90.5391C52.5938 89.7995 52.8906 89.2266 53.4844 88.8203C54.0833 88.4089 54.8958 88.2031 55.9219 88.2031C56.9375 88.2031 57.8984 88.4089 58.8047 88.8203L58.2109 90.2031C57.2786 89.8177 56.4948 89.625 55.8594 89.625C54.8906 89.625 54.4062 89.901 54.4062 90.4531C54.4062 90.724 54.5312 90.9531 54.7812 91.1406C55.0365 91.3281 55.5885 91.5859 56.4375 91.9141C57.151 92.1901 57.6693 92.4427 57.9922 92.6719C58.3151 92.901 58.5547 93.1667 58.7109 93.4688C58.8672 93.7656 58.9453 94.1224 58.9453 94.5391ZM67.0312 97L66.7734 95.8672H66.6797C66.4245 96.2682 66.0599 96.5833 65.5859 96.8125C65.1172 97.0417 64.5807 97.1562 63.9766 97.1562C62.9297 97.1562 62.1484 96.8958 61.6328 96.375C61.1172 95.8542 60.8594 95.0651 60.8594 94.0078V88.3594H62.7109V93.6875C62.7109 94.349 62.8464 94.8464 63.1172 95.1797C63.388 95.5078 63.8125 95.6719 64.3906 95.6719C65.1615 95.6719 65.7266 95.4427 66.0859 94.9844C66.4505 94.5208 66.6328 93.7474 66.6328 92.6641V88.3594H68.4766V97H67.0312ZM72.9297 97H71.0938V84.8438H72.9297V97ZM79.3359 97.1562C77.9922 97.1562 76.9401 96.7656 76.1797 95.9844C75.4245 95.1979 75.0469 94.1172 75.0469 92.7422C75.0469 91.3307 75.3984 90.2214 76.1016 89.4141C76.8047 88.6068 77.7708 88.2031 79 88.2031C80.1406 88.2031 81.0417 88.5495 81.7031 89.2422C82.3646 89.9349 82.6953 90.888 82.6953 92.1016V93.0938H76.9375C76.9635 93.9323 77.1901 94.5781 77.6172 95.0312C78.0443 95.4792 78.6458 95.7031 79.4219 95.7031C79.9323 95.7031 80.4062 95.6562 80.8438 95.5625C81.2865 95.4635 81.7604 95.3021 82.2656 95.0781V96.5703C81.8177 96.7839 81.3646 96.9349 80.9062 97.0234C80.4479 97.112 79.9245 97.1562 79.3359 97.1562ZM79 89.5938C78.4167 89.5938 77.9479 89.7786 77.5938 90.1484C77.2448 90.5182 77.0365 91.0573 76.9688 91.7656H80.8906C80.8802 91.0521 80.7083 90.513 80.375 90.1484C80.0417 89.7786 79.5833 89.5938 79 89.5938ZM90.5859 94.5391C90.5859 95.3828 90.2786 96.0312 89.6641 96.4844C89.0495 96.9323 88.1693 97.1562 87.0234 97.1562C85.8724 97.1562 84.9479 96.9818 84.25 96.6328V95.0469C85.2656 95.5156 86.2109 95.75 87.0859 95.75C88.2161 95.75 88.7812 95.4089 88.7812 94.7266C88.7812 94.5078 88.7188 94.3255 88.5938 94.1797C88.4688 94.0339 88.263 93.8828 87.9766 93.7266C87.6901 93.5703 87.2917 93.3932 86.7812 93.1953C85.7865 92.8099 85.112 92.4245 84.7578 92.0391C84.4089 91.6536 84.2344 91.1536 84.2344 90.5391C84.2344 89.7995 84.5312 89.2266 85.125 88.8203C85.724 88.4089 86.5365 88.2031 87.5625 88.2031C88.5781 88.2031 89.5391 88.4089 90.4453 88.8203L89.8516 90.2031C88.9193 89.8177 88.1354 89.625 87.5 89.625C86.5312 89.625 86.0469 89.901 86.0469 90.4531C86.0469 90.724 86.1719 90.9531 86.4219 91.1406C86.6771 91.3281 87.2292 91.5859 88.0781 91.9141C88.7917 92.1901 89.3099 92.4427 89.6328 92.6719C89.9557 92.901 90.1953 93.1667 90.3516 93.4688C90.5078 93.7656 90.5859 94.1224 90.5859 94.5391Z" fill="black"/>
<path opacity="0.5" d="M3.80762 112.896C4.86035 112.896 5.6875 113.158 6.28906 113.682C6.89518 114.201 7.19824 114.914 7.19824 115.821C7.19824 116.856 6.86784 117.667 6.20703 118.255C5.55078 118.843 4.64388 119.137 3.48633 119.137C2.36068 119.137 1.50163 118.957 0.90918 118.597V117.503C1.22819 117.708 1.62467 117.87 2.09863 117.988C2.57259 118.102 3.03971 118.159 3.5 118.159C4.30208 118.159 4.92415 117.97 5.36621 117.592C5.81283 117.214 6.03613 116.667 6.03613 115.951C6.03613 114.557 5.18164 113.859 3.47266 113.859C3.03971 113.859 2.46094 113.925 1.73633 114.058L1.14844 113.682L1.52441 109.006H6.49414V110.052H2.49512L2.24219 113.053C2.76628 112.948 3.28809 112.896 3.80762 112.896ZM15.3193 113.989C15.3193 115.716 15.0459 117.006 14.499 117.858C13.9567 118.711 13.125 119.137 12.0039 119.137C10.9284 119.137 10.1104 118.701 9.5498 117.831C8.98926 116.956 8.70898 115.675 8.70898 113.989C8.70898 112.248 8.98014 110.956 9.52246 110.113C10.0648 109.27 10.8919 108.849 12.0039 108.849C13.0885 108.849 13.9111 109.288 14.4717 110.168C15.0368 111.048 15.3193 112.321 15.3193 113.989ZM9.85742 113.989C9.85742 115.443 10.0283 116.503 10.3701 117.168C10.7119 117.829 11.2565 118.159 12.0039 118.159C12.7604 118.159 13.3073 117.824 13.6445 117.154C13.9863 116.48 14.1572 115.425 14.1572 113.989C14.1572 112.554 13.9863 111.503 13.6445 110.838C13.3073 110.168 12.7604 109.833 12.0039 109.833C11.2565 109.833 10.7119 110.163 10.3701 110.824C10.0283 111.48 9.85742 112.535 9.85742 113.989ZM23.3311 113.989C23.3311 115.716 23.0576 117.006 22.5107 117.858C21.9684 118.711 21.1367 119.137 20.0156 119.137C18.9401 119.137 18.1221 118.701 17.5615 117.831C17.001 116.956 16.7207 115.675 16.7207 113.989C16.7207 112.248 16.9919 110.956 17.5342 110.113C18.0765 109.27 18.9036 108.849 20.0156 108.849C21.1003 108.849 21.9229 109.288 22.4834 110.168C23.0485 111.048 23.3311 112.321 23.3311 113.989ZM17.8691 113.989C17.8691 115.443 18.04 116.503 18.3818 117.168C18.7236 117.829 19.2682 118.159 20.0156 118.159C20.7721 118.159 21.319 117.824 21.6562 117.154C21.998 116.48 22.1689 115.425 22.1689 113.989C22.1689 112.554 21.998 111.503 21.6562 110.838C21.319 110.168 20.7721 109.833 20.0156 109.833C19.2682 109.833 18.7236 110.163 18.3818 110.824C18.04 111.48 17.8691 112.535 17.8691 113.989ZM38.4248 119V114.126C38.4248 113.529 38.2972 113.082 38.042 112.786C37.7868 112.485 37.3903 112.335 36.8525 112.335C36.1462 112.335 35.6243 112.538 35.2871 112.943C34.9499 113.349 34.7812 113.973 34.7812 114.816V119H33.6465V114.126C33.6465 113.529 33.5189 113.082 33.2637 112.786C33.0085 112.485 32.6097 112.335 32.0674 112.335C31.3564 112.335 30.8346 112.549 30.502 112.978C30.1738 113.401 30.0098 114.099 30.0098 115.069V119H28.875V111.508H29.7979L29.9824 112.533H30.0371C30.2513 112.169 30.5521 111.884 30.9395 111.679C31.3314 111.474 31.7689 111.371 32.252 111.371C33.4232 111.371 34.1888 111.795 34.5488 112.643H34.6035C34.8268 112.251 35.1504 111.941 35.5742 111.713C35.998 111.485 36.4811 111.371 37.0234 111.371C37.8711 111.371 38.5046 111.59 38.9238 112.027C39.3477 112.46 39.5596 113.155 39.5596 114.112V119H38.4248ZM48.0361 111.508V112.226L46.6484 112.39C46.776 112.549 46.89 112.759 46.9902 113.019C47.0905 113.274 47.1406 113.563 47.1406 113.887C47.1406 114.62 46.89 115.206 46.3887 115.644C45.8874 116.081 45.1992 116.3 44.3242 116.3C44.1009 116.3 43.8913 116.282 43.6953 116.245C43.2122 116.5 42.9707 116.822 42.9707 117.209C42.9707 117.414 43.055 117.567 43.2236 117.667C43.3923 117.763 43.6816 117.811 44.0918 117.811H45.418C46.2292 117.811 46.8512 117.981 47.2842 118.323C47.7217 118.665 47.9404 119.162 47.9404 119.813C47.9404 120.643 47.6077 121.274 46.9424 121.707C46.277 122.145 45.3063 122.363 44.0303 122.363C43.0505 122.363 42.2939 122.181 41.7607 121.816C41.2321 121.452 40.9678 120.937 40.9678 120.271C40.9678 119.816 41.1136 119.422 41.4053 119.089C41.6969 118.756 42.1071 118.531 42.6357 118.412C42.4443 118.326 42.2826 118.191 42.1504 118.009C42.0228 117.826 41.959 117.615 41.959 117.373C41.959 117.1 42.0319 116.86 42.1777 116.655C42.3236 116.45 42.5537 116.252 42.8682 116.061C42.4808 115.901 42.1641 115.63 41.918 115.247C41.6764 114.864 41.5557 114.427 41.5557 113.935C41.5557 113.114 41.8018 112.483 42.2939 112.041C42.7861 111.594 43.4834 111.371 44.3857 111.371C44.7777 111.371 45.1309 111.417 45.4453 111.508H48.0361ZM42.0615 120.258C42.0615 120.663 42.2324 120.971 42.5742 121.181C42.916 121.39 43.4059 121.495 44.0439 121.495C44.9964 121.495 45.7005 121.352 46.1562 121.064C46.6165 120.782 46.8467 120.397 46.8467 119.909C46.8467 119.504 46.7214 119.221 46.4707 119.062C46.2201 118.907 45.7484 118.829 45.0557 118.829H43.6953C43.1803 118.829 42.7793 118.952 42.4922 119.198C42.2051 119.444 42.0615 119.798 42.0615 120.258ZM42.6768 113.907C42.6768 114.431 42.8249 114.828 43.1211 115.097C43.4173 115.366 43.8298 115.5 44.3584 115.5C45.4658 115.5 46.0195 114.962 46.0195 113.887C46.0195 112.761 45.459 112.198 44.3379 112.198C43.8047 112.198 43.3945 112.342 43.1074 112.629C42.8203 112.916 42.6768 113.342 42.6768 113.907ZM56.6973 119.137C56.2096 119.137 55.763 119.048 55.3574 118.87C54.9564 118.688 54.6191 118.41 54.3457 118.036H54.2637C54.3184 118.474 54.3457 118.888 54.3457 119.28V122.363H53.2109V111.508H54.1338L54.291 112.533H54.3457C54.6374 112.123 54.9769 111.827 55.3643 111.645C55.7516 111.462 56.196 111.371 56.6973 111.371C57.6908 111.371 58.4564 111.711 58.9941 112.39C59.5365 113.069 59.8076 114.021 59.8076 115.247C59.8076 116.478 59.5319 117.435 58.9805 118.118C58.4336 118.797 57.6725 119.137 56.6973 119.137ZM56.5332 112.335C55.7676 112.335 55.2139 112.547 54.8721 112.971C54.5303 113.395 54.3548 114.069 54.3457 114.994V115.247C54.3457 116.3 54.5212 117.054 54.8721 117.51C55.223 117.961 55.7858 118.187 56.5605 118.187C57.2077 118.187 57.7135 117.924 58.0781 117.4C58.4473 116.876 58.6318 116.154 58.6318 115.233C58.6318 114.299 58.4473 113.584 58.0781 113.087C57.7135 112.586 57.1986 112.335 56.5332 112.335ZM62.9316 119H61.7969V108.363H62.9316V119ZM69.9453 119L69.7197 117.934H69.665C69.2913 118.403 68.9176 118.722 68.5439 118.891C68.1748 119.055 67.7122 119.137 67.1562 119.137C66.4134 119.137 65.8301 118.945 65.4062 118.562C64.987 118.18 64.7773 117.635 64.7773 116.929C64.7773 115.416 65.9873 114.623 68.4072 114.55L69.6787 114.509V114.044C69.6787 113.456 69.5511 113.023 69.2959 112.745C69.0452 112.463 68.6419 112.321 68.0859 112.321C67.4616 112.321 66.7552 112.513 65.9668 112.896L65.6182 112.027C65.9873 111.827 66.3906 111.67 66.8281 111.556C67.2702 111.442 67.7122 111.385 68.1543 111.385C69.0475 111.385 69.7083 111.583 70.1367 111.979C70.5697 112.376 70.7861 113.012 70.7861 113.887V119H69.9453ZM67.3818 118.2C68.0882 118.2 68.6419 118.007 69.043 117.619C69.4486 117.232 69.6514 116.689 69.6514 115.992V115.315L68.5166 115.363C67.6143 115.395 66.9626 115.536 66.5615 115.787C66.165 116.033 65.9668 116.418 65.9668 116.942C65.9668 117.353 66.0898 117.665 66.3359 117.879C66.5866 118.093 66.9352 118.2 67.3818 118.2ZM77.9639 116.956C77.9639 117.653 77.7041 118.191 77.1846 118.569C76.665 118.948 75.9359 119.137 74.9971 119.137C74.0036 119.137 73.2288 118.979 72.6729 118.665V117.612C73.0329 117.795 73.418 117.938 73.8281 118.043C74.2428 118.148 74.6416 118.2 75.0244 118.2C75.6169 118.2 76.0726 118.107 76.3916 117.92C76.7106 117.729 76.8701 117.439 76.8701 117.052C76.8701 116.76 76.7425 116.512 76.4873 116.307C76.2367 116.097 75.7445 115.851 75.0107 115.568C74.3135 115.309 73.8167 115.083 73.5205 114.892C73.2288 114.696 73.0101 114.475 72.8643 114.229C72.723 113.982 72.6523 113.688 72.6523 113.347C72.6523 112.736 72.9007 112.255 73.3975 111.904C73.8942 111.549 74.5755 111.371 75.4414 111.371C76.248 111.371 77.0365 111.535 77.8066 111.863L77.4033 112.786C76.6514 112.476 75.9701 112.321 75.3594 112.321C74.8216 112.321 74.416 112.406 74.1426 112.574C73.8691 112.743 73.7324 112.975 73.7324 113.271C73.7324 113.472 73.7826 113.643 73.8828 113.784C73.9876 113.925 74.154 114.06 74.3818 114.188C74.6097 114.315 75.0472 114.5 75.6943 114.741C76.583 115.065 77.1823 115.391 77.4922 115.719C77.8066 116.047 77.9639 116.459 77.9639 116.956ZM82.2363 118.2C82.4368 118.2 82.6305 118.187 82.8174 118.159C83.0042 118.127 83.1523 118.095 83.2617 118.063V118.932C83.1387 118.991 82.9564 119.039 82.7148 119.075C82.4779 119.116 82.2637 119.137 82.0723 119.137C80.623 119.137 79.8984 118.373 79.8984 116.847V112.39H78.8252V111.843L79.8984 111.371L80.377 109.771H81.0332V111.508H83.207V112.39H81.0332V116.799C81.0332 117.25 81.1403 117.596 81.3545 117.838C81.5687 118.079 81.8626 118.2 82.2363 118.2ZM85.9004 119H84.7656V111.508H85.9004V119ZM84.6699 109.478C84.6699 109.218 84.7337 109.029 84.8613 108.91C84.9889 108.787 85.1484 108.726 85.3398 108.726C85.5221 108.726 85.6794 108.787 85.8115 108.91C85.9437 109.033 86.0098 109.222 86.0098 109.478C86.0098 109.733 85.9437 109.924 85.8115 110.052C85.6794 110.175 85.5221 110.236 85.3398 110.236C85.1484 110.236 84.9889 110.175 84.8613 110.052C84.7337 109.924 84.6699 109.733 84.6699 109.478ZM91.3008 119.137C90.2161 119.137 89.3753 118.804 88.7783 118.139C88.1859 117.469 87.8896 116.523 87.8896 115.302C87.8896 114.049 88.1904 113.08 88.792 112.396C89.3981 111.713 90.2594 111.371 91.376 111.371C91.736 111.371 92.096 111.41 92.4561 111.487C92.8161 111.565 93.0986 111.656 93.3037 111.761L92.9551 112.725C92.7044 112.624 92.431 112.542 92.1348 112.479C91.8385 112.41 91.5765 112.376 91.3486 112.376C89.8265 112.376 89.0654 113.347 89.0654 115.288C89.0654 116.209 89.25 116.915 89.6191 117.407C89.9928 117.899 90.5443 118.146 91.2734 118.146C91.8978 118.146 92.5381 118.011 93.1943 117.742V118.747C92.693 119.007 92.0618 119.137 91.3008 119.137ZM101.609 119.137C100.525 119.137 99.6839 118.804 99.0869 118.139C98.4945 117.469 98.1982 116.523 98.1982 115.302C98.1982 114.049 98.499 113.08 99.1006 112.396C99.7067 111.713 100.568 111.371 101.685 111.371C102.045 111.371 102.405 111.41 102.765 111.487C103.125 111.565 103.407 111.656 103.612 111.761L103.264 112.725C103.013 112.624 102.74 112.542 102.443 112.479C102.147 112.41 101.885 112.376 101.657 112.376C100.135 112.376 99.374 113.347 99.374 115.288C99.374 116.209 99.5586 116.915 99.9277 117.407C100.301 117.899 100.853 118.146 101.582 118.146C102.206 118.146 102.847 118.011 103.503 117.742V118.747C103.002 119.007 102.37 119.137 101.609 119.137ZM109.895 119L109.669 117.934H109.614C109.241 118.403 108.867 118.722 108.493 118.891C108.124 119.055 107.661 119.137 107.105 119.137C106.363 119.137 105.779 118.945 105.355 118.562C104.936 118.18 104.727 117.635 104.727 116.929C104.727 115.416 105.937 114.623 108.356 114.55L109.628 114.509V114.044C109.628 113.456 109.5 113.023 109.245 112.745C108.994 112.463 108.591 112.321 108.035 112.321C107.411 112.321 106.704 112.513 105.916 112.896L105.567 112.027C105.937 111.827 106.34 111.67 106.777 111.556C107.219 111.442 107.661 111.385 108.104 111.385C108.997 111.385 109.658 111.583 110.086 111.979C110.519 112.376 110.735 113.012 110.735 113.887V119H109.895ZM107.331 118.2C108.037 118.2 108.591 118.007 108.992 117.619C109.398 117.232 109.601 116.689 109.601 115.992V115.315L108.466 115.363C107.563 115.395 106.912 115.536 106.511 115.787C106.114 116.033 105.916 116.418 105.916 116.942C105.916 117.353 106.039 117.665 106.285 117.879C106.536 118.093 106.884 118.2 107.331 118.2ZM118.207 119V114.153C118.207 113.543 118.068 113.087 117.79 112.786C117.512 112.485 117.077 112.335 116.484 112.335C115.701 112.335 115.126 112.547 114.762 112.971C114.397 113.395 114.215 114.094 114.215 115.069V119H113.08V111.508H114.003L114.188 112.533H114.242C114.475 112.164 114.8 111.879 115.22 111.679C115.639 111.474 116.106 111.371 116.621 111.371C117.523 111.371 118.202 111.59 118.658 112.027C119.114 112.46 119.342 113.155 119.342 114.112V119H118.207Z" fill="black"/>
<rect x="39" y="36" width="10" height="22" rx="5" fill="white" stroke="black" stroke-width="2"/>
<rect x="40" y="46" width="8" height="2" fill="black"/>
<path d="M8 2H26C27.6569 2 29 3.34315 29 5V7C29 7.55228 28.5523 8 28 8H6C5.44772 8 5 7.55229 5 7V5C5 3.34315 6.34315 2 8 2Z" fill="white" stroke="black" stroke-width="2"/>
<rect x="1" y="12" width="32" height="47" rx="6" fill="white" stroke="black" stroke-width="2"/>
<path d="M5.5 31C5.5 31.2761 5.27611 31.5 5 31.5C4.72389 31.5 4.5 31.2761 4.5 31C4.5 30.7239 4.72389 30.5 5 30.5C5.27611 30.5 5.5 30.7239 5.5 31ZM5.5 39C5.5 39.2761 5.27611 39.5 5 39.5C4.72389 39.5 4.5 39.2761 4.5 39C4.5 38.7239 4.72389 38.5 5 38.5C5.27611 38.5 5.5 38.7239 5.5 39ZM7.5 35C7.5 35.2761 7.27611 35.5 7 35.5C6.72389 35.5 6.5 35.2761 6.5 35C6.5 34.7239 6.72389 34.5 7 34.5C7.27611 34.5 7.5 34.7239 7.5 35ZM13.5 31C13.5 31.2761 13.2761 31.5 13 31.5C12.7239 31.5 12.5 31.2761 12.5 31C12.5 30.7239 12.7239 30.5 13 30.5C13.2761 30.5 13.5 30.7239 13.5 31ZM13.5 39C13.5 39.2761 13.2761 39.5 13 39.5C12.7239 39.5 12.5 39.2761 12.5 39C12.5 38.7239 12.7239 38.5 13 38.5C13.2761 38.5 13.5 38.7239 13.5 39ZM15.5 35C15.5 35.2761 15.2761 35.5 15 35.5C14.7239 35.5 14.5 35.2761 14.5 35C14.5 34.7239 14.7239 34.5 15 34.5C15.2761 34.5 15.5 34.7239 15.5 35ZM21.5 31C21.5 31.2761 21.2761 31.5 21 31.5C20.7239 31.5 20.5 31.2761 20.5 31C20.5 30.7239 20.7239 30.5 21 30.5C21.2761 30.5 21.5 30.7239 21.5 31ZM21.5 39C21.5 39.2761 21.2761 39.5 21 39.5C20.7239 39.5 20.5 39.2761 20.5 39C20.5 38.7239 20.7239 38.5 21 38.5C21.2761 38.5 21.5 38.7239 21.5 39ZM23.5 35C23.5 35.2761 23.2761 35.5 23 35.5C22.7239 35.5 22.5 35.2761 22.5 35C22.5 34.7239 22.7239 34.5 23 34.5C23.2761 34.5 23.5 34.7239 23.5 35ZM9.5 31C9.5 31.2761 9.27611 31.5 9 31.5C8.72389 31.5 8.5 31.2761 8.5 31C8.5 30.7239 8.72389 30.5 9 30.5C9.27611 30.5 9.5 30.7239 9.5 31ZM9.5 39C9.5 39.2761 9.27611 39.5 9 39.5C8.72389 39.5 8.5 39.2761 8.5 39C8.5 38.7239 8.72389 38.5 9 38.5C9.27611 38.5 9.5 38.7239 9.5 39ZM11.5 35C11.5 35.2761 11.2761 35.5 11 35.5C10.7239 35.5 10.5 35.2761 10.5 35C10.5 34.7239 10.7239 34.5 11 34.5C11.2761 34.5 11.5 34.7239 11.5 35ZM17.5 31C17.5 31.2761 17.2761 31.5 17 31.5C16.7239 31.5 16.5 31.2761 16.5 31C16.5 30.7239 16.7239 30.5 17 30.5C17.2761 30.5 17.5 30.7239 17.5 31ZM17.5 39C17.5 39.2761 17.2761 39.5 17 39.5C16.7239 39.5 16.5 39.2761 16.5 39C16.5 38.7239 16.7239 38.5 17 38.5C17.2761 38.5 17.5 38.7239 17.5 39ZM19.5 35C19.5 35.2761 19.2761 35.5 19 35.5C18.7239 35.5 18.5 35.2761 18.5 35C18.5 34.7239 18.7239 34.5 19 34.5C19.2761 34.5 19.5 34.7239 19.5 35ZM25.5 31C25.5 31.2761 25.2761 31.5 25 31.5C24.7239 31.5 24.5 31.2761 24.5 31C24.5 30.7239 24.7239 30.5 25 30.5C25.2761 30.5 25.5 30.7239 25.5 31ZM25.5 39C25.5 39.2761 25.2761 39.5 25 39.5C24.7239 39.5 24.5 39.2761 24.5 39C24.5 38.7239 24.7239 38.5 25 38.5C25.2761 38.5 25.5 38.7239 25.5 39ZM27.5 35C27.5 35.2761 27.2761 35.5 27 35.5C26.7239 35.5 26.5 35.2761 26.5 35C26.5 34.7239 26.7239 34.5 27 34.5C27.2761 34.5 27.5 34.7239 27.5 35ZM29.5 31C29.5 31.2761 29.2761 31.5 29 31.5C28.7239 31.5 28.5 31.2761 28.5 31C28.5 30.7239 28.7239 30.5 29 30.5C29.2761 30.5 29.5 30.7239 29.5 31ZM29.5 39C29.5 39.2761 29.2761 39.5 29 39.5C28.7239 39.5 28.5 39.2761 28.5 39C28.5 38.7239 28.7239 38.5 29 38.5C29.2761 38.5 29.5 38.7239 29.5 39Z" fill="#FF7D4E" stroke="#FF7D4E"/>
<rect x="7" y="8" width="20" height="4" fill="white" stroke="black" stroke-width="2"/>
</svg>
