<svg width="42" height="50" viewBox="0 0 42 50" fill="none" xmlns="http://www.w3.org/2000/svg">
<path d="M21 7.66871C17.873 7.66871 15.3285 10.2147 15.3285 13.3436V21.1656H7.66423V13.3436C7.66423 5.9816 13.6423 0 21 0C28.3577 0 34.3358 5.9816 34.3358 13.3436V21.1656H26.6715V13.3436C26.6715 10.2147 24.127 7.66871 21 7.66871Z" fill="white"/>
<path d="M26.6715 21.1656H15.3285V28.9877C15.3285 32.1166 17.873 34.6626 21 34.6626C24.127 34.6626 26.6715 32.1166 26.6715 28.9877V21.1656Z" fill="white"/>
<path d="M34.3358 21.1656H42V28.9877C42 40.5828 32.5883 50 21 50C9.41168 50 0 40.5828 0 28.9877V21.1656H7.66423V28.9877C7.66423 36.3497 13.6423 42.3313 21 42.3313C28.3577 42.3313 34.3358 36.3497 34.3358 28.9877V21.1656Z" fill="white"/>
</svg>
