<svg width="191" height="60" fill="none" xmlns="http://www.w3.org/2000/svg"><path d="M78.43 18.453c0 2.25-.453 3.93-1.36 5.04-.906 1.109-2.27 1.663-4.093 1.663-.693 0-1.19-.041-1.493-.125v-1.539c.464.13.93.195 1.399.195 1.24 0 2.164-.333 2.773-1 .61-.666.943-1.713 1-3.14h-.094c-.307.469-.68.807-1.117 1.015-.432.209-.94.313-1.523.313-1.01 0-1.805-.315-2.383-.945-.578-.63-.867-1.495-.867-2.594 0-1.193.333-2.14 1-2.844.672-.708 1.586-1.062 2.742-1.062.813 0 1.52.198 2.125.593.604.396 1.07.972 1.398 1.727.329.75.493 1.651.493 2.703zm-3.985-3.5c-.635 0-1.122.209-1.46.625-.34.412-.508.992-.508 1.742 0 .651.156 1.164.468 1.54.318.37.797.554 1.438.554.62 0 1.14-.185 1.562-.555.422-.37.633-.802.633-1.297 0-.463-.091-.895-.273-1.296a2.284 2.284 0 00-.75-.961 1.84 1.84 0 00-1.11-.352zm13.14 4.336c0 1.984-.32 3.458-.96 4.422-.635.963-1.61 1.445-2.922 1.445-1.27 0-2.234-.497-2.89-1.492-.657-.995-.985-2.453-.985-4.375 0-2.016.318-3.5.953-4.453.64-.958 1.615-1.438 2.922-1.438 1.276 0 2.242.5 2.899 1.5.656 1 .984 2.464.984 4.391zm-5.897 0c0 1.557.158 2.67.476 3.336.323.667.836 1 1.54 1 .702 0 1.215-.338 1.538-1.016.328-.677.492-1.784.492-3.32 0-1.531-.164-2.638-.492-3.32-.323-.688-.836-1.031-1.539-1.031s-1.216.335-1.539 1.007c-.318.672-.477 1.787-.477 3.344zm17.117-4.273c-1.073 0-1.917.38-2.532 1.14-.614.76-.921 1.81-.921 3.149 0 1.4.294 2.46.882 3.18.594.718 1.45 1.078 2.57 1.078.485 0 .954-.047 1.407-.141a17.49 17.49 0 001.414-.375v1.601c-.896.339-1.912.508-3.047.508-1.672 0-2.956-.505-3.851-1.515-.896-1.016-1.344-2.466-1.344-4.352 0-1.187.216-2.227.648-3.117.438-.89 1.068-1.573 1.89-2.047.824-.474 1.79-.71 2.9-.71 1.166 0 2.244.244 3.234.733l-.672 1.555a9.518 9.518 0 00-1.227-.476 4.289 4.289 0 00-1.351-.211zM109.297 25l-.367-1.203h-.063c-.416.526-.836.885-1.258 1.078-.421.188-.963.281-1.625.281-.849 0-1.513-.229-1.992-.687-.474-.459-.711-1.107-.711-1.946 0-.89.331-1.562.992-2.015.662-.453 1.67-.7 3.024-.742l1.492-.047v-.461c0-.552-.13-.964-.391-1.235-.255-.276-.653-.414-1.195-.414-.443 0-.867.065-1.273.196a9.56 9.56 0 00-1.172.46l-.594-1.312c.469-.245.982-.43 1.539-.555a6.944 6.944 0 011.578-.195c1.099 0 1.927.24 2.485.719.562.479.843 1.232.843 2.258V25h-1.312zm-2.735-1.25c.667 0 1.201-.185 1.602-.555.406-.375.609-.898.609-1.57v-.75l-1.109.047c-.865.031-1.495.177-1.891.437-.39.256-.585.649-.585 1.18 0 .385.114.685.343.898.229.209.573.313 1.031.313zm10.993 1.406c-1.094 0-1.943-.393-2.547-1.18h-.11c.073.73.11 1.172.11 1.329v3.539h-1.836V16.359h1.484c.042.162.128.547.258 1.157h.094c.573-.875 1.432-1.313 2.578-1.313 1.078 0 1.917.39 2.516 1.172.604.781.906 1.878.906 3.29 0 1.41-.307 2.512-.922 3.304-.609.791-1.453 1.187-2.531 1.187zm-.446-7.453c-.729 0-1.263.214-1.601.64-.334.428-.5 1.11-.5 2.048v.273c0 1.052.166 1.815.5 2.29.333.468.877.702 1.633.702.635 0 1.125-.26 1.468-.781.344-.52.516-1.263.516-2.227 0-.968-.172-1.7-.516-2.195-.338-.5-.838-.75-1.5-.75zm11.836 4.836c0 .844-.307 1.492-.922 1.945-.614.448-1.494.672-2.64.672-1.151 0-2.076-.174-2.774-.523v-1.586c1.016.469 1.961.703 2.836.703 1.131 0 1.696-.341 1.696-1.023a.811.811 0 00-.188-.547c-.125-.146-.331-.297-.617-.453a10.678 10.678 0 00-1.195-.532c-.995-.385-1.67-.77-2.024-1.156-.349-.385-.523-.885-.523-1.5 0-.74.297-1.312.89-1.719.599-.411 1.412-.617 2.438-.617 1.016 0 1.976.206 2.883.617l-.594 1.383c-.932-.385-1.716-.578-2.352-.578-.968 0-1.453.276-1.453.828 0 .271.125.5.375.688.255.187.808.445 1.657.773.713.276 1.231.529 1.554.758.323.229.563.495.719.797.156.297.234.653.234 1.07zM137.031 25l-.258-1.133h-.093c-.256.401-.62.716-1.094.945-.469.23-1.005.344-1.609.344-1.047 0-1.829-.26-2.344-.781-.516-.52-.774-1.31-.774-2.367v-5.649h1.852v5.328c0 .662.135 1.16.406 1.493.271.328.695.492 1.274.492.77 0 1.336-.23 1.695-.688.365-.463.547-1.237.547-2.32V16.36h1.844V25h-1.446zm5.899 0h-1.836V12.844h1.836V25zm6.406.156c-1.344 0-2.396-.39-3.156-1.172-.756-.786-1.133-1.867-1.133-3.242 0-1.411.351-2.52 1.055-3.328.703-.807 1.669-1.21 2.898-1.21 1.141 0 2.042.345 2.703 1.038.662.693.992 1.646.992 2.86v.992h-5.757c.026.838.252 1.484.679 1.937.427.448 1.029.672 1.805.672.51 0 .984-.047 1.422-.14a7.7 7.7 0 001.422-.485v1.492a5.629 5.629 0 01-1.36.453 8.329 8.329 0 01-1.57.133zM149 17.594c-.583 0-1.052.185-1.406.554-.349.37-.558.91-.625 1.618h3.922c-.011-.714-.183-1.253-.516-1.618-.333-.37-.792-.554-1.375-.554zm11.586 4.945c0 .844-.307 1.492-.922 1.945-.615.448-1.495.672-2.641.672-1.151 0-2.075-.174-2.773-.523v-1.586c1.016.469 1.961.703 2.836.703 1.13 0 1.695-.341 1.695-1.023a.81.81 0 00-.187-.547c-.125-.146-.331-.297-.617-.453a10.624 10.624 0 00-1.196-.532c-.995-.385-1.669-.77-2.023-1.156-.349-.385-.524-.885-.524-1.5 0-.74.297-1.312.891-1.719.599-.411 1.411-.617 2.437-.617 1.016 0 1.977.206 2.883.617l-.593 1.383c-.933-.385-1.717-.578-2.352-.578-.969 0-1.453.276-1.453.828 0 .271.125.5.375.688.255.187.807.445 1.656.773.714.276 1.232.529 1.555.758.323.229.562.495.719.797.156.297.234.653.234 1.07z" fill="#000"/><path opacity=".5" d="M73.808 40.895c1.052 0 1.88.263 2.481.787.606.52.91 1.232.91 2.14 0 1.034-.331 1.845-.992 2.433-.656.588-1.563.882-2.72.882-1.126 0-1.985-.18-2.578-.54v-1.094c.32.205.716.367 1.19.485.474.114.94.171 1.401.171.802 0 1.424-.189 1.866-.567.447-.378.67-.925.67-1.64 0-1.395-.854-2.093-2.563-2.093-.433 0-1.012.066-1.737.199l-.588-.376.376-4.676h4.97v1.046h-3.999l-.253 3a7.966 7.966 0 011.566-.157zm11.511 1.094c0 1.728-.273 3.017-.82 3.87-.542.852-1.374 1.278-2.495 1.278-1.076 0-1.894-.435-2.454-1.306-.56-.875-.841-2.156-.841-3.842 0-1.74.271-3.033.813-3.876.543-.843 1.37-1.264 2.482-1.264 1.084 0 1.907.44 2.468 1.319.565.88.847 2.153.847 3.821zm-5.462 0c0 1.454.171 2.514.513 3.179.342.66.886.991 1.634.991.756 0 1.303-.335 1.64-1.005.342-.674.513-1.73.513-3.165s-.17-2.486-.513-3.151c-.337-.67-.884-1.005-1.64-1.005-.748 0-1.292.33-1.634.991-.342.657-.513 1.712-.513 3.165zm13.474 0c0 1.728-.273 3.017-.82 3.87-.543.852-1.374 1.278-2.495 1.278-1.076 0-1.894-.435-2.455-1.306-.56-.875-.84-2.156-.84-3.842 0-1.74.27-3.033.813-3.876.542-.843 1.37-1.264 2.482-1.264 1.084 0 1.907.44 2.467 1.319.566.88.848 2.153.848 3.821zm-5.462 0c0 1.454.171 2.514.513 3.179.342.66.886.991 1.634.991.756 0 1.303-.335 1.64-1.005.342-.674.513-1.73.513-3.165s-.171-2.486-.513-3.151c-.337-.67-.884-1.005-1.64-1.005-.748 0-1.292.33-1.634.991-.342.657-.513 1.712-.513 3.165zM108.425 47v-4.874c0-.597-.128-1.044-.383-1.34-.255-.3-.652-.451-1.189-.451-.707 0-1.229.203-1.566.608-.337.406-.506 1.03-.506 1.873V47h-1.135v-4.874c0-.597-.127-1.044-.382-1.34-.256-.3-.654-.451-1.197-.451-.711 0-1.232.214-1.565.642-.328.424-.492 1.122-.492 2.092V47h-1.135v-7.492h.923l.184 1.025h.055c.214-.364.515-.65.902-.854a2.79 2.79 0 011.313-.308c1.171 0 1.937.424 2.297 1.272h.055c.223-.392.546-.702.97-.93a3.012 3.012 0 011.449-.342c.848 0 1.482.219 1.901.656.424.433.636 1.128.636 2.085V47h-1.135zm9.611-7.492v.718l-1.388.164c.128.16.242.369.342.629.1.255.151.544.151.868 0 .733-.251 1.32-.752 1.757-.502.437-1.19.656-2.065.656-.223 0-.433-.018-.629-.055-.483.255-.724.577-.724.964 0 .205.084.358.253.458.168.096.458.143.868.143h1.326c.811 0 1.433.171 1.866.513.438.342.656.839.656 1.49 0 .83-.332 1.461-.998 1.894-.665.438-1.636.656-2.912.656-.98 0-1.736-.182-2.269-.547-.529-.364-.793-.88-.793-1.544 0-.456.146-.85.437-1.183.292-.333.702-.558 1.231-.677a1.215 1.215 0 01-.486-.403 1.085 1.085 0 01-.191-.636c0-.273.073-.513.219-.718.146-.205.376-.403.69-.595a2.043 2.043 0 01-.95-.813 2.403 2.403 0 01-.362-1.312c0-.82.246-1.452.738-1.894.492-.447 1.189-.67 2.092-.67.392 0 .745.046 1.059.137h2.591zm-5.974 8.75c0 .405.17.713.512.923.342.21.832.314 1.47.314.952 0 1.657-.143 2.112-.43.461-.283.691-.668.691-1.156 0-.405-.126-.688-.376-.847-.251-.155-.723-.233-1.415-.233h-1.361c-.515 0-.916.123-1.203.37-.287.245-.43.599-.43 1.059zm.615-6.35c0 .523.148.92.444 1.189.296.269.709.403 1.237.403 1.108 0 1.662-.538 1.662-1.613 0-1.126-.561-1.689-1.682-1.689-.533 0-.943.144-1.231.43-.287.288-.43.714-.43 1.28zm14.02 5.229c-.487 0-.934-.09-1.34-.267a2.542 2.542 0 01-1.011-.834h-.082c.054.438.082.852.082 1.244v3.083h-1.135V39.508h.923l.157 1.025h.055c.291-.41.631-.706 1.018-.889a3.1 3.1 0 011.333-.273c.994 0 1.759.34 2.297 1.019.542.679.814 1.631.814 2.857 0 1.23-.276 2.188-.828 2.871-.546.68-1.307 1.019-2.283 1.019zm-.164-6.802c-.765 0-1.319.212-1.661.636-.342.424-.517 1.098-.526 2.023v.253c0 1.053.175 1.807.526 2.263.351.45.914.677 1.689.677.647 0 1.153-.262 1.517-.787.369-.524.554-1.246.554-2.167 0-.934-.185-1.65-.554-2.146-.364-.501-.879-.752-1.545-.752zM132.932 47h-1.135V36.363h1.135V47zm7.013 0l-.225-1.066h-.055c-.374.469-.747.788-1.121.957-.369.164-.832.246-1.388.246-.743 0-1.326-.192-1.75-.575-.419-.382-.629-.927-.629-1.633 0-1.513 1.21-2.306 3.63-2.38l1.272-.04v-.465c0-.588-.128-1.02-.383-1.299-.251-.282-.654-.424-1.21-.424-.624 0-1.331.192-2.119.575l-.349-.869a5.38 5.38 0 011.21-.471 5.29 5.29 0 011.326-.171c.894 0 1.554.198 1.983.595.433.396.649 1.032.649 1.907V47h-.841zm-2.563-.8c.706 0 1.26-.194 1.661-.58.406-.388.608-.93.608-1.628v-.677l-1.134.048c-.903.032-1.554.173-1.955.424-.397.246-.595.631-.595 1.155 0 .41.123.723.369.937.251.214.599.321 1.046.321zm10.582-1.244c0 .697-.26 1.235-.779 1.613-.52.379-1.249.568-2.188.568-.993 0-1.768-.157-2.324-.472v-1.053c.36.183.745.326 1.155.431.415.105.814.157 1.196.157.593 0 1.049-.093 1.368-.28.319-.192.478-.48.478-.868 0-.292-.127-.54-.383-.745-.25-.21-.743-.456-1.476-.739-.698-.26-1.194-.485-1.49-.676a2.11 2.11 0 01-.657-.664 1.745 1.745 0 01-.212-.881c0-.611.249-1.092.745-1.443.497-.355 1.179-.533 2.044-.533.807 0 1.595.164 2.366.492l-.404.923c-.752-.31-1.433-.465-2.044-.465-.537 0-.943.085-1.216.253-.274.169-.411.401-.411.698 0 .2.051.37.151.512.105.142.271.276.499.404.228.127.665.312 1.312.553.889.324 1.488.65 1.798.978.315.328.472.74.472 1.237zm4.272 1.244c.201 0 .395-.014.581-.04.187-.033.335-.065.445-.096v.868a2.013 2.013 0 01-.547.143 3.802 3.802 0 01-.643.062c-1.449 0-2.174-.764-2.174-2.29V40.39h-1.073v-.547l1.073-.472.479-1.6h.656v1.737h2.174v.882h-2.174v4.409c0 .451.107.797.321 1.039.215.241.509.362.882.362zm3.664.8h-1.134v-7.492h1.134V47zm-1.23-9.523c0-.26.064-.448.191-.567a.663.663 0 01.479-.184c.182 0 .339.061.472.184.132.123.198.312.198.568 0 .255-.066.446-.198.574a.671.671 0 01-.472.184.663.663 0 01-.479-.184c-.127-.128-.191-.32-.191-.575zm6.631 9.66c-1.085 0-1.926-.333-2.523-.998-.592-.67-.888-1.616-.888-2.837 0-1.254.3-2.222.902-2.905.606-.684 1.467-1.026 2.584-1.026.36 0 .72.039 1.08.116.36.078.643.169.848.274l-.349.964a5.106 5.106 0 00-.82-.247 3.554 3.554 0 00-.786-.102c-1.523 0-2.284.97-2.284 2.912 0 .92.185 1.627.554 2.12.374.491.925.737 1.654.737.625 0 1.265-.134 1.921-.403v1.005c-.501.26-1.132.39-1.893.39zm10.308 0c-1.084 0-1.925-.333-2.522-.998-.593-.67-.889-1.616-.889-2.837 0-1.254.301-2.222.903-2.905.606-.684 1.467-1.026 2.584-1.026.36 0 .72.039 1.08.116.36.078.642.169.847.274l-.348.964a5.088 5.088 0 00-.821-.247 3.546 3.546 0 00-.786-.102c-1.522 0-2.283.97-2.283 2.912 0 .92.185 1.627.554 2.12.373.491.925.737 1.654.737.624 0 1.265-.134 1.921-.403v1.005c-.501.26-1.133.39-1.894.39zm8.286-.137l-.226-1.066h-.055c-.373.469-.747.788-1.121.957-.369.164-.832.246-1.388.246-.742 0-1.326-.192-1.75-.575-.419-.382-.628-.927-.628-1.633 0-1.513 1.21-2.306 3.629-2.38l1.272-.04v-.465c0-.588-.128-1.02-.383-1.299-.251-.282-.654-.424-1.21-.424-.624 0-1.331.192-2.119.575l-.349-.869c.37-.2.773-.357 1.21-.471a5.293 5.293 0 011.327-.171c.893 0 1.554.198 1.982.595.433.396.649 1.032.649 1.907V47h-.84zm-2.564-.8c.706 0 1.26-.194 1.661-.58.406-.388.609-.93.609-1.628v-.677l-1.135.048c-.903.032-1.554.173-1.955.424-.397.246-.595.631-.595 1.155 0 .41.123.723.369.937.251.214.599.321 1.046.321zm10.876.8v-4.847c0-.61-.139-1.066-.417-1.367-.278-.3-.713-.451-1.306-.451-.783 0-1.358.212-1.722.636-.365.424-.547 1.123-.547 2.098V47h-1.135v-7.492h.923l.185 1.025h.054c.233-.369.558-.654.978-.854a3.144 3.144 0 011.401-.308c.902 0 1.581.219 2.037.656.456.433.684 1.128.684 2.085V47h-1.135z" fill="#000"/><rect x="39" y="36" width="10" height="22" rx="5" fill="#fff" stroke="#000" stroke-width="2"/><path fill="#000" d="M40 46h8v2h-8z"/><path d="M5 5a3 3 0 013-3h18a3 3 0 013 3v2a1 1 0 01-1 1H6a1 1 0 01-1-1V5z" fill="#fff" stroke="#000" stroke-width="2"/><rect x="1" y="12" width="32" height="47" rx="6" fill="#fff" stroke="#000" stroke-width="2"/><path d="M5.5 31a.5.5 0 11-1 0 .5.5 0 011 0zm0 8a.5.5 0 11-1 0 .5.5 0 011 0zm2-4a.5.5 0 11-1 0 .5.5 0 011 0zm6-4a.5.5 0 11-1 0 .5.5 0 011 0zm0 8a.5.5 0 11-1 0 .5.5 0 011 0zm2-4a.5.5 0 11-1 0 .5.5 0 011 0zm6-4a.5.5 0 11-1 0 .5.5 0 011 0zm0 8a.5.5 0 11-1 0 .5.5 0 011 0zm2-4a.5.5 0 11-1 0 .5.5 0 011 0zm-14-4a.5.5 0 11-1 0 .5.5 0 011 0zm0 8a.5.5 0 11-1 0 .5.5 0 011 0zm2-4a.5.5 0 11-1 0 .5.5 0 011 0zm6-4a.5.5 0 11-1 0 .5.5 0 011 0zm0 8a.5.5 0 11-1 0 .5.5 0 011 0zm2-4a.5.5 0 11-1 0 .5.5 0 011 0zm6-4a.5.5 0 11-1 0 .5.5 0 011 0zm0 8a.5.5 0 11-1 0 .5.5 0 011 0zm2-4a.5.5 0 11-1 0 .5.5 0 011 0zm2-4a.5.5 0 11-1 0 .5.5 0 011 0zm0 8a.5.5 0 11-1 0 .5.5 0 011 0z" fill="#FF7D4E" stroke="#FF7D4E"/><path fill="#fff" stroke="#000" stroke-width="2" d="M7 8h20v4H7z"/></svg>