<svg width="121" height="124" fill="none" xmlns="http://www.w3.org/2000/svg"><path d="M8.43 90.453c0 2.25-.453 3.93-1.36 5.04-.906 1.109-2.27 1.663-4.093 1.663-.693 0-1.19-.041-1.493-.125v-1.539c.464.13.93.195 1.399.195 1.24 0 2.164-.333 2.773-1 .61-.666.943-1.713 1-3.14h-.093c-.308.469-.68.807-1.118 1.016-.432.208-.94.312-1.523.312-1.01 0-1.805-.315-2.383-.945-.578-.63-.867-1.495-.867-2.594 0-1.193.333-2.14 1-2.844.672-.708 1.586-1.062 2.742-1.062.813 0 1.52.198 2.125.593.604.396 1.07.972 1.399 1.727.328.75.492 1.651.492 2.703zm-3.985-3.5c-.635 0-1.122.209-1.46.625-.34.412-.508.992-.508 1.742 0 .651.156 1.164.468 1.54.318.37.797.554 1.438.554.62 0 1.14-.185 1.562-.555.422-.37.633-.802.633-1.296a3.1 3.1 0 00-.273-1.297 2.284 2.284 0 00-.75-.961 1.84 1.84 0 00-1.11-.352zm13.14 4.336c0 1.984-.32 3.458-.96 4.422-.635.963-1.61 1.445-2.922 1.445-1.27 0-2.234-.497-2.89-1.492-.657-.995-.985-2.453-.985-4.375 0-2.016.318-3.5.953-4.453.64-.958 1.615-1.438 2.922-1.438 1.276 0 2.242.5 2.899 1.5.656 1 .984 2.464.984 4.391zm-5.898 0c0 1.557.16 2.67.477 3.336.323.667.836 1 1.54 1 .702 0 1.215-.338 1.538-1.016.328-.677.492-1.783.492-3.32 0-1.531-.164-2.638-.492-3.32-.323-.688-.836-1.031-1.539-1.031s-1.216.335-1.539 1.007c-.318.672-.476 1.787-.476 3.344zm17.118-4.273c-1.073 0-1.917.38-2.532 1.14-.614.76-.921 1.81-.921 3.149 0 1.4.294 2.46.882 3.18.594.718 1.45 1.078 2.57 1.078.485 0 .954-.047 1.407-.141.453-.1.924-.224 1.414-.375v1.601c-.896.339-1.912.508-3.047.508-1.672 0-2.956-.505-3.851-1.515-.896-1.016-1.344-2.467-1.344-4.352 0-1.187.216-2.227.648-3.117.438-.89 1.068-1.573 1.89-2.047.824-.474 1.79-.71 2.9-.71 1.166 0 2.244.244 3.234.733l-.672 1.555a9.518 9.518 0 00-1.227-.476 4.291 4.291 0 00-1.351-.211zM39.297 97l-.367-1.203h-.063c-.416.526-.836.885-1.258 1.078-.422.188-.963.281-1.625.281-.849 0-1.513-.229-1.992-.687-.474-.459-.71-1.107-.71-1.946 0-.89.33-1.562.991-2.015.662-.453 1.67-.7 3.024-.742l1.492-.047v-.461c0-.552-.13-.964-.39-1.235-.256-.276-.654-.414-1.196-.414-.443 0-.867.066-1.273.196a9.54 9.54 0 00-1.172.46l-.594-1.312c.469-.245.982-.43 1.54-.555a6.949 6.949 0 011.577-.195c1.1 0 1.927.24 2.485.719.562.479.843 1.232.843 2.258V97h-1.312zm-2.734-1.25c.666 0 1.2-.185 1.601-.555.406-.375.61-.898.61-1.57v-.75l-1.11.047c-.864.031-1.495.177-1.89.437-.391.256-.587.649-.587 1.18 0 .385.115.685.344.898.23.209.573.313 1.032.313zm10.992 1.406c-1.094 0-1.943-.393-2.547-1.18h-.11c.073.73.11 1.172.11 1.329v3.539h-1.836V88.359h1.484c.042.162.128.547.258 1.157h.094c.573-.875 1.432-1.313 2.578-1.313 1.078 0 1.917.39 2.516 1.172.604.781.906 1.878.906 3.29 0 1.41-.308 2.512-.922 3.304-.61.791-1.453 1.187-2.531 1.187zm-.446-7.453c-.729 0-1.263.214-1.601.64-.334.428-.5 1.11-.5 2.048v.273c0 1.052.166 1.815.5 2.29.333.468.877.702 1.633.702.635 0 1.125-.26 1.468-.781.344-.52.516-1.263.516-2.227 0-.968-.172-1.7-.516-2.195-.338-.5-.838-.75-1.5-.75zm11.836 4.836c0 .844-.307 1.492-.922 1.945-.614.448-1.494.672-2.64.672-1.151 0-2.076-.174-2.774-.523v-1.586c1.016.469 1.961.703 2.836.703 1.13 0 1.696-.341 1.696-1.023a.81.81 0 00-.188-.547c-.125-.146-.33-.297-.617-.453a10.604 10.604 0 00-1.195-.532c-.995-.385-1.67-.77-2.024-1.156-.349-.385-.523-.885-.523-1.5 0-.74.297-1.312.89-1.719.6-.411 1.412-.617 2.438-.617 1.016 0 1.976.206 2.883.617l-.594 1.383c-.932-.385-1.716-.578-2.352-.578-.968 0-1.453.276-1.453.828 0 .271.125.5.375.688.255.187.808.445 1.657.773.713.276 1.231.529 1.554.758.323.229.563.495.719.797.156.297.234.653.234 1.07zM67.031 97l-.258-1.133h-.093a2.6 2.6 0 01-1.094.945c-.469.23-1.005.344-1.61.344-1.046 0-1.828-.26-2.343-.781-.516-.52-.774-1.31-.774-2.367v-5.649h1.852v5.329c0 .661.135 1.158.406 1.492.271.328.696.492 1.274.492.77 0 1.336-.23 1.695-.688.365-.463.547-1.237.547-2.32V88.36h1.844V97H67.03zm5.899 0h-1.836V84.844h1.836V97zm6.406.156c-1.344 0-2.396-.39-3.156-1.172-.756-.786-1.133-1.867-1.133-3.242 0-1.411.351-2.52 1.055-3.328.703-.807 1.669-1.21 2.898-1.21 1.14 0 2.042.346 2.703 1.038.662.693.992 1.646.992 2.86v.992h-5.757c.025.838.252 1.484.68 1.937.426.448 1.028.672 1.804.672.51 0 .984-.047 1.422-.14a7.66 7.66 0 001.422-.485v1.492a5.632 5.632 0 01-1.36.453 8.33 8.33 0 01-1.57.133zM79 89.594c-.583 0-1.052.185-1.406.554-.35.37-.557.91-.625 1.618h3.922c-.01-.714-.183-1.253-.516-1.618-.333-.37-.792-.554-1.375-.554zm11.586 4.945c0 .844-.307 1.492-.922 1.945-.615.448-1.495.672-2.64.672-1.152 0-2.076-.174-2.774-.523v-1.586c1.016.469 1.96.703 2.836.703 1.13 0 1.695-.341 1.695-1.023a.81.81 0 00-.187-.547c-.125-.146-.331-.297-.617-.453a10.607 10.607 0 00-1.196-.532c-.995-.385-1.669-.77-2.023-1.156-.35-.385-.524-.885-.524-1.5 0-.74.297-1.312.891-1.719.599-.411 1.412-.617 2.438-.617 1.015 0 1.976.206 2.882.617l-.593 1.383c-.933-.385-1.717-.578-2.352-.578-.969 0-1.453.276-1.453.828 0 .271.125.5.375.688.255.187.807.445 1.656.773.714.276 1.232.529 1.555.758.323.229.562.495.719.797.156.297.234.653.234 1.07z" fill="#000"/><path opacity=".5" d="M3.808 112.896c1.052 0 1.88.262 2.481.786.606.519.91 1.232.91 2.139 0 1.035-.331 1.846-.992 2.434-.656.588-1.563.882-2.72.882-1.126 0-1.985-.18-2.578-.54v-1.094c.32.205.716.367 1.19.485.474.114.94.171 1.401.171.802 0 1.424-.189 1.866-.567.447-.378.67-.925.67-1.641 0-1.394-.854-2.092-2.563-2.092-.433 0-1.012.066-1.737.199l-.588-.376.376-4.676h4.97v1.046H2.495l-.253 3.001a7.95 7.95 0 011.566-.157zm11.511 1.093c0 1.727-.273 3.017-.82 3.869-.542.853-1.374 1.279-2.495 1.279-1.076 0-1.894-.436-2.454-1.306-.56-.875-.841-2.156-.841-3.842 0-1.741.271-3.033.813-3.876.543-.843 1.37-1.264 2.482-1.264 1.085 0 1.907.439 2.468 1.319.565.88.847 2.153.847 3.821zm-5.462 0c0 1.454.171 2.514.513 3.179.342.661.887.991 1.634.991.756 0 1.303-.335 1.64-1.005.342-.674.513-1.729.513-3.165 0-1.435-.17-2.486-.512-3.151-.338-.67-.885-1.005-1.641-1.005-.747 0-1.292.33-1.634.991-.342.656-.513 1.711-.513 3.165zm13.474 0c0 1.727-.273 3.017-.82 3.869-.543.853-1.374 1.279-2.495 1.279-1.076 0-1.894-.436-2.454-1.306-.561-.875-.841-2.156-.841-3.842 0-1.741.27-3.033.813-3.876.543-.843 1.37-1.264 2.482-1.264 1.084 0 1.907.439 2.467 1.319.566.88.848 2.153.848 3.821zm-5.462 0c0 1.454.171 2.514.513 3.179.342.661.886.991 1.634.991.756 0 1.303-.335 1.64-1.005.342-.674.513-1.729.513-3.165 0-1.435-.171-2.486-.513-3.151-.337-.67-.884-1.005-1.64-1.005-.748 0-1.292.33-1.634.991-.342.656-.513 1.711-.513 3.165zM38.425 119v-4.874c0-.597-.128-1.044-.383-1.34-.255-.301-.652-.451-1.19-.451-.706 0-1.228.203-1.565.608-.337.406-.506 1.03-.506 1.873V119h-1.134v-4.874c0-.597-.128-1.044-.383-1.34-.256-.301-.654-.451-1.197-.451-.71 0-1.232.214-1.565.643-.328.423-.492 1.121-.492 2.091V119h-1.135v-7.492h.923l.184 1.025h.055c.214-.364.515-.649.902-.854.392-.205.83-.308 1.313-.308 1.171 0 1.937.424 2.297 1.272h.054a2.39 2.39 0 01.971-.93 3.01 3.01 0 011.45-.342c.847 0 1.48.219 1.9.656.424.433.636 1.128.636 2.085V119h-1.135zm9.611-7.492v.718l-1.388.164c.128.159.242.369.342.629.1.255.15.544.15.868 0 .733-.25 1.319-.751 1.757-.502.437-1.19.656-2.065.656a3.39 3.39 0 01-.629-.055c-.483.255-.724.577-.724.964 0 .205.084.358.253.458.168.096.458.144.868.144h1.326c.811 0 1.433.17 1.866.512.438.342.656.839.656 1.49 0 .83-.332 1.461-.998 1.894-.665.438-1.636.656-2.912.656-.98 0-1.736-.182-2.27-.547-.528-.364-.792-.879-.792-1.545 0-.455.146-.849.437-1.182.292-.333.702-.558 1.23-.677a1.208 1.208 0 01-.485-.403 1.082 1.082 0 01-.191-.636c0-.273.073-.513.219-.718.146-.205.376-.403.69-.594a2.045 2.045 0 01-.95-.814 2.406 2.406 0 01-.362-1.312c0-.821.246-1.452.738-1.894.492-.447 1.19-.67 2.092-.67.392 0 .745.046 1.06.137h2.59zm-5.974 8.75c0 .405.17.713.512.923.342.209.832.314 1.47.314.952 0 1.657-.143 2.112-.431.46-.282.69-.667.69-1.155 0-.405-.125-.688-.375-.847-.25-.155-.723-.233-1.415-.233h-1.36c-.516 0-.917.123-1.204.369-.287.246-.43.6-.43 1.06zm.615-6.351c0 .524.148.921.444 1.19.296.269.709.403 1.237.403 1.108 0 1.662-.538 1.662-1.613 0-1.126-.561-1.689-1.682-1.689-.533 0-.944.144-1.23.431-.288.287-.431.713-.431 1.278zm14.02 5.23c-.487 0-.934-.089-1.34-.267a2.541 2.541 0 01-1.011-.834h-.082c.054.438.082.852.082 1.244v3.083H53.21v-10.855h.923l.157 1.025h.055c.291-.41.63-.706 1.018-.888.388-.183.832-.274 1.333-.274.994 0 1.76.34 2.297 1.019.542.679.814 1.631.814 2.857 0 1.231-.276 2.188-.828 2.871-.546.679-1.307 1.019-2.283 1.019zm-.164-6.802c-.765 0-1.32.212-1.66.636-.343.424-.518 1.098-.527 2.023v.253c0 1.053.175 1.807.526 2.263.351.451.914.677 1.688.677.648 0 1.154-.263 1.518-.787.37-.524.554-1.246.554-2.167 0-.934-.185-1.649-.554-2.146-.364-.501-.88-.752-1.545-.752zM62.932 119h-1.135v-10.637h1.135V119zm7.013 0l-.225-1.066h-.055c-.374.469-.747.788-1.121.957-.37.164-.832.246-1.388.246-.743 0-1.326-.192-1.75-.575-.419-.382-.629-.927-.629-1.633 0-1.513 1.21-2.306 3.63-2.379l1.272-.041v-.465c0-.588-.128-1.021-.383-1.299-.25-.282-.654-.424-1.21-.424-.624 0-1.33.192-2.12.575l-.348-.869c.37-.2.773-.357 1.21-.471a5.292 5.292 0 011.326-.171c.894 0 1.554.198 1.983.594.433.397.65 1.033.65 1.908V119h-.842zm-2.563-.8c.706 0 1.26-.193 1.661-.581.406-.387.608-.93.608-1.627v-.677l-1.134.048c-.903.032-1.554.173-1.956.424-.396.246-.594.631-.594 1.155 0 .411.123.723.369.937.25.214.6.321 1.046.321zm10.582-1.244c0 .697-.26 1.235-.78 1.613-.519.379-1.248.568-2.187.568-.993 0-1.768-.158-2.324-.472v-1.053c.36.183.745.326 1.155.431a4.87 4.87 0 001.196.157c.593 0 1.049-.093 1.368-.28.319-.191.478-.481.478-.868 0-.292-.127-.54-.383-.745-.25-.21-.742-.456-1.476-.739-.697-.259-1.194-.485-1.49-.676a2.109 2.109 0 01-.657-.663 1.747 1.747 0 01-.212-.882c0-.611.249-1.092.745-1.443.497-.355 1.178-.533 2.044-.533.807 0 1.596.164 2.366.492l-.404.923c-.752-.31-1.433-.465-2.044-.465-.537 0-.943.085-1.216.253-.274.169-.41.401-.41.697 0 .201.05.372.15.513.105.141.271.276.499.404.228.127.665.312 1.312.553.889.324 1.488.65 1.798.978.315.328.472.74.472 1.237zm4.272 1.244c.2 0 .394-.013.581-.041a4.15 4.15 0 00.445-.096v.869a2.006 2.006 0 01-.547.143 3.806 3.806 0 01-.643.062c-1.449 0-2.174-.764-2.174-2.29v-4.457h-1.073v-.547l1.073-.472.479-1.6h.656v1.737h2.174v.882h-2.174v4.409c0 .451.107.797.322 1.039.214.241.508.362.881.362zm3.664.8h-1.134v-7.492H85.9V119zm-1.23-9.522c0-.26.064-.449.191-.568a.662.662 0 01.479-.184c.182 0 .34.061.471.184.133.123.199.312.199.568 0 .255-.066.446-.199.574a.668.668 0 01-.471.184.662.662 0 01-.479-.184c-.127-.128-.191-.319-.191-.574zm6.63 9.659c-1.084 0-1.925-.333-2.522-.998-.592-.67-.888-1.616-.888-2.837 0-1.253.3-2.222.902-2.906.606-.683 1.467-1.025 2.584-1.025.36 0 .72.039 1.08.116.36.078.643.169.848.274l-.349.964a4.947 4.947 0 00-.82-.246 3.513 3.513 0 00-.786-.103c-1.523 0-2.284.971-2.284 2.912 0 .921.185 1.627.554 2.119.374.492.925.739 1.654.739.625 0 1.265-.135 1.921-.404v1.005c-.501.26-1.132.39-1.893.39zm10.309 0c-1.084 0-1.925-.333-2.522-.998-.593-.67-.889-1.616-.889-2.837 0-1.253.301-2.222.903-2.906.606-.683 1.467-1.025 2.584-1.025.36 0 .72.039 1.08.116.36.078.642.169.847.274l-.348.964a4.941 4.941 0 00-.821-.246 3.509 3.509 0 00-.786-.103c-1.522 0-2.283.971-2.283 2.912 0 .921.185 1.627.554 2.119.373.492.925.739 1.654.739.624 0 1.265-.135 1.921-.404v1.005c-.501.26-1.133.39-1.894.39zm8.286-.137l-.226-1.066h-.055c-.373.469-.747.788-1.121.957-.369.164-.832.246-1.388.246-.742 0-1.326-.192-1.75-.575-.419-.382-.628-.927-.628-1.633 0-1.513 1.21-2.306 3.629-2.379l1.272-.041v-.465c0-.588-.128-1.021-.383-1.299-.251-.282-.654-.424-1.21-.424-.624 0-1.331.192-2.119.575l-.349-.869c.37-.2.773-.357 1.21-.471a5.293 5.293 0 011.327-.171c.893 0 1.554.198 1.982.594.433.397.649 1.033.649 1.908V119h-.84zm-2.564-.8c.706 0 1.26-.193 1.661-.581.406-.387.609-.93.609-1.627v-.677l-1.135.048c-.903.032-1.554.173-1.955.424-.397.246-.595.631-.595 1.155 0 .411.123.723.369.937.251.214.599.321 1.046.321zm10.876.8v-4.847c0-.61-.139-1.066-.417-1.367-.278-.301-.713-.451-1.306-.451-.783 0-1.358.212-1.722.636-.365.424-.547 1.123-.547 2.098V119h-1.135v-7.492h.923l.185 1.025h.054c.233-.369.558-.654.978-.854a3.145 3.145 0 011.401-.308c.902 0 1.581.219 2.037.656.456.433.684 1.128.684 2.085V119h-1.135z" fill="#000"/><rect x="39" y="36" width="10" height="22" rx="5" fill="#fff" stroke="#000" stroke-width="2"/><path fill="#000" d="M40 46h8v2h-8z"/><path d="M8 2h18a3 3 0 013 3v2a1 1 0 01-1 1H6a1 1 0 01-1-1V5a3 3 0 013-3z" fill="#fff" stroke="#000" stroke-width="2"/><rect x="1" y="12" width="32" height="47" rx="6" fill="#fff" stroke="#000" stroke-width="2"/><path d="M5.5 31a.5.5 0 11-1 0 .5.5 0 011 0zm0 8a.5.5 0 11-1 0 .5.5 0 011 0zm2-4a.5.5 0 11-1 0 .5.5 0 011 0zm6-4a.5.5 0 11-1 0 .5.5 0 011 0zm0 8a.5.5 0 11-1 0 .5.5 0 011 0zm2-4a.5.5 0 11-1 0 .5.5 0 011 0zm6-4a.5.5 0 11-1 0 .5.5 0 011 0zm0 8a.5.5 0 11-1 0 .5.5 0 011 0zm2-4a.5.5 0 11-1 0 .5.5 0 011 0zm-14-4a.5.5 0 11-1 0 .5.5 0 011 0zm0 8a.5.5 0 11-1 0 .5.5 0 011 0zm2-4a.5.5 0 11-1 0 .5.5 0 011 0zm6-4a.5.5 0 11-1 0 .5.5 0 011 0zm0 8a.5.5 0 11-1 0 .5.5 0 011 0zm2-4a.5.5 0 11-1 0 .5.5 0 011 0zm6-4a.5.5 0 11-1 0 .5.5 0 011 0zm0 8a.5.5 0 11-1 0 .5.5 0 011 0zm2-4a.5.5 0 11-1 0 .5.5 0 011 0zm2-4a.5.5 0 11-1 0 .5.5 0 011 0zm0 8a.5.5 0 11-1 0 .5.5 0 011 0z" fill="#FF7D4E" stroke="#FF7D4E"/><path fill="#fff" stroke="#000" stroke-width="2" d="M7 8h20v4H7z"/></svg>