<svg width="51" height="27" viewBox="0 0 51 27" fill="none" xmlns="http://www.w3.org/2000/svg">
<rect width="51" height="27" rx="4" fill="#D32D2C"/>
<path d="M11.3574 15.5156V14.0508H14.5039V15.5156H11.3574ZM21.5293 16.2246H20.498V18H18.7285V16.2246H15.0723V14.9648L18.8281 9.43359H20.498V14.8184H21.5293V16.2246ZM18.7285 14.8184V13.3652C18.7285 13.123 18.7383 12.7715 18.7578 12.3105C18.7773 11.8496 18.793 11.582 18.8047 11.5078H18.7578C18.6133 11.8281 18.4395 12.1406 18.2363 12.4453L16.666 14.8184H18.7285ZM25.3203 12.5273C26.1484 12.5273 26.8066 12.7598 27.2949 13.2246C27.7871 13.6895 28.0332 14.3262 28.0332 15.1348C28.0332 16.0918 27.7383 16.8281 27.1484 17.3438C26.5586 17.8594 25.7148 18.1172 24.6172 18.1172C23.6641 18.1172 22.8945 17.9629 22.3086 17.6543V16.0898C22.6172 16.2539 22.9766 16.3887 23.3867 16.4941C23.7969 16.5957 24.1855 16.6465 24.5527 16.6465C25.6582 16.6465 26.2109 16.1934 26.2109 15.2871C26.2109 14.4238 25.6387 13.9922 24.4941 13.9922C24.2871 13.9922 24.0586 14.0137 23.8086 14.0566C23.5586 14.0957 23.3555 14.1387 23.1992 14.1855L22.4785 13.7988L22.8008 9.43359H27.4473V10.9688H24.3887L24.2305 12.6504L24.4355 12.6094C24.6738 12.5547 24.9688 12.5273 25.3203 12.5273ZM30.4238 12C30.4238 12.4961 30.4668 12.8672 30.5527 13.1133C30.6426 13.3555 30.7852 13.4766 30.9805 13.4766C31.3555 13.4766 31.543 12.9844 31.543 12C31.543 11.0234 31.3555 10.5352 30.9805 10.5352C30.7852 10.5352 30.6426 10.6562 30.5527 10.8984C30.4668 11.1367 30.4238 11.5039 30.4238 12ZM33.0195 11.9883C33.0195 12.8867 32.8457 13.5625 32.498 14.0156C32.1504 14.4648 31.6406 14.6895 30.9688 14.6895C30.3242 14.6895 29.8262 14.459 29.4746 13.998C29.123 13.5332 28.9473 12.8633 28.9473 11.9883C28.9473 10.2031 29.6211 9.31055 30.9688 9.31055C31.6289 9.31055 32.1348 9.54297 32.4863 10.0078C32.8418 10.4688 33.0195 11.1289 33.0195 11.9883ZM37.0508 9.43359L32.2988 18H30.8926L35.6445 9.43359H37.0508ZM36.4238 15.4219C36.4238 15.918 36.4668 16.2891 36.5527 16.5352C36.6426 16.7773 36.7852 16.8984 36.9805 16.8984C37.3555 16.8984 37.543 16.4062 37.543 15.4219C37.543 14.4453 37.3555 13.957 36.9805 13.957C36.7852 13.957 36.6426 14.0781 36.5527 14.3203C36.4668 14.5586 36.4238 14.9258 36.4238 15.4219ZM39.0195 15.4102C39.0195 16.3047 38.8457 16.9785 38.498 17.4316C38.1504 17.8809 37.6406 18.1055 36.9688 18.1055C36.3242 18.1055 35.8262 17.875 35.4746 17.4141C35.123 16.9492 34.9473 16.2812 34.9473 15.4102C34.9473 13.625 35.6211 12.7324 36.9688 12.7324C37.6289 12.7324 38.1348 12.9648 38.4863 13.4297C38.8418 13.8906 39.0195 14.5508 39.0195 15.4102Z" fill="white"/>
</svg>
