<svg width="32" height="32" viewBox="0 0 32 32" fill="none" xmlns="http://www.w3.org/2000/svg">
<path d="M26.9973 27.116V27.1008L25.5989 10.2262C25.5374 9.2207 24.6974 8.43359 23.6781 8.43359H21.8033C21.6292 5.40703 19.0937 3 15.9947 3C12.9009 3 10.3603 5.40703 10.1912 8.43359H8.3165C7.29717 8.43359 6.45713 9.2207 6.39566 10.2262L5.00241 27.0906V27.116C4.9768 27.6035 5.15608 28.0859 5.49415 28.4414C5.83221 28.7969 6.3137 29 6.80544 29H25.1943C25.686 29 26.1624 28.7969 26.5056 28.4414C26.8385 28.0859 27.0229 27.6035 26.9973 27.116ZM15.9947 4.82812C18.0744 4.82812 19.7801 6.41758 19.9491 8.43359H12.0404C12.2094 6.41758 13.9202 4.82812 15.9947 4.82812ZM6.84642 27.1719L8.23966 10.3633V10.3379C8.23966 10.2973 8.27552 10.2617 8.32162 10.2617H23.6832C23.7242 10.2617 23.76 10.2922 23.7652 10.3379V10.3531L25.1482 27.1719H6.84642Z" fill="black"/>
</svg>
