<svg width="168" height="200" viewBox="0 0 168 200" fill="none" xmlns="http://www.w3.org/2000/svg">
<path fill-rule="evenodd" clip-rule="evenodd" d="M61.3125 84.6621H106.685V115.95C106.685 128.466 96.5067 138.65 83.9986 138.65C71.4906 138.65 61.3125 128.466 61.3125 115.95V84.6621Z" fill="#FF7D4E"/>
<path fill-rule="evenodd" clip-rule="evenodd" d="M137.343 84.6621V115.95C137.343 145.398 113.431 169.325 84 169.325C54.5693 169.325 30.6569 145.398 30.6569 115.95V84.6621H0V115.95C0 162.331 37.6467 200 84 200C130.353 200 168 162.331 168 115.95V84.6621H137.343Z" fill="#725CF0"/>
<path fill-rule="evenodd" clip-rule="evenodd" d="M83.9993 0C54.5687 0 30.6562 23.9264 30.6562 53.3742V84.6626H61.3132V53.3742C61.3132 40.8589 71.4913 30.6748 83.9993 30.6748C96.5073 30.6748 106.685 40.8589 106.685 53.3742V84.6626H137.342V53.3742C137.342 23.9264 113.43 0 83.9993 0Z" fill="#FDC672"/>
</svg>
